<svg version="1.1" xmlns="http://www.w3.org/2000/svg" xmlns:xlink="http://www.w3.org/1999/xlink" width="24.03006" height="27.88697"><g transform="translate(-228,-166.12698)"><g data-paper-data="{&quot;isPaintingLayer&quot;:true}" fill="#000000" fill-rule="nonzero" stroke="#1a1a1a" stroke-width="0" stroke-linecap="butt" stroke-linejoin="miter" stroke-miterlimit="10" stroke-dasharray="" stroke-dashoffset="0" font-family="none" font-weight="none" font-size="none" text-anchor="none" style="mix-blend-mode: normal"><path d="M228,193.17071c0,-0.98728 0,-19.11515 0,-19.11515h24.02121c0,0 0,18.35637 0,19.22041c0,0.55117 -0.36612,0.73799 -0.85941,0.73799c0,0 -21.21104,0 -22.26316,0c-0.45597,0 -0.89864,-0.4089 -0.89864,-0.84326z" data-paper-data="{&quot;origPos&quot;:null}"/><path d="M228.01061,173.41269c0,0 0,-5.3712 0,-6.40376c0,-0.40669 0.35276,-0.88195 0.78355,-0.88195c0.91736,0 6.85931,0 6.85931,0v7.28571z" data-paper-data="{&quot;origPos&quot;:null}"/><path d="M236.36776,173.41269v-7.28571h7.28571v7.28571z" data-paper-data="{&quot;origPos&quot;:null}"/><path d="M244.3872,173.41269v-7.28571c0,0 5.94195,0 6.85931,0c0.43079,0 0.78355,0.47526 0.78355,0.88195c0,1.03257 0,6.33234 0,6.33234z" data-paper-data="{&quot;origPos&quot;:null,&quot;index&quot;:null}"/></g></g></svg>