<svg version="1.1" xmlns="http://www.w3.org/2000/svg" xmlns:xlink="http://www.w3.org/1999/xlink" width="90.13846" height="92.3" viewBox="0,0,90.13846,92.3"><g transform="translate(-205.16153,-134.6)"><g data-paper-data="{&quot;isPaintingLayer&quot;:true}" fill="none" fill-rule="nonzero" stroke="none" stroke-width="none" stroke-linecap="none" stroke-linejoin="none" stroke-miterlimit="10" stroke-dasharray="" stroke-dashoffset="0" font-family="none" font-weight="none" font-size="none" text-anchor="none" style="mix-blend-mode: normal"><g id="Layer_3_19_"><path d="M238.7,201.9c0.9,0.4 2.7,0.9 1,4.8c-1.7,3.9 -8.5,5.9 -9.3,6c-3,0.6 -6.9,1.3 -11.3,0.6c-12.8,-1.9 -15.3,-15.2 -11.8,-18c3.5,-2.8 6.7,5.1 13,9.1c2.8,1.9 5.8,2.2 8.3,2.2c3.6,0.1 9.2,-4.9 10.1,-4.7z" id="ID0.8535828334279358_18_" fill="#faa51f" stroke="none" stroke-width="1" stroke-linecap="butt" stroke-linejoin="miter"/><path d="M212.7,197.7c2.1,2.2 6,5.9 6,5.9c0,0 -4.2,0.1 -6,2.3c-1.7,2.2 1.3,5.8 -0.5,5c-1.4,-1.2 -3.7,-3 -5.4,-6.3c-1.6,-3.3 -1.2,-8.4 0.6,-9.4c2,-0.8 3.5,0.5 5.3,2.5z" id="ID0.914295740891248_18_" fill="#ffffff" stroke="none" stroke-width="1" stroke-linecap="butt" stroke-linejoin="miter"/><path d="M238.7,201.9c0.9,0.4 2.7,0.9 1,4.8c-1.7,3.9 -8.5,5.9 -9.3,6c-3,0.6 -6.9,1.3 -11.3,0.6c-12.8,-1.9 -15.3,-15.2 -11.8,-18c3.5,-2.8 6.7,5.1 13,9.1c2.8,1.9 5.8,2.2 8.3,2.2c3.6,0.1 9.2,-4.9 10.1,-4.7z" id="ID0.40227043256163597_18_" fill="none" stroke="#8e5322" stroke-width="1.4" stroke-linecap="round" stroke-linejoin="round"/></g><path d="M245.7,196l-5.2,13.6c0,0 1.6,-0.8 -3.2,2.3c-2.8,1.8 -16.6,-2.6 -18.5,-7.5c-1.2,-3.4 5.4,-18.2 5.4,-18.2z" id="ID0.26344340899959207_18_" fill="#518943" stroke="#426c36" stroke-width="1.4" stroke-linecap="round" stroke-linejoin="round"/><path d="M230.6,175.6c1.4,0.4 2.4,1.6 2.9,3.1c0.5,1.5 0.6,3.5 0,5.4c-0.6,2 -1.7,3.6 -2.9,4.6c-1.3,1 -2.8,1.4 -4.1,1c-1.3,-0.4 -2.4,-1.6 -2.9,-3.1c-0.5,-1.5 -0.6,-3.5 0,-5.4c0.6,-2 1.7,-3.6 2.9,-4.6c1.2,-1 2.7,-1.4 4.1,-1z" id="ID0.2414738917723298_18_" fill="#fefbdf" stroke="#70715e" stroke-width="1.4" stroke-linecap="round" stroke-linejoin="round"/><path d="M229.7,178.8c0.7,0.2 1.3,0.9 1.6,1.7c0.3,0.9 0.3,1.9 0,3c-0.3,1.1 -0.9,2 -1.6,2.5c-0.7,0.6 -1.5,0.8 -2.2,0.6c-0.7,-0.2 -1.3,-0.9 -1.6,-1.7c-0.3,-0.9 -0.3,-1.9 0,-3c0.3,-1.1 0.9,-2 1.6,-2.5c0.6,-0.6 1.4,-0.9 2.2,-0.6z" id="ID0.6192030962556601_18_" fill="#fefbdf" stroke="#70715e" stroke-width="1.4" stroke-linecap="round" stroke-linejoin="round"/><path d="M221.5,203.7c-0.7,-1.1 1.6,-6.6 1.6,-6.6l5.9,3.1l-2.6,7.2c0,0 -4.2,-2.7 -4.9,-3.7z" id="ID0.15330331353470683_18_" fill="#518943" stroke="#426c36" stroke-width="1.4" stroke-linecap="round" stroke-linejoin="round"/><g id="ID0.16171270422637463_19_" fill="#faa51f" stroke="#8e5322" stroke-width="1.4" stroke-linecap="round" stroke-linejoin="round"><path d="M250.3,204.6c0,0 3.3,6.3 9.6,12.5c2.7,2.7 5.3,-5.2 9.7,0.8c1.2,1.7 -5.9,7.5 -8,8.3c-1.9,0.7 -2.7,0.5 -3.8,-1.2c-3.9,-6.3 -15.2,-12.3 -15.2,-12.3" id="ID0.007584026083350182_19_"/><path d="M260.5,219c1,-1.2 2.1,-1.9 2.1,-1.9" id="ID0.31672530295327306_19_"/></g><path d="M240.5,204.6" id="ID0.39854341372847557_18_" fill="#faa51f" stroke="#8e5322" stroke-width="1.4" stroke-linecap="round" stroke-linejoin="round"/><path d="M252.6,198.9c-1.9,6.4 -3,16.3 -14.4,13c-11.4,-3.4 -7.8,-11.7 -5.9,-18.1c1.9,-6.4 6.3,-7 12.8,-5.1c6.3,1.9 9.4,3.8 7.5,10.2z" id="ID0.46792364912107587_18_" fill="#faa51f" stroke="#8e5322" stroke-width="1.4" stroke-linecap="round" stroke-linejoin="round"/><path d="M249.3,201c-1.2,4 -2.1,10.3 -8.2,8.5c-6.1,-1.8 -4.1,-7.1 -2.9,-11.2c1.2,-4.1 3.6,-4.6 7.2,-3.5c3.5,1.1 5.1,2.2 3.9,6.2z" id="ID0.38032895559445024_18_" fill="#ffffff" stroke="none" stroke-width="1" stroke-linecap="butt" stroke-linejoin="miter"/><g id="ID0.15723733883351088_21_" fill="#faa51f" stroke="#8e5322" stroke-width="1.4" stroke-linecap="round" stroke-linejoin="round"><path d="M241,211.9c-8.6,-0.2 -16.8,6.2 -18.8,5.1c-2.8,-2.7 -5.7,5.1 -9.9,-1.3c-1.4,-2.1 4.9,-6.4 6.9,-7.4c1.9,-0.9 3.2,-0.5 4.3,1.3c1.4,-0.5 8.4,-5.2 8.4,-5.2" id="ID0.527006761636585_21_"/><path d="M222,216.9c-1.1,-1 -1.7,-2.5 -1.7,-2.5" id="ID0.8937406223267317_29_"/></g><g id="ID0.7407716196030378_18_" stroke="#8e5322" stroke-width="1.4" stroke-linecap="round" stroke-linejoin="round"><path d="M227,202.1c-3.3,-3.4 3.3,-12.6 11.3,-15.9l7.2,3.6" id="ID0.15909873321652412_18_" fill="#faa51f"/><path d="M234.7,197.5" id="ID0.8024068027734756_18_" fill="#faa51f"/><path d="M238.2,196.7" id="ID0.06734407460317016_18_" fill="none"/><path d="M234.7,197.5l3.7,-3.2" id="ID0.8143284288235009_18_" fill="#faa51f"/><path d="M233.6,196.9l1.1,0.6" id="ID0.6682511982508004_18_" fill="none"/></g><g id="ID0.32291418174281716_18_" stroke="#8e5322" stroke-width="1.4" stroke-linecap="round" stroke-linejoin="round"><path d="M251,192.6l4.2,0.5c4.4,4.2 7,14.1 0.9,16.4" id="ID0.30105241015553474_18_" fill="#faa51f"/><path d="M252.6,202.8" id="ID0.3822403196245432_18_" fill="#faa51f"/><path d="M250.6,200.6" id="ID0.5879319808445871_18_" fill="none"/><path d="M252.6,198.9v3.9" id="ID0.7841392233967781_18_" fill="#faa51f"/><path d="M252.6,202.8h1.1" id="ID0.4326359131373465_18_" fill="none"/></g><path d="M229.8,204.3c19,-9.2 6.2,-18.4 6.2,-18.4c16.3,10.1 -1.7,21 -6.3,21.4" id="ID0.48627097019925714_18_" fill="#518943" stroke="#426c36" stroke-width="1.4" stroke-linecap="round" stroke-linejoin="round"/><path d="M250.3,203.3c6.5,-7.3 -2.6,-14 -2.6,-14c10.3,5.8 7.6,11.3 4.1,15.8" id="ID0.07006075512617826_18_" fill="#518943" stroke="#426c36" stroke-width="1.4" stroke-linecap="round" stroke-linejoin="round"/><g><g id="Layer_2_37_"><path d="M261.2,144.4l8,-6.1l1.4,11.5c0,0 5.6,5.3 7.1,8.7c2.4,5.6 2,9.9 2,9.9c0,0 6.6,2.9 7.1,8.5c0.6,5.6 -5,15.5 -23.5,16.8c-18.5,1.4 -32.3,-5.3 -37.9,-17.2c-5.4,-11.7 6.9,-23.5 6.2,-22.8l0.1,-18.4l11.5,9.7c0,0 4.5,-1.2 9.1,-0.8c1.7,0.1 4.7,0.7 6.2,1z" id="ID0.2591130444779992_18_" fill="#faa51f" stroke="none" stroke-width="1" stroke-linecap="butt" stroke-linejoin="miter"/><path d="M279.3,168.8c0,0 6.4,2.4 6.9,8c0.8,5.6 -5.3,15.3 -22.8,16.3c-4,0.2 -7.5,0.5 -13,-0.2c-8.4,-0.9 -17,-7.3 -15,-18.3c1.2,-6.3 9.2,-4.8 9.2,-4.8l7.3,-0.9c0,0 6.8,2.5 11.1,2.1c4.3,-0.4 4.7,-3.7 4.7,-3.7l9.1,-1.5l2.1,2.3z" id="ID0.3588979784399271_18_" fill="#ffffff" stroke="none" stroke-width="1" stroke-linecap="butt" stroke-linejoin="miter"/><path d="M294.6,171.5c0,0 -2,1.3 -4.7,1.9c-2.2,0.5 -6.7,0.7 -6.7,0.7" id="ID0.2727069961838424_18_" fill="none" stroke="#8e5322" stroke-width="1.4" stroke-linecap="round" stroke-linejoin="round"/><path d="M292.7,182.5c0,0 -1.9,0 -4.5,-0.6c-2.8,-0.6 -5.2,-2 -5.2,-2" id="ID0.5861211125738919_18_" fill="none" stroke="#8e5322" stroke-width="1.4" stroke-linecap="round" stroke-linejoin="round"/><path d="M241.2,143.2l4.7,4.2" id="ID0.4793355236761272_18_" fill="none" stroke="#8e5322" stroke-width="1.4" stroke-linecap="round" stroke-linejoin="round"/><path d="M261.2,144.4l8,-6.1l1.4,11.5c0,0 5.6,5.3 7.1,8.7c2.4,5.6 2,9.9 2,9.9c0,0 6.6,2.9 7.1,8.5c0.6,5.6 -5,15.5 -23.5,16.8c-18.5,1.4 -32.3,-5.3 -37.9,-17.2c-5.4,-11.7 6.9,-23.5 6.2,-22.8l0.1,-18.4l11.5,9.7c0,0 4.5,-1.2 9.1,-0.8c1.7,0.1 4.7,0.7 6.2,1z" id="ID0.48413723474368453_18_" fill="none" stroke="#8e5322" stroke-width="1.4" stroke-linecap="round" stroke-linejoin="round"/><path d="M225.4,172.1c0,0 -3.5,0 -5.3,-0.1c-1.8,-0.1 -5.7,-1 -5.7,-1" id="ID0.9024141579866409_18_" fill="none" stroke="#8e5322" stroke-width="1.4" stroke-linecap="round" stroke-linejoin="round"/><path d="M214.7,161.4c0,0 2.2,0.6 5.9,2.9c3.4,2 5.5,4 5.5,4" id="ID0.16030752705410123_18_" fill="none" stroke="#8e5322" stroke-width="1.4" stroke-linecap="round" stroke-linejoin="round"/></g><g id="Layer_5_19_"><path d="M275.6,158.2c2.3,4.6 1.7,9.6 -1.1,10.9c-2.9,1.5 -7.1,-1.2 -9.4,-5.9c-2.3,-4.6 -1.7,-9.6 1.1,-10.9c2.9,-1.3 7.1,1.3 9.4,5.9z" id="ID0.40023312577977777_18_" fill="#ffffff" stroke="#8e5322" stroke-width="1.4" stroke-linecap="round" stroke-linejoin="round"/><path d="M275,161.8c0.2,1 -0.4,2 -1.5,2.1c-0.9,0.2 -1.8,-0.5 -2,-1.7c-0.2,-1 0.4,-2 1.5,-2.1c1,0 1.9,0.7 2,1.7" id="ID0.43813491938635707_18_" fill="#414142" stroke="none" stroke-width="1" stroke-linecap="butt" stroke-linejoin="miter"/></g><g id="Layer_7_19_"><path d="M252.2,158.5c2.3,4.6 1.3,9.7 -2.1,11.4c-3.4,1.7 -8.1,-0.7 -10.3,-5.4c-2.3,-4.6 -1.3,-9.7 2.1,-11.4c3.4,-1.6 8,0.8 10.3,5.4z" id="ID0.4253597157076001_18_" fill="#ffffff" stroke="#8e5322" stroke-width="1.4" stroke-linecap="round" stroke-linejoin="round"/><path d="M251.4,162.3c-0.1,1 -1,1.8 -1.9,1.7c-1,-0.1 -1.6,-1 -1.5,-2.1c0.1,-1 1,-1.8 1.9,-1.7c0.9,0.1 1.6,1 1.5,2.1" id="ID0.814307457767427_18_" fill="#414142" stroke="none" stroke-width="1" stroke-linecap="butt" stroke-linejoin="miter"/></g><path d="M261.9,169.7c1.7,0 4.2,-1 4.2,0.9c-0.1,0.8 -2.1,3.9 -3.9,3.8c-2,-0.1 -5.2,-3.1 -4.9,-4.5c0.3,-1.4 3.1,-0.2 4.6,-0.2z" id="ID0.5240494590252638_18_" fill="#5f4b43" stroke="#8e5322" stroke-width="1.4" stroke-linecap="round" stroke-linejoin="round"/><path d="M258.7,186c-5.5,0.4 -7.7,-2.2 -7.7,-2.2" id="ID0.046259244438260794_18_" fill="#ffffff" stroke="#8e5322" stroke-width="1.4" stroke-linecap="round" stroke-linejoin="round"/></g><path d="M233.6,196.9c5.9,-0.2 7.9,3.7 7.3,5.3c-1.3,3.8 -6.2,4.2 -13.9,0" id="ID0.1790580078959465_18_" fill="#faa51f" stroke="#8e5322" stroke-width="1.4" stroke-linecap="round" stroke-linejoin="round"/><path d="M256.1,209.5c-6.2,2.7 -8.9,-1.9 -6.8,-4.5c1.4,-1.9 3.5,-3.6 6.2,-1.4" id="ID0.7947451807558537_18_" fill="#faa51f" stroke="#8e5322" stroke-width="1.4" stroke-linecap="round" stroke-linejoin="round"/></g></g></svg>