<svg version="1.1" xmlns="http://www.w3.org/2000/svg" xmlns:xlink="http://www.w3.org/1999/xlink" width="89.0696" height="94.1" viewBox="0,0,89.0696,94.1"><g transform="translate(-203.67228,-138.1)"><g data-paper-data="{&quot;isPaintingLayer&quot;:true}" fill="none" fill-rule="nonzero" stroke="none" stroke-width="none" stroke-linecap="none" stroke-linejoin="none" stroke-miterlimit="10" stroke-dasharray="" stroke-dashoffset="0" font-family="none" font-weight="none" font-size="none" text-anchor="none" style="mix-blend-mode: normal"><g data-paper-data="{&quot;index&quot;:null}" id="Layer_3_21_"><path d="M271.47228,212.5c2.4,-0.6 5.2,-1.7 7.5,-4.2c5.1,-5.5 6.2,-13.9 10.3,-12.1c4.1,1.8 5,15.3 -6.9,20.4c-4.1,1.8 -8,2.1 -11.1,2.2c-0.8,0.1 -7.9,-0.1 -10.5,-3.4c-2.6,-3.3 -1.1,-4.3 -0.3,-4.9c0.9,-0.5 7.6,3 11,2z" id="ID0.8535828334279358_20_" fill="#faa51f" stroke="none" stroke-width="1" stroke-linecap="butt" stroke-linejoin="miter"/><path d="M289.07228,196.1c2,0.5 3.6,5.3 3,9c-0.8,3.6 -2.5,6 -3.7,7.4c-1.5,1.2 0.5,-3.1 -1.8,-4.7c-2.3,-1.7 -6.4,-0.7 -6.4,-0.7c0,0 2.8,-4.6 4.4,-7.2c1.3,-2.5 2.4,-4.2 4.5,-3.8z" id="ID0.914295740891248_20_" fill="#ffffff" stroke="none" stroke-width="1" stroke-linecap="butt" stroke-linejoin="miter"/><path d="M271.47228,212.5c2.4,-0.6 5.2,-1.7 7.5,-4.2c5.1,-5.5 6.2,-13.9 10.3,-12.1c4.1,1.8 5,15.3 -6.9,20.4c-4.1,1.8 -8,2.1 -11.1,2.2c-0.8,0.1 -7.9,-0.1 -10.5,-3.4c-2.6,-3.3 -1.1,-4.3 -0.3,-4.9c0.9,-0.5 7.6,3 11,2z" id="ID0.40227043256163597_20_" fill="none" stroke="#8e5322" stroke-width="1.4" stroke-linecap="round" stroke-linejoin="round"/></g><g data-paper-data="{&quot;index&quot;:null}" stroke-width="1.4" stroke-linecap="round" stroke-linejoin="round"><path d="M273.57228,187.8c0,0 6.6,14.8 5.4,18.2c-1.9,4.9 -15.7,9.3 -18.5,7.5c-4.8,-3.1 -3.2,-2.3 -3.2,-2.3l-5.1,-13.7z" id="ID0.26344340899959207_20_" fill="#518943" stroke="#426c36"/><path d="M271.37228,178.2c1.2,1 2.3,2.6 2.9,4.6c0.6,1.9 0.5,3.9 0,5.4c-0.5,1.5 -1.5,2.7 -2.9,3.1c-1.3,0.5 -2.8,0 -4.1,-1c-1.2,-1 -2.3,-2.6 -2.9,-4.6c-0.6,-2 -0.5,-3.9 0,-5.5c0.5,-1.5 1.5,-2.7 2.9,-3.1c1.4,-0.4 2.8,0.1 4.1,1.1z" id="ID0.2414738917723298_20_" fill="#fefbdf" stroke="#70715e"/><path d="M270.37228,180.9c0.7,0.5 1.3,1.4 1.6,2.5c0.3,1.1 0.3,2.2 0,3c-0.3,0.8 -0.9,1.5 -1.6,1.7c-0.7,0.2 -1.5,0 -2.2,-0.6c-0.7,-0.5 -1.3,-1.4 -1.6,-2.5c-0.3,-1.1 -0.3,-2.1 0,-3c0.3,-0.8 0.9,-1.5 1.6,-1.7c0.8,-0.2 1.6,0 2.2,0.6z" id="ID0.6192030962556601_20_" fill="#fefbdf" stroke="#70715e"/><path d="M271.47228,208.9l-2.6,-7.2l5.9,-3.1c0,0 2.3,5.5 1.6,6.6c-0.7,1 -4.9,3.7 -4.9,3.7z" id="ID0.15330331353470683_20_" fill="#518943" stroke="#426c36"/></g><g data-paper-data="{&quot;index&quot;:null}" id="ID0.16171270422637463_21_" fill="#faa51f" stroke="#8e5322" stroke-width="1.4" stroke-linecap="round" stroke-linejoin="round"><path d="M263.27228,213.2c0,0 -3.3,4.3 -4.4,6.5c0.5,2.4 9.1,5.8 9.5,8.4c0.3,2 -0.2,2.7 -2.1,3.4c-2.1,0.8 -11.3,1 -11.5,-1.1c-0.4,-4.5 2.8,-4.9 3.6,-5.2c0,0 -3.7,-1.6 -7.4,-4.1c-0.8,-2.7 1.2,-7.5 1.2,-7.5" id="ID0.007584026083350182_21_"/><path d="M258.07228,225.4c0,0 0.7,-0.3 2.2,0" id="ID0.31672530295327306_21_"/></g><path d="M258.27228,209.1" data-paper-data="{&quot;index&quot;:null}" id="ID0.39854341372847557_20_" fill="#faa51f" stroke="#8e5322" stroke-width="1.4" stroke-linecap="round" stroke-linejoin="round"/><path d="M253.77228,193.3c6.5,-1.9 10.9,-1.3 12.8,5.1c1.9,6.4 5.5,14.8 -5.9,18.1c-11.4,3.3 -12.5,-6.6 -14.4,-13c-1.9,-6.5 1.2,-8.4 7.5,-10.2z" data-paper-data="{&quot;index&quot;:null}" id="ID0.46792364912107587_20_" fill="#faa51f" stroke="#8e5322" stroke-width="1.4" stroke-linecap="round" stroke-linejoin="round"/><path d="M251.47228,199.3c3.6,-1.1 6,-0.5 7.2,3.5c1.2,4.1 3.2,9.4 -2.9,11.2c-6.1,1.8 -7,-4.5 -8.2,-8.5c-1.2,-4 0.3,-5.1 3.9,-6.2z" data-paper-data="{&quot;index&quot;:null}" id="ID0.38032895559445024_20_" fill="#ffffff" stroke="none" stroke-width="1" stroke-linecap="butt" stroke-linejoin="miter"/><g data-paper-data="{&quot;index&quot;:null}" id="ID0.15723733883351088_23_" fill="#faa51f" stroke="#8e5322" stroke-width="1.4" stroke-linecap="round" stroke-linejoin="round"><path d="M267.97228,210.6c0,0 -3.3,4.3 -3.5,5.7c2.6,-0.8 3.5,-2.8 5.1,0.9c0.8,2 2.7,6.5 0.5,7.7c-7.2,3.6 -2,-4.2 -12.2,-2.7c-2.9,0.2 -8.2,-0.8 -2.7,-8.8" id="ID0.527006761636585_23_"/><path d="M260.07228,222.2c1.1,-0.3 3,-0.3 4.4,-0.4" id="ID0.8937406223267317_32_"/><path d="M265.17228,214.8c-1,0.9 -2.5,2.8 -3,3" id="ID0.8937406223267317_31_"/></g><g data-paper-data="{&quot;index&quot;:null}" id="ID0.7407716196030378_20_" stroke="#8e5322" stroke-width="1.4" stroke-linecap="round" stroke-linejoin="round"><path d="M253.37228,194.3l7.2,-3.6c8,3.3 14.6,12.5 11.3,15.9" id="ID0.15909873321652412_20_" fill="#faa51f"/><path d="M264.17228,202.1" id="ID0.8024068027734756_20_" fill="#faa51f"/><path d="M260.67228,201.2" id="ID0.06734407460317016_20_" fill="none"/><path d="M264.17228,202.1l-3.7,-3.2" id="ID0.8143284288235009_20_" fill="#faa51f"/><path d="M265.27228,201.5l-1.1,0.6" id="ID0.6682511982508004_20_" fill="none"/></g><g data-paper-data="{&quot;index&quot;:null}" id="ID0.32291418174281716_20_" stroke="#8e5322" stroke-width="1.4" stroke-linecap="round" stroke-linejoin="round"><path d="M242.77228,214.1c-6.1,-2.3 -3.5,-12.2 0.9,-16.4l4.2,-0.5" id="ID0.30105241015553474_20_" fill="#faa51f"/><path d="M246.27228,207.3" id="ID0.3822403196245432_20_" fill="#faa51f"/><path d="M248.27228,205.2" id="ID0.5879319808445871_20_" fill="none"/><path d="M246.27228,203.4v3.9" id="ID0.7841392233967781_20_" fill="#faa51f"/><path d="M245.17228,207.3h1.1" id="ID0.4326359131373465_20_" fill="none"/></g><path d="M269.17228,211.8c-4.6,-0.4 -22.6,-11.3 -6.4,-21.3c0,0 -12.8,9.2 6.2,18.4" data-paper-data="{&quot;index&quot;:null}" id="ID0.48627097019925714_20_" fill="#518943" stroke="#426c36" stroke-width="1.4" stroke-linecap="round" stroke-linejoin="round"/><path d="M247.07228,209.7c-3.5,-4.5 -6.2,-10 4.1,-15.8c0,0 -9.1,6.7 -2.6,14" data-paper-data="{&quot;index&quot;:null}" id="ID0.07006075512617826_20_" fill="#518943" stroke="#426c36" stroke-width="1.4" stroke-linecap="round" stroke-linejoin="round"/><path d="M271.87228,206.7c-7.7,4.2 -12.6,3.8 -13.9,0c-0.6,-1.6 1.4,-5.5 7.3,-5.3" data-paper-data="{&quot;index&quot;:null}" id="ID0.1790580078959465_20_" fill="#faa51f" stroke="#8e5322" stroke-width="1.4" stroke-linecap="round" stroke-linejoin="round"/><path d="M243.37228,208.2c2.7,-2.2 4.8,-0.5 6.2,1.4c2.1,2.6 -0.6,7.2 -6.8,4.5" data-paper-data="{&quot;index&quot;:null}" id="ID0.7947451807558537_20_" fill="#faa51f" stroke="#8e5322" stroke-width="1.4" stroke-linecap="round" stroke-linejoin="round"/><g data-paper-data="{&quot;index&quot;:null}"><g id="Layer_2_41_"><path d="M240.27228,148.7c1.5,-0.3 4.5,-0.9 6.2,-1c4.6,-0.4 9.1,0.8 9.1,0.8l11.5,-9.7l0.1,18.4c-0.7,-0.7 11.6,11.1 6.2,22.8c-5.5,12 -19.4,18.6 -37.9,17.2c-18.5,-1.3 -24.1,-11.2 -23.5,-16.8c0.5,-5.6 7.1,-8.5 7.1,-8.5c0,0 -0.4,-4.3 2,-9.9c1.5,-3.4 7.1,-8.7 7.1,-8.7l1.4,-11.5l8,6.1z" id="ID0.2591130444779992_20_" fill="#faa51f" stroke="none" stroke-width="1" stroke-linecap="butt" stroke-linejoin="miter"/><path d="M219.97228,171.7l2.1,-2.3l9.1,1.5c0,0 0.4,3.3 4.7,3.7c4.3,0.4 11.1,-2.1 11.1,-2.1l7.3,0.9c0,0 8,-1.5 9.2,4.8c2.1,10.9 -6.5,17.3 -15,18.3c-5.5,0.7 -9,0.4 -13,0.2c-17.5,-1 -23.6,-10.7 -22.8,-16.3c0.5,-5.6 6.9,-8 6.9,-8z" id="ID0.3588979784399271_20_" fill="#ffffff" stroke="none" stroke-width="1" stroke-linecap="butt" stroke-linejoin="miter"/><path d="M215.67228,177.6c0,0 -4.4,-0.4 -6.7,-1c-2.7,-0.7 -4.6,-2.2 -4.6,-2.2" id="ID0.2727069961838424_20_" fill="none" stroke="#8e5322" stroke-width="1.4" stroke-linecap="round" stroke-linejoin="round"/><path d="M215.87228,183.4c0,0 -2.5,1.4 -5.2,1.9c-2.7,0.6 -4.5,0.6 -4.5,0.6" id="ID0.5861211125738919_20_" fill="none" stroke="#8e5322" stroke-width="1.4" stroke-linecap="round" stroke-linejoin="round"/><path d="M252.97228,151l4.7,-4.2" id="ID0.4793355236761272_20_" fill="none" stroke="#8e5322" stroke-width="1.4" stroke-linecap="round" stroke-linejoin="round"/><path d="M240.27228,148.7c1.5,-0.3 4.5,-0.9 6.2,-1c4.6,-0.4 9.1,0.8 9.1,0.8l11.5,-9.7l0.1,18.4c-0.7,-0.7 11.6,11.1 6.2,22.8c-5.5,12 -19.4,18.6 -37.9,17.2c-18.5,-1.3 -24.1,-11.2 -23.5,-16.8c0.5,-5.6 7.1,-8.5 7.1,-8.5c0,0 -0.4,-4.3 2,-9.9c1.5,-3.4 7.1,-8.7 7.1,-8.7l1.4,-11.5l8,6.1z" id="ID0.48413723474368453_20_" fill="none" stroke="#8e5322" stroke-width="1.4" stroke-linecap="round" stroke-linejoin="round"/><path d="M284.37228,173.9c0,0 -3.9,1.1 -5.7,1.3c-1.8,0.2 -5.3,0.4 -5.3,0.4" id="ID0.9024141579866409_20_" fill="none" stroke="#8e5322" stroke-width="1.4" stroke-linecap="round" stroke-linejoin="round"/><path d="M272.77228,171.8c0,0 1.9,-2.1 5.2,-4.4c3.6,-2.5 5.6,-3.3 5.6,-3.3" id="ID0.16030752705410123_20_" fill="none" stroke="#8e5322" stroke-width="1.4" stroke-linecap="round" stroke-linejoin="round"/></g><g id="Layer_5_21_"><path d="M232.67228,155.9c2.8,1.3 3.4,6.3 1.1,10.9c-2.3,4.7 -6.5,7.4 -9.4,5.9c-2.8,-1.3 -3.4,-6.3 -1.1,-10.9c2.3,-4.6 6.5,-7.3 9.4,-5.9z" id="ID0.40023312577977777_20_" fill="#ffffff" stroke="#8e5322" stroke-width="1.4" stroke-linecap="round" stroke-linejoin="round"/><path d="M223.77228,165.3c0.2,-1 1,-1.7 2,-1.7c1.1,0.1 1.7,1.1 1.5,2.1c-0.2,1.2 -1.1,1.9 -2,1.7c-1.1,-0.1 -1.7,-1.1 -1.5,-2.1" id="ID0.43813491938635707_20_" fill="#414142" stroke="none" stroke-width="1" stroke-linecap="butt" stroke-linejoin="miter"/></g><g id="Layer_7_21_"><path d="M256.97228,156.6c3.4,1.7 4.4,6.8 2.1,11.4c-2.2,4.7 -6.9,7.1 -10.3,5.4c-3.4,-1.7 -4.4,-6.8 -2.1,-11.4c2.3,-4.6 6.9,-7 10.3,-5.4z" id="ID0.4253597157076001_20_" fill="#ffffff" stroke="#8e5322" stroke-width="1.4" stroke-linecap="round" stroke-linejoin="round"/><path d="M247.47228,165.9c-0.1,-1.1 0.5,-2 1.5,-2.1c0.9,-0.1 1.8,0.7 1.9,1.7c0.1,1.1 -0.5,2 -1.5,2.1c-0.9,0.1 -1.8,-0.7 -1.9,-1.7" id="ID0.814307457767427_20_" fill="#414142" stroke="none" stroke-width="1" stroke-linecap="butt" stroke-linejoin="miter"/></g><path d="M241.57228,173.4c0.3,1.4 -2.9,4.4 -4.9,4.5c-1.8,0.1 -3.8,-3 -3.9,-3.8c0,-1.9 2.5,-0.9 4.2,-0.9c1.5,0 4.3,-1.2 4.6,0.2z" id="ID0.5240494590252638_20_" fill="#5f4b43" stroke="#8e5322" stroke-width="1.4" stroke-linecap="round" stroke-linejoin="round"/><path d="M247.87228,187.4c0,0 -2.2,2.6 -7.7,2.2" id="ID0.046259244438260794_20_" fill="#ffffff" stroke="#8e5322" stroke-width="1.4" stroke-linecap="round" stroke-linejoin="round"/></g></g></g></svg>