<svg version="1.1" xmlns="http://www.w3.org/2000/svg" xmlns:xlink="http://www.w3.org/1999/xlink" width="89.00427" height="95.7" viewBox="0,0,89.00427,95.7"><g transform="translate(-204.04636,-136.9)"><g data-paper-data="{&quot;isPaintingLayer&quot;:true}" fill="none" fill-rule="nonzero" stroke="none" stroke-width="none" stroke-linecap="none" stroke-linejoin="none" stroke-miterlimit="10" stroke-dasharray="" stroke-dashoffset="0" font-family="none" font-weight="none" font-size="none" text-anchor="none" style="mix-blend-mode: normal"><g data-paper-data="{&quot;index&quot;:null}" id="Layer_3_14_"><path d="M272.54636,211c2.4,-0.8 5.1,-2.1 7.2,-4.8c4.7,-5.9 5.1,-14.3 9.3,-12.8c4.2,1.5 6.2,14.9 -5.3,20.9c-4,2.1 -7.8,2.7 -10.9,3.1c-0.8,0.1 -7.9,0.5 -10.7,-2.6c-2.9,-3.1 -1.4,-4.2 -0.6,-4.9c0.7,-0.6 7.7,2.4 11,1.1z" id="ID0.8535828334279358_13_" fill="#faa51f" stroke="none" stroke-width="1" stroke-linecap="butt" stroke-linejoin="miter"/><path d="M288.84636,193.3c2.1,0.4 4,5 3.6,8.7c-0.5,3.7 -2.1,6.2 -3.1,7.7c-1.4,1.3 0.2,-3.1 -2.2,-4.6c-2.4,-1.5 -6.4,-0.2 -6.4,-0.2c0,0 2.5,-4.8 3.8,-7.5c1.1,-2.5 2.1,-4.3 4.3,-4.1z" id="ID0.914295740891248_13_" fill="#ffffff" stroke="none" stroke-width="1" stroke-linecap="butt" stroke-linejoin="miter"/><path d="M272.54636,211c2.4,-0.8 5.1,-2.1 7.2,-4.8c4.7,-5.9 5.1,-14.3 9.3,-12.8c4.2,1.5 6.2,14.9 -5.3,20.9c-4,2.1 -7.8,2.7 -10.9,3.1c-0.8,0.1 -7.9,0.5 -10.7,-2.6c-2.9,-3.1 -1.4,-4.2 -0.6,-4.9c0.7,-0.6 7.7,2.4 11,1.1z" id="ID0.40227043256163597_13_" fill="none" stroke="#8e5322" stroke-width="1.4" stroke-linecap="round" stroke-linejoin="round"/></g><g data-paper-data="{&quot;index&quot;:null}" stroke-width="1.4" stroke-linecap="round" stroke-linejoin="round"><path d="M273.84636,186.2c0,0 6.6,14.8 5.4,18.2c-1.9,4.9 -15.7,9.3 -18.5,7.5c-4.8,-3.1 -3.2,-2.3 -3.2,-2.3l-5.1,-13.7z" id="ID0.26344340899959207_13_" fill="#518943" stroke="#426c36"/><path d="M271.64636,176.6c1.2,1 2.3,2.6 2.9,4.6c0.6,1.9 0.5,3.9 0,5.4c-0.5,1.5 -1.5,2.7 -2.9,3.1c-1.3,0.5 -2.8,0 -4.1,-1c-1.2,-1 -2.3,-2.6 -2.9,-4.6c-0.6,-2 -0.5,-3.9 0,-5.5c0.5,-1.5 1.5,-2.7 2.9,-3.1c1.3,-0.4 2.8,0.1 4.1,1.1z" id="ID0.2414738917723298_13_" fill="#fefbdf" stroke="#70715e"/><path d="M270.64636,179.3c0.7,0.5 1.3,1.4 1.6,2.5c0.3,1.1 0.3,2.2 0,3c-0.3,0.8 -0.9,1.5 -1.6,1.7c-0.7,0.2 -1.5,0 -2.2,-0.6c-0.7,-0.5 -1.3,-1.4 -1.6,-2.5c-0.3,-1.1 -0.3,-2.1 0,-3c0.3,-0.8 0.9,-1.5 1.6,-1.7c0.7,-0.2 1.5,0 2.2,0.6z" id="ID0.6192030962556601_13_" fill="#fefbdf" stroke="#70715e"/><path d="M271.74636,207.3l-2.6,-7.2l5.8,-3.1c0,0 2.3,5.5 1.6,6.6c-0.6,1 -4.8,3.7 -4.8,3.7z" id="ID0.15330331353470683_13_" fill="#518943" stroke="#426c36"/></g><g data-paper-data="{&quot;index&quot;:null}" id="ID0.16171270422637463_13_" fill="#faa51f" stroke="#8e5322" stroke-width="1.4" stroke-linecap="round" stroke-linejoin="round"><path d="M263.04636,208.9c0,0 -4.8,12.2 -3,19.4c0.5,2 0,2.7 -1.8,3.6c-2.1,0.9 -11.2,1 -11.6,-1.1c-1.1,-7.3 6.3,-2.7 6.3,-6.5c0,-8.9 -2.4,-13.4 -2.4,-13.4" id="ID0.007584026083350182_13_"/><path d="M251.44636,225.9c0,0 1,-0.3 2.6,-0.5" id="ID0.31672530295327306_13_"/></g><path d="M258.44636,207.5" data-paper-data="{&quot;index&quot;:null}" id="ID0.39854341372847557_13_" fill="#faa51f" stroke="#8e5322" stroke-width="1.4" stroke-linecap="round" stroke-linejoin="round"/><path d="M253.84636,191.6c6.5,-1.9 10.9,-1.3 12.8,5.1c1.9,6.4 5.5,14.8 -5.9,18.1c-11.4,3.3 -12.5,-6.6 -14.4,-13c-1.9,-6.4 1.2,-8.3 7.5,-10.2z" data-paper-data="{&quot;index&quot;:null}" id="ID0.46792364912107587_13_" fill="#faa51f" stroke="#8e5322" stroke-width="1.4" stroke-linecap="round" stroke-linejoin="round"/><path d="M252.54636,197.7c3.6,-1.1 6,-0.5 7.2,3.5c1.2,4.1 3.2,9.4 -2.9,11.2c-6.1,1.8 -7,-4.5 -8.2,-8.5c-1.1,-4 0.4,-5.1 3.9,-6.2z" data-paper-data="{&quot;index&quot;:null}" id="ID0.38032895559445024_13_" fill="#ffffff" stroke="none" stroke-width="1" stroke-linecap="butt" stroke-linejoin="miter"/><g data-paper-data="{&quot;index&quot;:null}" id="ID0.15723733883351088_28_" fill="#faa51f" stroke="#8e5322" stroke-width="1.4" stroke-linecap="round" stroke-linejoin="round"><path d="M268.34636,208.7c0,0 -0.2,5.7 0.2,7c1.6,-2.6 2.1,-3.9 5,-1.5c1.7,1.4 5.3,4.5 4,6.6c-4.8,6.5 -3.7,-2.8 -12,3.2c-2.5,1.6 -7,1.9 -6.5,-9.2" id="ID0.527006761636585_28_"/><path d="M267.34636,223c0.8,-0.8 2.6,-1.6 3.8,-2.4" id="ID0.8937406223267317_40_"/><path d="M268.34636,214.2c-0.4,1.2 -0.8,3.6 -1.2,4" id="ID0.8937406223267317_39_"/></g><g data-paper-data="{&quot;index&quot;:null}" id="ID0.7407716196030378_12_" stroke="#8e5322" stroke-width="1.4" stroke-linecap="round" stroke-linejoin="round"><path d="M253.44636,192.7l7.2,-3.6c8,3.3 14.6,12.5 11.3,15.9" id="ID0.15909873321652412_11_" fill="#faa51f"/><path d="M264.34636,200.4" id="ID0.8024068027734756_12_" fill="#faa51f"/><path d="M260.84636,199.6" id="ID0.06734407460317016_12_" fill="none"/><path d="M264.34636,200.4l-3.7,-3.2" id="ID0.8143284288235009_11_" fill="#faa51f"/><path d="M264.34636,200.4l1.1,-0.6" id="ID0.6682511982508004_11_" fill="none"/></g><g data-paper-data="{&quot;index&quot;:null}" id="ID0.32291418174281716_11_" stroke="#8e5322" stroke-width="1.4" stroke-linecap="round" stroke-linejoin="round"><path d="M242.94636,212.4c-6.1,-2.3 -3.5,-12.2 0.9,-16.4l4.2,-0.5" id="ID0.30105241015553474_11_" fill="#faa51f"/><path d="M246.34636,205.7" id="ID0.3822403196245432_11_" fill="#faa51f"/><path d="M248.44636,203.5" id="ID0.5879319808445871_11_" fill="none"/><path d="M246.34636,205.7v-3.9" id="ID0.7841392233967781_11_" fill="#faa51f"/><path d="M246.34636,205.7h-1.1" id="ID0.4326359131373465_11_" fill="none"/></g><path d="M269.34636,210.2c-4.6,-0.4 -22.6,-11.3 -6.4,-21.4c0,0 -12.8,9.2 6.2,18.4" data-paper-data="{&quot;index&quot;:null}" id="ID0.48627097019925714_13_" fill="#518943" stroke="#426c36" stroke-width="1.4" stroke-linecap="round" stroke-linejoin="round"/><path d="M247.24636,208c-3.5,-4.5 -6.2,-10 4.1,-15.8c0,0 -9.1,6.7 -2.6,14" data-paper-data="{&quot;index&quot;:null}" id="ID0.07006075512617826_13_" fill="#518943" stroke="#426c36" stroke-width="1.4" stroke-linecap="round" stroke-linejoin="round"/><path d="M271.94636,205.1c-7.7,4.2 -12.6,3.8 -13.9,0c-0.6,-1.6 1.4,-5.5 7.3,-5.3" data-paper-data="{&quot;index&quot;:null}" id="ID0.1790580078959465_15_" fill="#faa51f" stroke="#8e5322" stroke-width="1.4" stroke-linecap="round" stroke-linejoin="round"/><path d="M243.44636,206.5c2.7,-2.2 4.8,-0.5 6.2,1.4c2.1,2.6 -0.6,7.2 -6.8,4.5" data-paper-data="{&quot;index&quot;:null}" id="ID0.7947451807558537_11_" fill="#faa51f" stroke="#8e5322" stroke-width="1.4" stroke-linecap="round" stroke-linejoin="round"/><g data-paper-data="{&quot;index&quot;:null}"><g id="Layer_2_27_"><path d="M240.54636,147.5c1.5,-0.3 4.5,-0.9 6.2,-1c4.6,-0.4 9.1,0.8 9.1,0.8l11.5,-9.7l0.1,18.4c-0.7,-0.7 11.6,11.1 6.2,22.8c-5.5,11.9 -19.4,18.6 -37.9,17.2c-18.5,-1.4 -24.1,-11.2 -23.5,-16.8c0.6,-5.6 7.1,-8.5 7.1,-8.5c0,0 -0.4,-4.3 2,-9.9c1.5,-3.4 7.1,-8.7 7.1,-8.7l1.4,-11.5l8,6.1z" id="ID0.2591130444779992_13_" fill="#faa51f" stroke="none" stroke-width="1" stroke-linecap="butt" stroke-linejoin="miter"/><path d="M220.24636,170.4l2.1,-2.3l9.1,1.5c0,0 0.4,3.3 4.7,3.7c4.2,0.4 11.1,-2.1 11.1,-2.1l7.3,0.9c0,0 8,-1.5 9.2,4.8c2,10.9 -6.5,17.3 -15,18.3c-5.5,0.7 -9,0.4 -13,0.2c-17.4,-1 -23.6,-10.7 -22.8,-16.3c0.5,-5.6 6.9,-8 6.9,-8z" id="ID0.3588979784399271_13_" fill="#ffffff" stroke="none" stroke-width="1" stroke-linecap="butt" stroke-linejoin="miter"/><path d="M215.94636,176.4c0,0 -4.4,-0.5 -6.7,-1.1c-2.6,-0.8 -4.5,-2.3 -4.5,-2.3" id="ID0.2727069961838424_13_" fill="none" stroke="#8e5322" stroke-width="1.4" stroke-linecap="round" stroke-linejoin="round"/><path d="M216.14636,182.2c0,0 -2.6,1.2 -5.4,1.4c-2.7,0.4 -4.5,0.2 -4.5,0.2" id="ID0.5861211125738919_13_" fill="none" stroke="#8e5322" stroke-width="1.4" stroke-linecap="round" stroke-linejoin="round"/><path d="M257.94636,145.5l-4.7,4.2" id="ID0.4793355236761272_13_" fill="none" stroke="#8e5322" stroke-width="1.4" stroke-linecap="round" stroke-linejoin="round"/><path d="M240.54636,147.5c1.5,-0.3 4.5,-0.9 6.2,-1c4.6,-0.4 9.1,0.8 9.1,0.8l11.5,-9.7l0.1,18.4c-0.7,-0.7 11.6,11.1 6.2,22.8c-5.5,11.9 -19.4,18.6 -37.9,17.2c-18.5,-1.4 -24.1,-11.2 -23.5,-16.8c0.6,-5.6 7.1,-8.5 7.1,-8.5c0,0 -0.4,-4.3 2,-9.9c1.5,-3.4 7.1,-8.7 7.1,-8.7l1.4,-11.5l8,6.1z" id="ID0.48413723474368453_13_" fill="none" stroke="#8e5322" stroke-width="1.4" stroke-linecap="round" stroke-linejoin="round"/><path d="M284.74636,172.7c0,0 -3.9,1.1 -5.6,1.3c-1.8,0.2 -5.3,0.4 -5.3,0.4" id="ID0.9024141579866409_13_" fill="none" stroke="#8e5322" stroke-width="1.4" stroke-linecap="round" stroke-linejoin="round"/><path d="M273.04636,170.6c0,0 1.9,-2.2 5,-4.5c3.5,-2.6 5.6,-3.5 5.6,-3.5" id="ID0.16030752705410123_13_" fill="none" stroke="#8e5322" stroke-width="1.4" stroke-linecap="round" stroke-linejoin="round"/></g><g id="Layer_5_14_"><path d="M232.94636,154.7c2.8,1.3 3.4,6.3 1.1,10.9c-2.3,4.7 -6.5,7.4 -9.4,5.9c-2.8,-1.3 -3.4,-6.3 -1.1,-10.9c2.3,-4.7 6.5,-7.3 9.4,-5.9z" id="ID0.40023312577977777_13_" fill="#ffffff" stroke="#8e5322" stroke-width="1.4" stroke-linecap="round" stroke-linejoin="round"/><path d="M224.14636,164.1c0.1,-1 1,-1.7 2,-1.7c1.1,0.1 1.7,1.1 1.5,2.1c-0.2,1.2 -1.1,1.9 -2,1.7c-1.1,-0.1 -1.7,-1.1 -1.5,-2.1" id="ID0.43813491938635707_13_" fill="#414142" stroke="none" stroke-width="1" stroke-linecap="butt" stroke-linejoin="miter"/></g><g id="Layer_7_14_"><path d="M257.24636,155.4c3.4,1.7 4.4,6.8 2.1,11.4c-2.2,4.7 -6.9,7.1 -10.3,5.4c-3.4,-1.7 -4.4,-6.8 -2.1,-11.4c2.3,-4.6 6.9,-7 10.3,-5.4z" id="ID0.4253597157076001_13_" fill="#ffffff" stroke="#8e5322" stroke-width="1.4" stroke-linecap="round" stroke-linejoin="round"/><path d="M247.74636,164.6c-0.1,-1.1 0.6,-2 1.5,-2.1c0.9,-0.1 1.8,0.7 1.9,1.7c0.1,1.1 -0.5,2 -1.5,2.1c-0.9,0.1 -1.8,-0.7 -1.9,-1.7" id="ID0.814307457767427_13_" fill="#414142" stroke="none" stroke-width="1" stroke-linecap="butt" stroke-linejoin="miter"/></g><path d="M241.84636,172.2c0.3,1.4 -2.9,4.4 -4.9,4.5c-1.8,0.1 -3.8,-3 -3.9,-3.8c0,-1.9 2.5,-0.9 4.2,-0.9c1.5,0 4.3,-1.4 4.6,0.2z" id="ID0.5240494590252638_13_" fill="#5f4b43" stroke="#8e5322" stroke-width="1.4" stroke-linecap="round" stroke-linejoin="round"/><path d="M248.14636,186.1c0,0 -2.2,2.6 -7.7,2.2" id="ID0.046259244438260794_13_" fill="#ffffff" stroke="#8e5322" stroke-width="1.4" stroke-linecap="round" stroke-linejoin="round"/></g></g></g></svg>