<svg version="1.1" xmlns="http://www.w3.org/2000/svg" xmlns:xlink="http://www.w3.org/1999/xlink" width="81.9" height="96.26454" viewBox="0,0,81.9,96.26454"><g transform="translate(-206.05,-136.95)"><g data-paper-data="{&quot;isPaintingLayer&quot;:true}" fill="none" fill-rule="nonzero" stroke="none" stroke-width="none" stroke-linecap="none" stroke-linejoin="none" stroke-miterlimit="10" stroke-dasharray="" stroke-dashoffset="0" font-family="none" font-weight="none" font-size="none" text-anchor="none" style="mix-blend-mode: normal"><g data-paper-data="{&quot;index&quot;:null,&quot;origPos&quot;:null}" id="Layer_3_1_"><path d="M244.15,207.15c0.7,0.7 2.1,1.9 -1,4.8c-3.1,2.9 -10.1,2 -10.9,1.8c-3,-0.6 -6.8,-1.5 -10.6,-3.9c-11,-6.8 -8,-20 -3.7,-21.2c4.3,-1.2 4.1,7.3 8.3,13.5c1.9,2.8 4.5,4.3 6.8,5.3c3.2,1.5 10.4,-0.9 11.1,-0.3z" id="ID0.8535828334279358_1_" fill="#faa51f" stroke="none" stroke-width="1" stroke-linecap="butt" stroke-linejoin="miter"/><path d="M222.05,192.95c1.1,2.8 3.2,7.8 3.2,7.8c0,0 -3.9,-1.6 -6.4,-0.3c-2.5,1.3 -1.2,5.8 -2.5,4.4c-0.9,-1.6 -2.3,-4.2 -2.5,-7.9c-0.1,-3.7 2.2,-8.2 4.3,-8.4c2.2,0 3,1.8 3.9,4.4z" id="ID0.914295740891248_1_" fill="#ffffff" stroke="none" stroke-width="1" stroke-linecap="butt" stroke-linejoin="miter"/><path d="M244.15,207.15c0.7,0.7 2.1,1.9 -1,4.8c-3.1,2.9 -10.1,2 -10.9,1.8c-3,-0.6 -6.8,-1.5 -10.6,-3.9c-11,-6.8 -8,-20 -3.7,-21.2c4.3,-1.2 4.1,7.3 8.3,13.5c1.9,2.8 4.5,4.3 6.8,5.3c3.2,1.5 10.4,-0.9 11.1,-0.3z" id="ID0.40227043256163597_1_" fill="none" stroke="#8e5322" stroke-width="1.4" stroke-linecap="round" stroke-linejoin="round"/></g><path d="M250.75,197.85l-1,14.6c0,0 1.3,-1.2 -2.4,3.1c-2.2,2.5 -16.7,2.2 -19.9,-2c-2.2,-2.9 0,-19 0,-19z" data-paper-data="{&quot;index&quot;:null,&quot;origPos&quot;:null}" id="ID0.26344340899959207_1_" fill="#518943" stroke="#426c36" stroke-width="1.4" stroke-linecap="round" stroke-linejoin="round"/><path d="M230.55,182.55c1.4,0 2.7,0.8 3.7,2.2c0.9,1.3 1.5,3.2 1.5,5.2c0,2 -0.6,3.9 -1.5,5.2c-0.9,1.3 -2.2,2.2 -3.7,2.2c-1.5,0 -2.7,-0.8 -3.7,-2.2c-0.9,-1.3 -1.5,-3.2 -1.5,-5.2c0,-2 0.6,-3.9 1.5,-5.2c1,-1.4 2.3,-2.2 3.7,-2.2z" data-paper-data="{&quot;index&quot;:null,&quot;origPos&quot;:null}" id="ID0.2414738917723298_1_" fill="#fefbdf" stroke="#70715e" stroke-width="1.4" stroke-linecap="round" stroke-linejoin="round"/><path d="M230.55,185.85c0.8,0 1.5,0.5 2,1.2c0.5,0.7 0.8,1.8 0.8,2.9c0,1.1 -0.3,2.2 -0.8,2.9c-0.5,0.7 -1.2,1.2 -2,1.2c-0.8,0 -1.5,-0.5 -2,-1.2c-0.5,-0.7 -0.8,-1.8 -0.8,-2.9c0,-1.1 0.3,-2.2 0.8,-2.9c0.6,-0.8 1.3,-1.2 2,-1.2z" data-paper-data="{&quot;index&quot;:null,&quot;origPos&quot;:null}" id="ID0.6192030962556601_1_" fill="#fefbdf" stroke="#70715e" stroke-width="1.4" stroke-linecap="round" stroke-linejoin="round"/><path d="M229.75,212.05c-1,-0.9 -0.3,-6.8 -0.3,-6.8l6.5,1.3l-0.5,7.7c0,0 -4.8,-1.4 -5.7,-2.2z" data-paper-data="{&quot;index&quot;:null,&quot;origPos&quot;:null}" id="ID0.15330331353470683_1_" fill="#518943" stroke="#426c36" stroke-width="1.4" stroke-linecap="round" stroke-linejoin="round"/><g data-paper-data="{&quot;index&quot;:null,&quot;origPos&quot;:null}" id="ID0.2669722530990839"><g id="ID0.16171270422637463_1_" fill="#faa51f" stroke="#8e5322" stroke-width="1.4" stroke-linecap="round" stroke-linejoin="round"><path d="M257.45,209.65c0,0 -1.7,5.5 -0.9,14.3c0.3,3.8 7.4,-0.5 6.9,6.9c-0.2,2.1 -9.4,1.9 -11.5,1.1c-1.9,-0.7 -2.4,-1.4 -2.1,-3.4c1.1,-7.3 -2.6,-15.7 -2.6,-15.7" id="ID0.007584026083350182_1_"/><path d="M255.75,225.85c1.5,-0.3 2.8,-0.1 2.8,-0.1" id="ID0.31672530295327306_1_"/></g><g id="Layer_2_2_" fill="#faa51f" stroke="#8e5322" stroke-width="1.4" stroke-linecap="round" stroke-linejoin="round"><path d="M248.25,207.55" id="ID0.39854341372847557_1_"/></g><path d="M258.25,198.75c0,6.7 1.7,16.5 -10.2,16.5c-11.9,0 -10.8,-9 -10.8,-15.7c0,-6.7 4.1,-8.5 10.8,-8.5c6.7,0 10.2,1 10.2,7.7z" id="ID0.46792364912107587_1_" fill="#faa51f" stroke="#8e5322" stroke-width="1.4" stroke-linecap="round" stroke-linejoin="round"/><path d="M255.65,201.65c0,4.2 0.9,10.5 -5.5,10.5c-6.4,0 -5.9,-5.7 -5.9,-9.9c0,-4.2 2.2,-5.4 5.9,-5.4c3.7,0 5.5,0.6 5.5,4.8z" id="ID0.38032895559445024_1_" fill="#ffffff" stroke="none" stroke-width="1" stroke-linecap="butt" stroke-linejoin="miter"/><g id="ID0.15723733883351088_3_" fill="#faa51f" stroke="#8e5322" stroke-width="1.4" stroke-linecap="round" stroke-linejoin="round"><path d="M247.35,215.55c0,0 -1.5,9.1 -1.2,13.3c0.2,2.1 -0.6,3.2 -2.7,3.6c-2.2,0.4 -9.8,0.6 -9.9,-1.9c-0.4,-7.6 5.2,-2.9 5.8,-6.7c1.3,-8.7 -1.3,-14.2 -1.3,-14.2" id="ID0.527006761636585_3_"/><path d="M236.95,225.65c0,0 1.6,-0.2 3,0.2" id="ID0.8937406223267317_3_"/></g><g id="ID0.7407716196030378_1_" stroke="#8e5322" stroke-width="1.4" stroke-linecap="round" stroke-linejoin="round"><path d="M231.55,208.95c-4.1,-2.3 -0.4,-13 6.4,-18.4l7.9,1.4" id="ID0.15909873321652412_1_" fill="#faa51f"/><path d="M237.65,202.45" id="ID0.8024068027734756_1_" fill="#faa51f"/><path d="M240.75,200.65" id="ID0.06734407460317016_1_" fill="none"/><path d="M240.35,198.35l-2.7,4.1" id="ID0.8143284288235009_1_" fill="#faa51f"/><path d="M236.45,202.15l1.2,0.3" id="ID0.6682511982508004_1_" fill="none"/></g><g id="ID0.32291418174281716_1_" stroke="#8e5322" stroke-width="1.4" stroke-linecap="round" stroke-linejoin="round"><path d="M254.85,193.15l4.2,-0.7c5.4,2.8 10.7,11.6 5.5,15.5" id="ID0.30105241015553474_1_" fill="#faa51f"/><path d="M259.35,202.45" id="ID0.3822403196245432_1_" fill="#faa51f"/><path d="M256.75,200.95" id="ID0.5879319808445871_1_" fill="none"/><path d="M259.35,202.45l-1.1,-3.7" id="ID0.7841392233967781_1_" fill="#faa51f"/><path d="M260.45,202.15l-1.1,0.3" id="ID0.4326359131373465_1_" fill="none"/></g><path d="M237.45,212.25c15.7,-14.2 0.8,-19.4 0.8,-19.4c18.4,5.1 4.2,20.6 -0.1,22.3" id="ID0.48627097019925714_1_" fill="#518943" stroke="#426c36" stroke-width="1.4" stroke-linecap="round" stroke-linejoin="round"/><path d="M257.75,205.55c4.2,-8.8 -6.4,-12.7 -6.4,-12.7c11.5,2.7 10.5,8.7 8.4,14" id="ID0.07006075512617826_1_" fill="#518943" stroke="#426c36" stroke-width="1.4" stroke-linecap="round" stroke-linejoin="round"/><g id="Layer_2_1_"><path d="M250.85,144.65l7.2,-7l2.8,11.2c0,0 6.2,4.6 8.1,7.8c3.1,5.3 3.2,9.6 3.2,9.6c0,0 6.9,2.1 8.1,7.6c1.2,5.5 -3.1,16 -21.3,19.6c-18.2,3.6 -32.8,-1.3 -39.7,-12.4c-6.8,-11 4,-24.2 3.4,-23.4l-2.2,-18.3l12.6,8.2c0,0 4.3,-1.7 8.9,-1.9c1.7,-0.1 4.8,0.1 6.3,0.2z" id="ID0.2591130444779992_1_" fill="#faa51f" stroke="none" stroke-width="1" stroke-linecap="butt" stroke-linejoin="miter"/><path d="M271.75,166.75c0,0 6.6,1.6 7.8,7.1c1.5,5.5 -3.4,15.9 -20.6,19c-3.9,0.7 -7.4,1.4 -12.9,1.4c-8.5,0.1 -17.8,-5.2 -17.1,-16.3c0.4,-6.4 8.5,-5.9 8.5,-5.9l7.1,-1.8c0,0 7.1,1.6 11.3,0.7c4.2,-0.9 4.2,-4.2 4.2,-4.2l8.8,-2.6l2.4,2z" id="ID0.3588979784399271_1_" fill="#ffffff" stroke="none" stroke-width="1" stroke-linecap="butt" stroke-linejoin="miter"/><path d="M287.25,167.55c0,0 -1.8,1.6 -4.4,2.5c-2.2,0.8 -6.6,1.5 -6.6,1.5" id="ID0.2727069961838424_1_" fill="none" stroke="#8e5322" stroke-width="1.4" stroke-linecap="round" stroke-linejoin="round"/><path d="M286.65,178.75c0,0 -1.8,0.2 -4.5,-0.1c-2.8,-0.2 -5.4,-1.3 -5.4,-1.3" id="ID0.5861211125738919_1_" fill="none" stroke="#8e5322" stroke-width="1.4" stroke-linecap="round" stroke-linejoin="round"/><path d="M230.75,146.05l5.2,3.6" id="ID0.4793355236761272_1_" fill="none" stroke="#8e5322" stroke-width="1.4" stroke-linecap="round" stroke-linejoin="round"/><path d="M250.85,144.65l7.2,-7l2.8,11.2c0,0 6.2,4.6 8.1,7.8c3.1,5.3 3.2,9.6 3.2,9.6c0,0 6.9,2.1 8.1,7.6c1.2,5.5 -3.1,16 -21.3,19.6c-18.2,3.6 -32.8,-1.3 -39.7,-12.4c-6.8,-11 4,-24.2 3.4,-23.4l-2.2,-18.3l12.6,8.2c0,0 4.3,-1.7 8.9,-1.9c1.7,-0.1 4.8,0.1 6.3,0.2z" id="ID0.48413723474368453_1_" fill="none" stroke="#8e5322" stroke-width="1.4" stroke-linecap="round" stroke-linejoin="round"/><path d="M218.65,176.55c0,0 -3.5,0.5 -5.3,0.6c-1.8,0.1 -5.8,-0.3 -5.8,-0.3" id="ID0.9024141579866409_1_" fill="none" stroke="#8e5322" stroke-width="1.4" stroke-linecap="round" stroke-linejoin="round"/><path d="M206.75,167.25c0,0 2.2,0.4 6.2,2.2c3.6,1.6 5.9,3.3 5.9,3.3" id="ID0.16030752705410123_1_" fill="none" stroke="#8e5322" stroke-width="1.4" stroke-linecap="round" stroke-linejoin="round"/></g><g id="Layer_5_1_"><path d="M266.75,156.75c2.8,4.3 2.9,9.3 0.2,11c-2.7,1.8 -7.2,-0.3 -10,-4.7c-2.8,-4.3 -2.9,-9.3 -0.2,-11c2.7,-1.7 7.2,0.4 10,4.7z" id="ID0.40023312577977777_1_" fill="#ffffff" stroke="#8e5322" stroke-width="1.4" stroke-linecap="round" stroke-linejoin="round"/><path d="M266.65,160.35c0.3,1 -0.2,2 -1.2,2.3c-0.9,0.3 -1.9,-0.3 -2.2,-1.4c-0.3,-1 0.2,-2 1.2,-2.3c1,-0.2 1.9,0.4 2.2,1.4" id="ID0.43813491938635707_1_" fill="#414142" stroke="none" stroke-width="1" stroke-linecap="butt" stroke-linejoin="miter"/></g><g id="Layer_7_1_"><path d="M243.55,159.85c2.8,4.3 2.5,9.5 -0.7,11.6c-3.2,2.1 -8.1,0.3 -10.9,-4.1c-2.8,-4.3 -2.5,-9.5 0.7,-11.6c3.2,-2 8.1,-0.2 10.9,4.1z" id="ID0.4253597157076001_1_" fill="#ffffff" stroke="#8e5322" stroke-width="1.4" stroke-linecap="round" stroke-linejoin="round"/><path d="M243.25,163.75c0,1 -0.8,1.9 -1.7,1.9c-1,0 -1.7,-0.8 -1.7,-1.9c0,-1 0.8,-1.9 1.7,-1.9c0.9,0 1.7,0.8 1.7,1.9" id="ID0.814307457767427_1_" fill="#414142" stroke="none" stroke-width="1" stroke-linecap="butt" stroke-linejoin="miter"/></g><path d="M254.55,169.75c1.7,-0.2 4,-1.5 4.3,0.4c0,0.8 -1.6,4.1 -3.4,4.2c-2,0.1 -5.5,-2.4 -5.4,-3.9c0.1,-1.5 3,-0.5 4.5,-0.7z" id="ID0.5240494590252638_1_" fill="#5f4b43" stroke="#8e5322" stroke-width="1.4" stroke-linecap="round" stroke-linejoin="round"/><path d="M253.35,186.35c-5.4,1.1 -7.9,-1.2 -7.9,-1.2" id="ID0.046259244438260794_1_" fill="#ffffff" stroke="#8e5322" stroke-width="1.4" stroke-linecap="round" stroke-linejoin="round"/><path d="M236.45,202.15c5.6,-1.8 8.6,1.3 8.5,3c-0.2,4 -4.8,5.8 -13.3,3.9" id="ID0.1790580078959465_1_" fill="#faa51f" stroke="#8e5322" stroke-width="1.4" stroke-linecap="round" stroke-linejoin="round"/></g><path d="M266.50541,205.07512c-1.20968,6.63827 -6.51165,6.39518 -7.51316,3.18629c-0.72803,-2.26274 -1.06138,-4.98833 2.28842,-5.97772" data-paper-data="{&quot;index&quot;:null,&quot;origPos&quot;:null,&quot;origRot&quot;:0}" id="ID0.7947451807558537_1_" fill="#faa51f" stroke="#8e5322" stroke-width="1.4" stroke-linecap="round" stroke-linejoin="round"/></g></g></svg>