<svg version="1.1" xmlns="http://www.w3.org/2000/svg" xmlns:xlink="http://www.w3.org/1999/xlink" width="90.21522" height="91.6" viewBox="0,0,90.21522,91.6"><g transform="translate(-204.69929,-135.6)"><g data-paper-data="{&quot;isPaintingLayer&quot;:true}" fill="none" fill-rule="nonzero" stroke="none" stroke-width="none" stroke-linecap="none" stroke-linejoin="none" stroke-miterlimit="10" stroke-dasharray="" stroke-dashoffset="0" font-family="none" font-weight="none" font-size="none" text-anchor="none" style="mix-blend-mode: normal"><g data-paper-data="{&quot;index&quot;:null}" id="ID0.16171270422637463_24_" fill="#faa51f" stroke="#8e5322" stroke-width="1.4" stroke-linecap="round" stroke-linejoin="round"><path d="M259.09929,212.4c0,0 -12.6,1.9 -18.4,6.5c-1.6,1.3 -2.4,1.2 -4,-0.1c-1.7,-1.4 -6.5,-9.3 -4.8,-10.5c6.1,-4.2 6,4.1 9.4,2.5c8,-3.8 10.6,-5.7 10.6,-5.7" id="ID0.007584026083350182_24_"/><path d="M238.69929,210c0,0 0.8,1 1.3,2.5" id="ID0.31672530295327306_23_"/></g><g data-paper-data="{&quot;index&quot;:null}" stroke-width="1.4" stroke-linecap="round" stroke-linejoin="round"><path d="M275.89929,186.7c0,0 6.6,14.8 5.4,18.2c-1.9,4.9 -15.7,9.3 -18.5,7.5c-4.8,-3.1 -3.2,-2.3 -3.2,-2.3l-5.1,-13.7z" id="ID0.26344340899959207_24_" fill="#518943" stroke="#426c36"/><path d="M273.69929,177c1.2,1 2.3,2.6 2.9,4.6c0.6,1.9 0.5,3.9 0,5.4c-0.5,1.5 -1.6,2.7 -2.9,3.1c-1.3,0.4 -2.8,0 -4.1,-1c-1.2,-1 -2.3,-2.6 -2.9,-4.6c-0.6,-1.9 -0.5,-3.9 0,-5.4c0.5,-1.5 1.5,-2.7 2.9,-3.1c1.4,-0.4 2.8,0.1 4.1,1z" id="ID0.2414738917723298_24_" fill="#fefbdf" stroke="#70715e"/><path d="M272.69929,179.8c0.7,0.5 1.3,1.4 1.6,2.5c0.3,1.1 0.3,2.1 0,3c-0.3,0.8 -0.9,1.5 -1.6,1.7c-0.7,0.2 -1.5,0 -2.2,-0.6c-0.7,-0.5 -1.3,-1.4 -1.6,-2.5c-0.3,-1.1 -0.3,-2.1 0,-3c0.3,-0.8 0.9,-1.5 1.6,-1.7c0.8,-0.2 1.6,0 2.2,0.6z" id="ID0.6192030962556601_24_" fill="#fefbdf" stroke="#70715e"/><path d="M273.79929,207.8l-2.6,-7.2l5.9,-3.1c0,0 2.3,5.5 1.6,6.6c-0.7,1.1 -4.9,3.7 -4.9,3.7z" id="ID0.15330331353470683_24_" fill="#518943" stroke="#426c36"/></g><path d="M259.59929,204.6" data-paper-data="{&quot;index&quot;:null}" id="ID0.39854341372847557_24_" fill="#faa51f" stroke="#8e5322" stroke-width="1.4" stroke-linecap="round" stroke-linejoin="round"/><g data-paper-data="{&quot;index&quot;:null}" id="Layer_3_25_"><path d="M271.79929,209.4c2.5,-0.1 5.5,-0.6 8.2,-2.5c6.1,-4.3 9,-12.3 12.6,-9.6c3.6,2.7 1.7,16.1 -11,18.5c-4.4,0.9 -8.3,0.4 -11.3,-0.1c-0.8,-0.1 -7.7,-1.8 -9.5,-5.6c-1.9,-3.8 -0.1,-4.4 0.8,-4.8c0.8,-0.5 6.7,4.3 10.2,4.1z" id="ID0.8535828334279358_24_" fill="#faa51f" stroke="none" stroke-width="1" stroke-linecap="butt" stroke-linejoin="miter"/><path d="M292.49929,197.1c1.9,0.9 2.4,6 1,9.4c-1.5,3.4 -3.7,5.3 -5.2,6.5c-1.7,0.8 1.1,-2.9 -0.8,-5c-1.9,-2.1 -6.1,-2 -6.1,-2c0,0 3.7,-3.9 5.8,-6.1c1.8,-2.2 3.2,-3.6 5.3,-2.8z" id="ID0.914295740891248_24_" fill="#ffffff" stroke="none" stroke-width="1" stroke-linecap="butt" stroke-linejoin="miter"/><path d="M271.79929,209.4c2.5,-0.1 5.5,-0.6 8.2,-2.5c6.1,-4.3 9,-12.3 12.6,-9.6c3.6,2.7 1.7,16.1 -11,18.5c-4.4,0.9 -8.3,0.4 -11.3,-0.1c-0.8,-0.1 -7.7,-1.8 -9.5,-5.6c-1.9,-3.8 -0.1,-4.4 0.8,-4.8c0.8,-0.5 6.7,4.3 10.2,4.1z" id="ID0.40227043256163597_24_" fill="none" stroke="#8e5322" stroke-width="1.4" stroke-linecap="round" stroke-linejoin="round"/></g><path d="M255.09929,188.7c6.5,-1.9 10.9,-1.3 12.8,5.1c1.9,6.4 5.5,14.7 -5.9,18.1c-11.4,3.3 -12.5,-6.6 -14.4,-13c-1.9,-6.4 1.2,-8.3 7.5,-10.2z" data-paper-data="{&quot;index&quot;:null}" id="ID0.46792364912107587_24_" fill="#faa51f" stroke="#8e5322" stroke-width="1.4" stroke-linecap="round" stroke-linejoin="round"/><g data-paper-data="{&quot;index&quot;:null}" id="ID0.7407716196030378_23_" stroke="#8e5322" stroke-width="1.4" stroke-linecap="round" stroke-linejoin="round"><path d="M254.69929,189.7l7.2,-3.6c8,3.3 14.6,12.5 11.3,15.9" id="ID0.15909873321652412_22_" fill="#faa51f"/><path d="M265.49929,197.5" id="ID0.8024068027734756_23_" fill="#faa51f"/><path d="M261.99929,196.7" id="ID0.06734407460317016_23_" fill="none"/><path d="M265.49929,197.5l-3.7,-3.2" id="ID0.8143284288235009_22_" fill="#faa51f"/><path d="M265.49929,197.5l1.1,-0.6" id="ID0.6682511982508004_22_" fill="none"/></g><g data-paper-data="{&quot;index&quot;:null}" id="ID0.32291418174281716_22_" stroke="#8e5322" stroke-width="1.4" stroke-linecap="round" stroke-linejoin="round"><path d="M244.09929,209.5c-6.1,-2.3 -3.5,-12.2 0.9,-16.4l4.2,-0.5" id="ID0.30105241015553474_22_" fill="#faa51f"/><path d="M247.59929,202.8" id="ID0.3822403196245432_22_" fill="#faa51f"/><path d="M249.59929,200.6" id="ID0.5879319808445871_22_" fill="none"/><path d="M247.59929,202.8v-3.9" id="ID0.7841392233967781_22_" fill="#faa51f"/><path d="M246.49929,202.8h1.1" id="ID0.4326359131373465_22_" fill="none"/></g><path d="M254.49929,194.9c3.6,-1.1 6,-0.6 7.2,3.5c1.2,4.1 3.2,9.4 -2.9,11.2c-6.1,1.8 -7,-4.5 -8.2,-8.5c-1.1,-4 0.4,-5.1 3.9,-6.2z" data-paper-data="{&quot;index&quot;:null}" id="ID0.38032895559445024_16_" fill="#ffffff" stroke="none" stroke-width="1" stroke-linecap="butt" stroke-linejoin="miter"/><path d="M270.49929,207.3c-4.6,-0.4 -22.6,-11.3 -6.4,-21.4c0,0 -12.8,9.2 6.2,18.4" data-paper-data="{&quot;index&quot;:null}" id="ID0.48627097019925714_24_" fill="#518943" stroke="#426c36" stroke-width="1.4" stroke-linecap="round" stroke-linejoin="round"/><g data-paper-data="{&quot;index&quot;:null}" id="ID0.16171270422637463_26_" fill="#faa51f" stroke="#8e5322" stroke-width="1.4" stroke-linecap="round" stroke-linejoin="round"><path d="M266.59929,202.9c0,0 10,9.1 17.1,11.1c1.9,0.5 1.9,0.5 2.2,3.3c0.1,6.1 0.7,9.2 -2.8,9.2c-5,-0.5 -3.1,-6.5 -6.4,-8.3c-7.7,-4.3 -15.9,-7 -15.9,-7" id="ID0.007584026083350182_26_"/><path d="M278.09929,219.8" id="ID0.31672530295327306_24_"/></g><path d="M248.39929,205.1c-3.5,-4.5 -6.2,-10 4.1,-15.8c0,0 -9.1,6.7 -2.6,14" data-paper-data="{&quot;index&quot;:null}" id="ID0.07006075512617826_24_" fill="#518943" stroke="#426c36" stroke-width="1.4" stroke-linecap="round" stroke-linejoin="round"/><path d="M273.19929,202.2c-7.7,4.2 -12.6,3.8 -13.9,0c-0.6,-1.6 1.4,-5.5 7.3,-5.3" data-paper-data="{&quot;index&quot;:null}" id="ID0.1790580078959465_26_" fill="#faa51f" stroke="#8e5322" stroke-width="1.4" stroke-linecap="round" stroke-linejoin="round"/><path d="M244.69929,203.6c2.7,-2.2 4.8,-0.5 6.2,1.4c2.1,2.6 -0.6,7.2 -6.8,4.5" data-paper-data="{&quot;index&quot;:null}" id="ID0.7947451807558537_22_" fill="#faa51f" stroke="#8e5322" stroke-width="1.4" stroke-linecap="round" stroke-linejoin="round"/><g data-paper-data="{&quot;index&quot;:null}"><g id="Layer_2_49_"><path d="M241.59929,146.2c1.5,-0.3 4.5,-0.9 6.2,-1c4.6,-0.4 9.1,0.8 9.1,0.8l11.5,-9.7l0.1,18.4c-0.7,-0.7 11.6,11.1 6.2,22.8c-5.5,11.9 -19.4,18.5 -37.9,17.2c-18.5,-1.3 -24.1,-11.2 -23.5,-16.8c0.6,-5.6 7.1,-8.5 7.1,-8.5c0,0 -0.4,-4.3 2,-9.9c1.5,-3.4 7.1,-8.7 7.1,-8.7l1.4,-11.5l8,6.1z" id="ID0.2591130444779992_24_" fill="#faa51f" stroke="none" stroke-width="1" stroke-linecap="butt" stroke-linejoin="miter"/><path d="M221.29929,169.1l2.1,-2.3l9.1,1.5c0,0 0.4,3.3 4.7,3.7c4.3,0.4 11.1,-2.1 11.1,-2.1l7.3,0.9c0,0 8,-1.5 9.2,4.8c2,11 -6.6,17.4 -15.1,18.3c-5.5,0.7 -9,0.4 -13,0.2c-17.4,-1 -23.6,-10.7 -22.8,-16.3c0.5,-5.6 6.9,-8 6.9,-8z" id="ID0.3588979784399271_24_" fill="#ffffff" stroke="none" stroke-width="1" stroke-linecap="butt" stroke-linejoin="miter"/><path d="M216.99929,175.1c0,0 -4.4,0.7 -6.7,0.6c-2.8,-0.1 -4.9,-1.1 -4.9,-1.1" id="ID0.2727069961838424_24_" fill="none" stroke="#8e5322" stroke-width="1.4" stroke-linecap="round" stroke-linejoin="round"/><path d="M217.19929,180.9c0,0 -2.2,1.8 -4.8,2.8c-2.5,1.1 -4.3,1.4 -4.3,1.4" id="ID0.5861211125738919_24_" fill="none" stroke="#8e5322" stroke-width="1.4" stroke-linecap="round" stroke-linejoin="round"/><path d="M258.99929,144.2l-4.7,4.2" id="ID0.4793355236761272_24_" fill="none" stroke="#8e5322" stroke-width="1.4" stroke-linecap="round" stroke-linejoin="round"/><path d="M241.59929,146.2c1.5,-0.3 4.5,-0.9 6.2,-1c4.6,-0.4 9.1,0.8 9.1,0.8l11.5,-9.7l0.1,18.4c-0.7,-0.7 11.6,11.1 6.2,22.8c-5.5,11.9 -19.4,18.5 -37.9,17.2c-18.5,-1.3 -24.1,-11.2 -23.5,-16.8c0.6,-5.6 7.1,-8.5 7.1,-8.5c0,0 -0.4,-4.3 2,-9.9c1.5,-3.4 7.1,-8.7 7.1,-8.7l1.4,-11.5l8,6.1z" id="ID0.48413723474368453_24_" fill="none" stroke="#8e5322" stroke-width="1.4" stroke-linecap="round" stroke-linejoin="round"/><path d="M285.79929,174.4c0,0 -4,0 -5.8,-0.3c-1.8,-0.3 -5.2,-1.1 -5.2,-1.1" id="ID0.9024141579866409_24_" fill="none" stroke="#8e5322" stroke-width="1.4" stroke-linecap="round" stroke-linejoin="round"/><path d="M274.09929,169.3c2.3,-1.5 2.3,-1.5 6.1,-2.9c4.1,-1.5 6.3,-1.8 6.3,-1.8" id="ID0.16030752705410123_24_" fill="none" stroke="#8e5322" stroke-width="1.4" stroke-linecap="round" stroke-linejoin="round"/></g><g id="Layer_5_25_"><path d="M233.99929,153.3c2.8,1.3 3.4,6.3 1.1,10.9c-2.3,4.7 -6.5,7.4 -9.4,5.9c-2.8,-1.3 -3.4,-6.3 -1.1,-10.9c2.3,-4.6 6.5,-7.2 9.4,-5.9z" id="ID0.40023312577977777_24_" fill="#ffffff" stroke="#8e5322" stroke-width="1.4" stroke-linecap="round" stroke-linejoin="round"/><path d="M225.09929,162.8c0.2,-1 1,-1.7 2,-1.7c1.1,0.1 1.7,1.1 1.5,2.1c-0.2,1.2 -1.1,1.9 -2,1.7c-1.1,-0.1 -1.7,-1.1 -1.5,-2.1" id="ID0.43813491938635707_24_" fill="#414142" stroke="none" stroke-width="1" stroke-linecap="butt" stroke-linejoin="miter"/></g><g id="Layer_7_25_"><path d="M258.29929,154.1c3.4,1.7 4.4,6.8 2.1,11.4c-2.2,4.7 -6.9,7.1 -10.3,5.4c-3.4,-1.7 -4.4,-6.8 -2.1,-11.4c2.3,-4.6 6.9,-7 10.3,-5.4z" id="ID0.4253597157076001_24_" fill="#ffffff" stroke="#8e5322" stroke-width="1.4" stroke-linecap="round" stroke-linejoin="round"/><path d="M248.79929,163.3c-0.2,-1.1 0.5,-2 1.5,-2.1c0.9,-0.1 1.8,0.7 1.9,1.7c0.1,1.1 -0.5,2 -1.5,2.1c-0.9,0.1 -1.8,-0.7 -1.9,-1.7" id="ID0.814307457767427_24_" fill="#414142" stroke="none" stroke-width="1" stroke-linecap="butt" stroke-linejoin="miter"/></g><path d="M242.89929,170.8c0.3,1.4 -2.9,4.4 -4.9,4.5c-1.8,0.1 -3.8,-3 -3.9,-3.8c0,-1.9 2.5,-0.9 4.2,-0.9c1.5,0.1 4.3,-1.2 4.6,0.2z" id="ID0.5240494590252638_24_" fill="#5f4b43" stroke="#8e5322" stroke-width="1.4" stroke-linecap="round" stroke-linejoin="round"/><path d="M249.19929,184.8c0,0 -2.2,2.6 -7.7,2.2" id="ID0.046259244438260794_24_" fill="#ffffff" stroke="#8e5322" stroke-width="1.4" stroke-linecap="round" stroke-linejoin="round"/></g></g></g></svg>