<svg version="1.1" xmlns="http://www.w3.org/2000/svg" xmlns:xlink="http://www.w3.org/1999/xlink" width="88.58024" height="96.4" viewBox="0,0,88.58024,96.4"><g transform="translate(-205.08731,-136.5)"><g data-paper-data="{&quot;isPaintingLayer&quot;:true}" fill="none" fill-rule="nonzero" stroke="none" stroke-width="none" stroke-linecap="none" stroke-linejoin="none" stroke-miterlimit="10" stroke-dasharray="" stroke-dashoffset="0" font-family="none" font-weight="none" font-size="none" text-anchor="none" style="mix-blend-mode: normal"><g data-paper-data="{&quot;index&quot;:null}" id="Layer_3_20_"><path d="M273.68731,210.6c2.3,-0.9 5,-2.4 6.9,-5.1c4.4,-6.1 4.4,-14.6 8.7,-13.3c4.3,1.3 6.9,14.6 -4.3,21.1c-3.9,2.3 -7.7,3.1 -10.7,3.6c-0.8,0.2 -7.8,0.9 -10.8,-2.1c-3,-3 -1.6,-4.1 -0.9,-4.8c0.7,-0.6 7.8,2 11.1,0.6z" id="ID0.8535828334279358_19_" fill="#faa51f" stroke="none" stroke-width="1" stroke-linecap="butt" stroke-linejoin="miter"/><path d="M289.08731,192.1c2.1,0.3 4.3,4.8 4.1,8.5c-0.3,3.7 -1.8,6.3 -2.7,7.8c-1.3,1.4 0.1,-3.1 -2.4,-4.5c-2.5,-1.4 -6.4,0.1 -6.4,0.1c0,0 2.2,-4.9 3.4,-7.7c0.9,-2.5 1.8,-4.3 4,-4.2z" id="ID0.914295740891248_19_" fill="#ffffff" stroke="none" stroke-width="1" stroke-linecap="butt" stroke-linejoin="miter"/><path d="M273.68731,210.6c2.3,-0.9 5,-2.4 6.9,-5.1c4.4,-6.1 4.4,-14.6 8.7,-13.3c4.3,1.3 6.9,14.6 -4.3,21.1c-3.9,2.3 -7.7,3.1 -10.7,3.6c-0.8,0.2 -7.8,0.9 -10.8,-2.1c-3,-3 -1.6,-4.1 -0.9,-4.8c0.7,-0.6 7.8,2 11.1,0.6z" id="ID0.40227043256163597_19_" fill="none" stroke="#8e5322" stroke-width="1.4" stroke-linecap="round" stroke-linejoin="round"/></g><g data-paper-data="{&quot;index&quot;:null}" stroke-width="1.4" stroke-linecap="round" stroke-linejoin="round"><path d="M274.98731,185.1c0,0 6.6,14.8 5.4,18.2c-1.9,4.9 -15.7,9.3 -18.5,7.5c-4.8,-3.1 -3.2,-2.3 -3.2,-2.3l-5.1,-13.7z" id="ID0.26344340899959207_19_" fill="#518943" stroke="#426c36"/><path d="M272.68731,175.6c1.2,1 2.3,2.6 2.9,4.6c0.6,1.9 0.5,3.9 0,5.4c-0.5,1.5 -1.5,2.7 -2.9,3.1c-1.3,0.5 -2.8,0 -4.1,-1c-1.2,-1 -2.3,-2.6 -2.9,-4.6c-0.6,-2 -0.5,-3.9 0,-5.5c0.5,-1.5 1.5,-2.7 2.9,-3.1c1.4,-0.4 2.9,0 4.1,1.1z" id="ID0.2414738917723298_19_" fill="#fefbdf" stroke="#70715e"/><path d="M271.68731,178.3c0.7,0.5 1.3,1.4 1.6,2.5c0.3,1.1 0.3,2.2 0,3c-0.3,0.8 -0.9,1.5 -1.6,1.7c-0.7,0.2 -1.5,0 -2.2,-0.6c-0.7,-0.5 -1.3,-1.4 -1.6,-2.5c-0.3,-1.1 -0.3,-2.1 0,-3c0.3,-0.8 0.9,-1.5 1.6,-1.7c0.8,-0.2 1.6,0 2.2,0.6z" id="ID0.6192030962556601_19_" fill="#fefbdf" stroke="#70715e"/><path d="M272.78731,206.3l-2.6,-7.2l5.9,-3.1c0,0 2.3,5.5 1.6,6.6c-0.7,1 -4.9,3.7 -4.9,3.7z" id="ID0.15330331353470683_19_" fill="#518943" stroke="#426c36"/></g><g data-paper-data="{&quot;index&quot;:null}" id="ID0.16171270422637463_20_" fill="#faa51f" stroke="#8e5322" stroke-width="1.4" stroke-linecap="round" stroke-linejoin="round"><path d="M264.18731,212.4c0,0 -8.7,9.8 -9.5,17.1c-0.2,2 -0.9,2.5 -2.9,2.7c-2.2,0.2 -11.2,-2 -10.8,-4.1c1.5,-7.3 7.2,-1.3 8.5,-4.9c3,-8.3 2.3,-13.4 2.3,-13.4" id="ID0.007584026083350182_20_"/><path d="M247.08731,224.4c0,0 1.3,0.1 2.7,0.8" id="ID0.31672530295327306_20_"/></g><path d="M259.68731,207.5" data-paper-data="{&quot;index&quot;:null}" id="ID0.39854341372847557_19_" fill="#faa51f" stroke="#8e5322" stroke-width="1.4" stroke-linecap="round" stroke-linejoin="round"/><path d="M255.08731,191.6c6.5,-1.9 10.9,-1.3 12.8,5.1c1.9,6.4 5.5,14.8 -5.9,18.1c-11.4,3.3 -12.5,-6.6 -14.4,-13c-1.9,-6.4 1.2,-8.3 7.5,-10.2z" data-paper-data="{&quot;index&quot;:null}" id="ID0.46792364912107587_19_" fill="#faa51f" stroke="#8e5322" stroke-width="1.4" stroke-linecap="round" stroke-linejoin="round"/><path d="M253.78731,197.7c3.6,-1.1 6,-0.5 7.2,3.5c1.2,4.1 3.2,9.4 -2.9,11.2c-6.1,1.8 -7,-4.5 -8.2,-8.5c-1.2,-4 0.4,-5.1 3.9,-6.2z" data-paper-data="{&quot;index&quot;:null}" id="ID0.38032895559445024_19_" fill="#ffffff" stroke="none" stroke-width="1" stroke-linecap="butt" stroke-linejoin="miter"/><g data-paper-data="{&quot;index&quot;:null}" id="ID0.15723733883351088_22_" fill="#faa51f" stroke="#8e5322" stroke-width="1.4" stroke-linecap="round" stroke-linejoin="round"><path d="M267.48731,208.6c0,0 3.9,4.3 5.1,4.9c6.8,-3.1 6.2,-4.3 9.2,-0.7c1.4,1.7 4.4,5.4 2.8,7.3c-5.9,5.6 -3.6,-5.8 -11.8,0.8c-2.2,0.9 -4.6,-4.7 -14.2,-5.8" id="ID0.527006761636585_22_"/><path d="M278.58731,217.3c-0.5,0.5 -2,1 -2.5,1.4" id="ID0.8937406223267317_30_"/></g><g data-paper-data="{&quot;index&quot;:null}" id="ID0.7407716196030378_19_" stroke="#8e5322" stroke-width="1.4" stroke-linecap="round" stroke-linejoin="round"><path d="M254.68731,192.7l7.2,-3.6c8,3.3 14.6,12.5 11.3,15.9" id="ID0.15909873321652412_19_" fill="#faa51f"/><path d="M265.48731,200.4" id="ID0.8024068027734756_19_" fill="#faa51f"/><path d="M261.98731,199.6" id="ID0.06734407460317016_19_" fill="none"/><path d="M261.78731,197.2l3.7,3.2" id="ID0.8143284288235009_19_" fill="#faa51f"/><path d="M265.48731,200.4l1.1,-0.6" id="ID0.6682511982508004_19_" fill="none"/></g><g data-paper-data="{&quot;index&quot;:null}" id="ID0.32291418174281716_19_" stroke="#8e5322" stroke-width="1.4" stroke-linecap="round" stroke-linejoin="round"><path d="M244.08731,212.4c-6.1,-2.2 -3.4,-12.2 0.9,-16.4l4.2,-0.5" id="ID0.30105241015553474_19_" fill="#faa51f"/><path d="M247.58731,205.7" id="ID0.3822403196245432_19_" fill="#faa51f"/><path d="M249.68731,203.5" id="ID0.5879319808445871_19_" fill="none"/><path d="M247.58731,201.8v3.9" id="ID0.7841392233967781_19_" fill="#faa51f"/><path d="M246.48731,205.7h1.1" id="ID0.4326359131373465_19_" fill="none"/></g><path d="M270.48731,210.2c-4.6,-0.4 -22.6,-11.3 -6.4,-21.4c0,0 -12.8,9.2 6.2,18.4" data-paper-data="{&quot;index&quot;:null}" id="ID0.48627097019925714_19_" fill="#518943" stroke="#426c36" stroke-width="1.4" stroke-linecap="round" stroke-linejoin="round"/><path d="M248.38731,208c-3.5,-4.5 -6.2,-10 4.1,-15.8c0,0 -9.1,6.7 -2.6,14" data-paper-data="{&quot;index&quot;:null}" id="ID0.07006075512617826_19_" fill="#518943" stroke="#426c36" stroke-width="1.4" stroke-linecap="round" stroke-linejoin="round"/><path d="M273.18731,205.1c-7.7,4.2 -12.6,3.8 -13.9,0c-0.6,-1.6 1.4,-5.5 7.3,-5.3" data-paper-data="{&quot;index&quot;:null}" id="ID0.1790580078959465_19_" fill="#faa51f" stroke="#8e5322" stroke-width="1.4" stroke-linecap="round" stroke-linejoin="round"/><path d="M244.68731,206.6c2.7,-2.2 4.8,-0.5 6.2,1.4c2.1,2.6 -0.6,7.2 -6.8,4.5" data-paper-data="{&quot;index&quot;:null}" id="ID0.7947451807558537_19_" fill="#faa51f" stroke="#8e5322" stroke-width="1.4" stroke-linecap="round" stroke-linejoin="round"/><g data-paper-data="{&quot;index&quot;:null}"><g id="Layer_2_39_"><path d="M241.68731,147.1c1.5,-0.3 4.5,-0.9 6.2,-1c4.6,-0.4 9.1,0.8 9.1,0.8l11.5,-9.7l0.1,18.4c-0.7,-0.7 11.6,11.1 6.2,22.8c-5.6,11.9 -19.4,18.6 -37.9,17.2c-18.5,-1.4 -24.1,-11.2 -23.5,-16.8c0.6,-5.6 7.1,-8.5 7.1,-8.5c0,0 -0.4,-4.3 2,-9.9c1.5,-3.4 7.1,-8.7 7.1,-8.7l1.4,-11.5l8,6.1z" id="ID0.2591130444779992_19_" fill="#faa51f" stroke="none" stroke-width="1" stroke-linecap="butt" stroke-linejoin="miter"/><path d="M221.28731,170l2.1,-2.3l9.1,1.5c0,0 0.4,3.3 4.7,3.7c4.3,0.4 11.1,-2.1 11.1,-2.1l7.3,0.9c0,0 8,-1.5 9.2,4.8c2,10.9 -6.5,17.3 -15,18.3c-5.5,0.7 -9,0.4 -13,0.2c-17.4,-1 -23.6,-10.7 -22.8,-16.3c0.5,-5.6 6.9,-8 6.9,-8z" id="ID0.3588979784399271_19_" fill="#ffffff" stroke="none" stroke-width="1" stroke-linecap="butt" stroke-linejoin="miter"/><path d="M216.98731,176c0,0 -4.4,-0.5 -6.7,-1.1c-2.6,-0.8 -4.5,-2.3 -4.5,-2.3" id="ID0.2727069961838424_19_" fill="none" stroke="#8e5322" stroke-width="1.4" stroke-linecap="round" stroke-linejoin="round"/><path d="M217.18731,181.8c0,0 -2.6,1.2 -5.4,1.4c-2.7,0.4 -4.5,0.2 -4.5,0.2" id="ID0.5861211125738919_19_" fill="none" stroke="#8e5322" stroke-width="1.4" stroke-linecap="round" stroke-linejoin="round"/><path d="M254.38731,149.3l4.7,-4.2" id="ID0.4793355236761272_19_" fill="none" stroke="#8e5322" stroke-width="1.4" stroke-linecap="round" stroke-linejoin="round"/><path d="M241.68731,147.1c1.5,-0.3 4.5,-0.9 6.2,-1c4.6,-0.4 9.1,0.8 9.1,0.8l11.5,-9.7l0.1,18.4c-0.7,-0.7 11.6,11.1 6.2,22.8c-5.6,11.9 -19.4,18.6 -37.9,17.2c-18.5,-1.4 -24.1,-11.2 -23.5,-16.8c0.6,-5.6 7.1,-8.5 7.1,-8.5c0,0 -0.4,-4.3 2,-9.9c1.5,-3.4 7.1,-8.7 7.1,-8.7l1.4,-11.5l8,6.1z" id="ID0.48413723474368453_19_" fill="none" stroke="#8e5322" stroke-width="1.4" stroke-linecap="round" stroke-linejoin="round"/><path d="M285.78731,172.3c0,0 -3.9,1.1 -5.6,1.3c-1.8,0.2 -5.3,0.4 -5.3,0.4" id="ID0.9024141579866409_19_" fill="none" stroke="#8e5322" stroke-width="1.4" stroke-linecap="round" stroke-linejoin="round"/><path d="M274.08731,170.2c0,0 1.9,-2.2 5,-4.5c3.5,-2.6 5.6,-3.5 5.6,-3.5" id="ID0.16030752705410123_19_" fill="none" stroke="#8e5322" stroke-width="1.4" stroke-linecap="round" stroke-linejoin="round"/></g><g id="Layer_5_20_"><path d="M233.98731,154.3c2.8,1.3 3.4,6.3 1.1,10.9c-2.3,4.7 -6.5,7.4 -9.4,5.9c-2.8,-1.3 -3.4,-6.3 -1.1,-10.9c2.3,-4.7 6.5,-7.3 9.4,-5.9z" id="ID0.40023312577977777_19_" fill="#ffffff" stroke="#8e5322" stroke-width="1.4" stroke-linecap="round" stroke-linejoin="round"/><path d="M225.18731,163.7c0.1,-1 1,-1.7 2,-1.7c1.1,0.1 1.7,1.1 1.5,2.1c-0.2,1.2 -1.1,1.9 -2,1.7c-1.1,-0.1 -1.7,-1.1 -1.5,-2.1" id="ID0.43813491938635707_19_" fill="#414142" stroke="none" stroke-width="1" stroke-linecap="butt" stroke-linejoin="miter"/></g><g id="Layer_7_20_"><path d="M258.28731,155c3.4,1.7 4.4,6.8 2.1,11.4c-2.2,4.7 -6.9,7.1 -10.3,5.4c-3.4,-1.7 -4.4,-6.8 -2.1,-11.4c2.3,-4.6 6.9,-7 10.3,-5.4z" id="ID0.4253597157076001_19_" fill="#ffffff" stroke="#8e5322" stroke-width="1.4" stroke-linecap="round" stroke-linejoin="round"/><path d="M248.78731,164.2c-0.1,-1.1 0.6,-2 1.5,-2.1c0.9,-0.1 1.8,0.7 1.9,1.7c0.1,1.1 -0.5,2 -1.5,2.1c-0.9,0.1 -1.8,-0.7 -1.9,-1.7" id="ID0.814307457767427_19_" fill="#414142" stroke="none" stroke-width="1" stroke-linecap="butt" stroke-linejoin="miter"/></g><path d="M242.88731,171.8c0.3,1.4 -2.9,4.4 -4.9,4.5c-1.8,0.1 -3.8,-3 -3.9,-3.8c0,-1.9 2.5,-0.9 4.2,-0.9c1.5,0 4.3,-1.4 4.6,0.2z" id="ID0.5240494590252638_19_" fill="#5f4b43" stroke="#8e5322" stroke-width="1.4" stroke-linecap="round" stroke-linejoin="round"/><path d="M249.18731,185.7c0,0 -2.2,2.6 -7.7,2.2" id="ID0.046259244438260794_19_" fill="#ffffff" stroke="#8e5322" stroke-width="1.4" stroke-linecap="round" stroke-linejoin="round"/></g></g></g></svg>