<svg version="1.1" xmlns="http://www.w3.org/2000/svg" xmlns:xlink="http://www.w3.org/1999/xlink" width="90.13846" height="92.67853" viewBox="0,0,90.13846,92.67853"><g transform="translate(-205.09766,-134.6)"><g data-paper-data="{&quot;isPaintingLayer&quot;:true}" fill="none" fill-rule="nonzero" stroke="none" stroke-width="none" stroke-linecap="none" stroke-linejoin="none" stroke-miterlimit="10" stroke-dasharray="" stroke-dashoffset="0" font-family="none" font-weight="none" font-size="none" text-anchor="none" style="mix-blend-mode: normal"><g data-paper-data="{&quot;index&quot;:null}" id="ID0.15723733883351088_6_" fill="#faa51f" stroke="#8e5322" stroke-width="1.4" stroke-linecap="round" stroke-linejoin="round"><path d="M268.49766,204.4c0,0 7,4.7 8.4,5.2c1.1,-1.8 2.4,-2.2 4.3,-1.3c2,1 8.3,5.3 6.9,7.4c-4.2,6.4 -7.1,-1.4 -9.9,1.3c-2,1.1 -10.2,-5.3 -18.8,-5.1" id="ID0.527006761636585_6_"/><path d="M280.09766,214.4c0,0 -0.6,1.5 -1.7,2.5" id="ID0.8937406223267317_10_"/></g><path d="M276.19766,186.2c0,0 6.6,14.8 5.4,18.2c-1.9,4.9 -15.7,9.3 -18.5,7.5c-4.8,-3.1 -3.2,-2.3 -3.2,-2.3l-5.2,-13.6z" data-paper-data="{&quot;index&quot;:null}" id="ID0.26344340899959207_4_" fill="#518943" stroke="#426c36" stroke-width="1.4" stroke-linecap="round" stroke-linejoin="round"/><path d="M273.89766,176.6c1.2,1 2.3,2.7 2.9,4.6c0.6,1.9 0.5,3.9 0,5.4c-0.5,1.5 -1.5,2.7 -2.9,3.1c-1.3,0.4 -2.8,0 -4.1,-1c-1.2,-1 -2.3,-2.6 -2.9,-4.6c-0.6,-1.9 -0.5,-3.9 0,-5.4c0.5,-1.5 1.5,-2.7 2.9,-3.1c1.4,-0.4 2.9,0 4.1,1z" data-paper-data="{&quot;index&quot;:null}" id="ID0.2414738917723298_4_" fill="#fefbdf" stroke="#70715e" stroke-width="1.4" stroke-linecap="round" stroke-linejoin="round"/><path d="M272.89766,179.4c0.7,0.5 1.3,1.4 1.6,2.5c0.3,1.1 0.3,2.1 0,3c-0.3,0.8 -0.9,1.5 -1.6,1.7c-0.7,0.2 -1.5,0 -2.2,-0.6c-0.7,-0.5 -1.3,-1.4 -1.6,-2.5c-0.3,-1.1 -0.3,-2.1 0,-3c0.3,-0.8 0.9,-1.5 1.6,-1.7c0.8,-0.3 1.6,0 2.2,0.6z" data-paper-data="{&quot;index&quot;:null}" id="ID0.6192030962556601_4_" fill="#fefbdf" stroke="#70715e" stroke-width="1.4" stroke-linecap="round" stroke-linejoin="round"/><path d="M273.99766,207.4l-2.6,-7.2l5.9,-3.1c0,0 2.3,5.5 1.6,6.6c-0.7,1 -4.9,3.7 -4.9,3.7z" data-paper-data="{&quot;index&quot;:null}" id="ID0.15330331353470683_4_" fill="#518943" stroke="#426c36" stroke-width="1.4" stroke-linecap="round" stroke-linejoin="round"/><g data-paper-data="{&quot;index&quot;:null}" id="Layer_3_5_"><path d="M271.79766,206.6c2.5,0 5.5,-0.3 8.3,-2.2c6.3,-4 9.5,-11.9 13,-9.1c3.5,2.8 1,16.1 -11.8,18c-4.4,0.7 -8.3,0 -11.3,-0.6c-0.8,-0.1 -7.6,-2.1 -9.3,-6c-1.7,-3.9 0.1,-4.4 1,-4.8c0.9,-0.2 6.5,4.8 10.1,4.7z" id="ID0.8535828334279358_4_" fill="#faa51f" stroke="none" stroke-width="1" stroke-linecap="butt" stroke-linejoin="miter"/><path d="M292.99766,195.2c1.8,1 2.2,6.1 0.6,9.4c-1.7,3.3 -4,5.1 -5.4,6.3c-1.8,0.8 1.2,-2.8 -0.5,-5c-1.8,-2.2 -6,-2.3 -6,-2.3c0,0 3.9,-3.7 6,-5.9c1.8,-2 3.3,-3.3 5.3,-2.5z" id="ID0.914295740891248_4_" fill="#ffffff" stroke="none" stroke-width="1" stroke-linecap="butt" stroke-linejoin="miter"/><path d="M271.79766,206.6c2.5,0 5.5,-0.3 8.3,-2.2c6.3,-4 9.5,-11.9 13,-9.1c3.5,2.8 1,16.1 -11.8,18c-4.4,0.7 -8.3,0 -11.3,-0.6c-0.8,-0.1 -7.6,-2.1 -9.3,-6c-1.7,-3.9 0.1,-4.4 1,-4.8c0.9,-0.2 6.5,4.8 10.1,4.7z" id="ID0.40227043256163597_4_" fill="none" stroke="#8e5322" stroke-width="1.4" stroke-linecap="round" stroke-linejoin="round"/></g><path d="M259.89766,204.6" data-paper-data="{&quot;index&quot;:null}" id="ID0.39854341372847557_4_" fill="#faa51f" stroke="#8e5322" stroke-width="1.4" stroke-linecap="round" stroke-linejoin="round"/><path d="M255.29766,188.7c6.5,-1.9 10.9,-1.3 12.8,5.1c1.9,6.4 5.5,14.8 -5.9,18.1c-11.4,3.3 -12.5,-6.6 -14.4,-13c-1.9,-6.4 1.2,-8.3 7.5,-10.2z" data-paper-data="{&quot;index&quot;:null}" id="ID0.46792364912107587_4_" fill="#faa51f" stroke="#8e5322" stroke-width="1.4" stroke-linecap="round" stroke-linejoin="round"/><path d="M249.69766,195.5c3.6,-1.1 6,-0.5 7.2,3.5c1.2,4.1 1.6,4.3 -4.5,6.1c-6.2,1.8 -5.4,0.6 -6.6,-3.4c-1.2,-4 0.4,-5.1 3.9,-6.2z" data-paper-data="{&quot;index&quot;:null}" id="ID0.38032895559445024_4_" fill="#ffffff" stroke="none" stroke-width="1" stroke-linecap="butt" stroke-linejoin="miter"/><g data-paper-data="{&quot;index&quot;:null}" id="ID0.7407716196030378_4_" stroke="#8e5322" stroke-width="1.4" stroke-linecap="round" stroke-linejoin="round"><path d="M254.89766,189.8l7.2,-3.6c8,3.3 14.6,12.5 11.3,15.9" id="ID0.15909873321652412_4_" fill="#faa51f"/><path d="M265.69766,197.5" id="ID0.8024068027734756_4_" fill="#faa51f"/><path d="M262.19766,196.7" id="ID0.06734407460317016_4_" fill="none"/><path d="M265.69766,197.5l-3.7,-3.2" id="ID0.8143284288235009_4_" fill="#faa51f"/><path d="M266.79766,196.9l-1.1,0.6" id="ID0.6682511982508004_4_" fill="none"/></g><g data-paper-data="{&quot;index&quot;:null}" id="ID0.32291418174281716_4_" stroke="#8e5322" stroke-width="1.4" stroke-linecap="round" stroke-linejoin="round"><path d="M244.29766,209.5c-6.1,-2.3 -3.5,-12.2 0.9,-16.4l4.2,-0.5" id="ID0.30105241015553474_4_" fill="#faa51f"/><path d="M247.79766,202.8" id="ID0.3822403196245432_4_" fill="#faa51f"/><path d="M249.79766,200.6" id="ID0.5879319808445871_4_" fill="none"/><path d="M247.79766,198.9v3.9" id="ID0.7841392233967781_4_" fill="#faa51f"/><path d="M246.69766,202.8h1.1" id="ID0.4326359131373465_4_" fill="none"/></g><path d="M270.69766,207.3c-4.6,-0.4 -22.6,-11.3 -6.3,-21.4c0,0 -12.8,9.2 6.2,18.4" data-paper-data="{&quot;index&quot;:null}" id="ID0.48627097019925714_4_" fill="#518943" stroke="#426c36" stroke-width="1.4" stroke-linecap="round" stroke-linejoin="round"/><path d="M248.59766,205.1c-3.5,-4.5 -6.2,-10 4.1,-15.8c0,0 -9.1,6.7 -2.6,14" data-paper-data="{&quot;index&quot;:null}" id="ID0.07006075512617826_4_" fill="#518943" stroke="#426c36" stroke-width="1.4" stroke-linecap="round" stroke-linejoin="round"/><g data-paper-data="{&quot;index&quot;:null}"><g id="Layer_2_13_"><path d="M241.89766,145.2c1.5,-0.3 4.5,-0.9 6.2,-1c4.6,-0.4 9.1,0.8 9.1,0.8l11.5,-9.7l0.1,18.4c-0.7,-0.7 11.6,11.1 6.2,22.8c-5.6,11.9 -19.4,18.6 -38,17.2c-18.5,-1.3 -24.1,-11.2 -23.5,-16.8c0.5,-5.6 7.1,-8.5 7.1,-8.5c0,0 -0.4,-4.3 2,-9.9c1.5,-3.4 7.1,-8.7 7.1,-8.7l1.4,-11.5l8,6.1z" id="ID0.2591130444779992_8_" fill="#faa51f" stroke="none" stroke-width="1" stroke-linecap="butt" stroke-linejoin="miter"/><path d="M221.49766,168.1l2.1,-2.3l9.1,1.5c0,0 0.4,3.3 4.7,3.7c4.3,0.4 11.1,-2.1 11.1,-2.1l7.3,0.9c0,0 8,-1.5 9.2,4.8c2,10.9 -6.5,17.3 -15,18.3c-5.5,0.7 -9,0.4 -13,0.2c-17.5,-1 -23.6,-10.7 -22.8,-16.3c0.5,-5.6 6.9,-8 6.9,-8z" id="ID0.3588979784399271_8_" fill="#ffffff" stroke="none" stroke-width="1" stroke-linecap="butt" stroke-linejoin="miter"/><path d="M217.19766,174.1c0,0 -4.5,-0.2 -6.7,-0.7c-2.7,-0.6 -4.7,-1.9 -4.7,-1.9" id="ID0.2727069961838424_8_" fill="none" stroke="#8e5322" stroke-width="1.4" stroke-linecap="round" stroke-linejoin="round"/><path d="M217.39766,179.9c0,0 -2.4,1.4 -5.2,2c-2.6,0.6 -4.5,0.6 -4.5,0.6" id="ID0.5861211125738919_8_" fill="none" stroke="#8e5322" stroke-width="1.4" stroke-linecap="round" stroke-linejoin="round"/><path d="M259.19766,143.2l-4.7,4.2" id="ID0.4793355236761272_8_" fill="none" stroke="#8e5322" stroke-width="1.4" stroke-linecap="round" stroke-linejoin="round"/><path d="M241.89766,145.2c1.5,-0.3 4.5,-0.9 6.2,-1c4.6,-0.4 9.1,0.8 9.1,0.8l11.5,-9.7l0.1,18.4c-0.7,-0.7 11.6,11.1 6.2,22.8c-5.6,11.9 -19.4,18.6 -38,17.2c-18.5,-1.3 -24.1,-11.2 -23.5,-16.8c0.5,-5.6 7.1,-8.5 7.1,-8.5c0,0 -0.4,-4.3 2,-9.9c1.5,-3.4 7.1,-8.7 7.1,-8.7l1.4,-11.5l8,6.1z" id="ID0.48413723474368453_8_" fill="none" stroke="#8e5322" stroke-width="1.4" stroke-linecap="round" stroke-linejoin="round"/><path d="M285.99766,171c0,0 -3.9,0.9 -5.7,1c-1.8,0.1 -5.3,0.1 -5.3,0.1" id="ID0.9024141579866409_8_" fill="none" stroke="#8e5322" stroke-width="1.4" stroke-linecap="round" stroke-linejoin="round"/><path d="M274.29766,168.3c0,0 2.1,-2 5.5,-4c3.7,-2.3 5.9,-2.9 5.9,-2.9" id="ID0.16030752705410123_8_" fill="none" stroke="#8e5322" stroke-width="1.4" stroke-linecap="round" stroke-linejoin="round"/></g><g id="Layer_5_9_"><path d="M234.19766,152.3c2.8,1.3 3.4,6.3 1.1,10.9c-2.3,4.7 -6.5,7.4 -9.4,5.9c-2.8,-1.3 -3.4,-6.3 -1.1,-10.9c2.3,-4.6 6.5,-7.2 9.4,-5.9z" id="ID0.40023312577977777_8_" fill="#ffffff" stroke="#8e5322" stroke-width="1.4" stroke-linecap="round" stroke-linejoin="round"/><path d="M225.39766,161.8c0.1,-1 1,-1.7 2,-1.7c1.1,0.1 1.7,1.1 1.5,2.1c-0.2,1.2 -1.1,1.9 -2,1.7c-1.1,-0.1 -1.7,-1.1 -1.5,-2.1" id="ID0.43813491938635707_8_" fill="#414142" stroke="none" stroke-width="1" stroke-linecap="butt" stroke-linejoin="miter"/></g><g id="Layer_7_9_"><path d="M258.49766,153.1c3.4,1.7 4.4,6.8 2.1,11.4c-2.2,4.7 -6.9,7.1 -10.3,5.4c-3.4,-1.7 -4.4,-6.8 -2.1,-11.4c2.3,-4.6 6.9,-7 10.3,-5.4z" id="ID0.4253597157076001_8_" fill="#ffffff" stroke="#8e5322" stroke-width="1.4" stroke-linecap="round" stroke-linejoin="round"/><path d="M248.99766,162.3c-0.1,-1.1 0.6,-2 1.5,-2.1c0.9,-0.1 1.8,0.7 1.9,1.7c0.1,1.1 -0.5,2 -1.5,2.1c-0.9,0.1 -1.8,-0.7 -1.9,-1.7" id="ID0.814307457767427_8_" fill="#414142" stroke="none" stroke-width="1" stroke-linecap="butt" stroke-linejoin="miter"/></g><path d="M243.09766,169.9c0.3,1.4 -2.9,4.4 -4.9,4.5c-1.8,0.1 -3.8,-3 -3.9,-3.8c0,-1.9 2.5,-0.9 4.2,-0.9c1.5,0 4.3,-1.4 4.6,0.2z" id="ID0.5240494590252638_8_" fill="#5f4b43" stroke="#8e5322" stroke-width="1.4" stroke-linecap="round" stroke-linejoin="round"/><path d="M249.39766,183.8c0,0 -2.2,2.6 -7.7,2.2" id="ID0.046259244438260794_8_" fill="#ffffff" stroke="#8e5322" stroke-width="1.4" stroke-linecap="round" stroke-linejoin="round"/></g><path d="M273.39766,202.2c-7.7,4.2 -12.6,3.8 -13.9,0c-0.6,-1.6 1.4,-5.5 7.3,-5.3" data-paper-data="{&quot;index&quot;:null}" id="ID0.1790580078959465_4_" fill="#faa51f" stroke="#8e5322" stroke-width="1.4" stroke-linecap="round" stroke-linejoin="round"/><path d="M244.89766,203.6c2.3,-1.9 4.1,-0.9 5.5,0.6c0.2,0.3 -1,0.9 -0.8,1.2c-1.2,2 0.9,6.8 -5.3,4.1" data-paper-data="{&quot;index&quot;:null}" id="ID0.7947451807558537_4_" fill="#faa51f" stroke="#8e5322" stroke-width="1.4" stroke-linecap="round" stroke-linejoin="round"/><g data-paper-data="{&quot;index&quot;:null}" id="ID0.16171270422637463_4_" fill="#faa51f" stroke="#8e5322" stroke-width="1.4" stroke-linecap="round" stroke-linejoin="round"><path d="M257.79766,212.7c0,0 -11.3,6 -15.2,12.3c-1.1,1.7 -1.9,1.9 -3.8,1.2c-2.1,-0.8 -9.2,-6.6 -8,-8.3c4.4,-6 7,1.9 9.7,-0.8c6.3,-6.2 9.6,-12.5 9.6,-12.5" id="ID0.007584026083350182_4_"/><path d="M237.79766,217.1c0,0 1.1,0.7 2.1,1.9" id="ID0.31672530295327306_4_"/></g></g></g></svg>