<svg xmlns="http://www.w3.org/2000/svg" xmlns:xlink="http://www.w3.org/1999/xlink" version="1.1" id="Layer_1" x="0px" y="0px" width="89.793310546875" height="96.1461395263672" viewBox="29.00668411254883 19.19999771118164 89.793310546875 96.1461395263672" enable-background="new 0 0 128 128" xml:space="preserve">
  <g>
    <g id="ID0.15723733883351088_16_">
      <path id="ID0.527006761636585_16_" fill="#FAA51F" stroke="#8E5322" stroke-width="1.4" stroke-linecap="round" stroke-linejoin="round" d="&#13;&#10;&#9;&#9;M55.1,89.5c0,0-6.5,5.4-7.8,6.1c-1.2-1.7-2.6-2-4.4-0.9c-1.9,1.2-7.7,6.1-6.1,8c4.8,5.9,7-2.1,9.9,0.3c2.1,0.9,9.6-6.3,18.2-7"/>
      <path id="ID0.8937406223267317_21_" fill="#FAA51F" stroke="#8E5322" stroke-width="1.4" stroke-linecap="round" stroke-linejoin="round" d="&#13;&#10;&#9;&#9;M46.6,102.9c-1.2-0.9-1.9-2.3-1.9-2.3"/>
    </g>
    <g id="Layer_3_18_">
      <path id="ID0.8535828334279358_17_" fill="#FAA51F" d="M52,90.7c-2.5-0.2-5.5-0.7-8.2-2.7c-6.1-4.4-8.8-12.4-12.4-9.8&#13;&#10;&#9;&#9;c-3.6,2.6-1.9,16,10.7,18.7c4.4,1,8.3,0.5,11.3,0c0.8-0.1,7.7-1.6,9.6-5.4c1.9-3.8,0.2-4.4-0.7-4.9C61.5,86.3,55.5,91,52,90.7z" stroke-width="1"/>
      <path id="ID0.914295740891248_17_" fill="#FFFFFF" d="M31.6,78c-1.9,0.9-2.5,5.9-1.2,9.4c1.5,3.4,3.7,5.4,5.1,6.6&#13;&#10;&#9;&#9;c1.7,0.9-1.1-2.9,0.8-5c1.9-2.1,6.1-1.9,6.1-1.9s-3.7-4-5.7-6.2C35,78.7,33.6,77.2,31.6,78z" stroke-width="1"/>
      <path id="ID0.40227043256163597_17_" fill="none" stroke="#8E5322" stroke-width="1.4" stroke-linecap="round" stroke-linejoin="round" d="&#13;&#10;&#9;&#9;M52,90.7c-2.5-0.2-5.5-0.7-8.2-2.7c-6.1-4.4-8.8-12.4-12.4-9.8c-3.6,2.6-1.9,16,10.7,18.7c4.4,1,8.3,0.5,11.3,0&#13;&#10;&#9;&#9;c0.8-0.1,7.7-1.6,9.6-5.4c1.9-3.8,0.2-4.4-0.7-4.9C61.5,86.3,55.5,91,52,90.7z"/>
    </g>
    <g>
      <path id="ID0.26344340899959207_17_" fill="#518943" stroke="#426C36" stroke-width="1.4" stroke-linecap="round" stroke-linejoin="round" d="&#13;&#10;&#9;&#9;M47.7,68.8c0,0-6.6,14.8-5.4,18.2c1.9,4.9,15.7,9.3,18.5,7.5c4.8-3.1,3.2-2.3,3.2-2.3l5.1-13.7L47.7,68.8z"/>
      <path id="ID0.2414738917723298_17_" fill="#FEFBDF" stroke="#70715E" stroke-width="1.4" stroke-linecap="round" stroke-linejoin="round" d="&#13;&#10;&#9;&#9;M54.1,58.2c1.4,0.4,2.4,1.6,2.9,3.1c0.5,1.5,0.6,3.5,0,5.4c-0.6,2-1.7,3.6-2.9,4.6c-1.3,1-2.8,1.4-4.1,1c-1.4-0.4-2.4-1.6-2.9-3.1&#13;&#10;&#9;&#9;c-0.5-1.5-0.6-3.5,0-5.4s1.7-3.6,2.9-4.6C51.2,58.2,52.7,57.8,54.1,58.2z"/>
      <path id="ID0.6192030962556601_17_" fill="#FEFBDF" stroke="#70715E" stroke-width="1.4" stroke-linecap="round" stroke-linejoin="round" d="&#13;&#10;&#9;&#9;M53.2,61.4c0.7,0.2,1.3,0.9,1.6,1.7c0.3,0.9,0.3,1.9,0,3c-0.3,1.1-0.9,2-1.6,2.5c-0.7,0.6-1.5,0.8-2.2,0.6s-1.3-0.9-1.6-1.7&#13;&#10;&#9;&#9;c-0.3-0.9-0.3-1.9,0-3c0.3-1.1,0.9-2,1.6-2.5C51.6,61.4,52.4,61.2,53.2,61.4z"/>
      <path id="ID0.15330331353470683_17_" fill="#518943" stroke="#426C36" stroke-width="1.4" stroke-linecap="round" stroke-linejoin="round" d="&#13;&#10;&#9;&#9;M49.9,90l2.6-7.2l-5.9-3.1c0,0-2.3,5.5-1.6,6.6C45.7,87.3,49.9,90,49.9,90z"/>
    </g>
    <g id="Layer_2_36_">
      <path id="ID0.39854341372847557_17_" fill="#FAA51F" stroke="#8E5322" stroke-width="1.4" stroke-linecap="round" stroke-linejoin="round" d="&#13;&#10;&#9;&#9;M64,89.2"/>
    </g>
    <path id="ID0.46792364912107587_17_" fill="#FAA51F" stroke="#8E5322" stroke-width="1.4" stroke-linecap="round" stroke-linejoin="round" d="&#13;&#10;&#9;M76.1,83.6c-1.9,6.4-3,16.3-14.4,13s-7.8-11.7-5.9-18.1s6.3-7,12.8-5.1C74.9,75.2,78,77.1,76.1,83.6z"/>
    <g id="ID0.7407716196030378_16_">
      <path id="ID0.15909873321652412_15_" fill="#FAA51F" stroke="#8E5322" stroke-width="1.4" stroke-linecap="round" stroke-linejoin="round" d="&#13;&#10;&#9;&#9;M50.5,86.7c-3.3-3.4,3.3-12.6,11.3-15.9l7.2,3.6"/>
      <path id="ID0.8024068027734756_16_" fill="#FAA51F" stroke="#8E5322" stroke-width="1.4" stroke-linecap="round" stroke-linejoin="round" d="&#13;&#10;&#9;&#9;M58.2,82.1"/>
      <path id="ID0.06734407460317016_16_" fill="none" stroke="#8E5322" stroke-width="1.4" stroke-linecap="round" stroke-linejoin="round" d="&#13;&#10;&#9;&#9;M61.7,81.3"/>
      <path id="ID0.8143284288235009_15_" fill="#FAA51F" stroke="#8E5322" stroke-width="1.4" stroke-linecap="round" stroke-linejoin="round" d="&#13;&#10;&#9;&#9;M58.2,82.1l3.7-3.2"/>
      <path id="ID0.6682511982508004_15_" fill="none" stroke="#8E5322" stroke-width="1.4" stroke-linecap="round" stroke-linejoin="round" d="&#13;&#10;&#9;&#9;M58.2,82.1l-1.1-0.6"/>
    </g>
    <path id="ID0.38032895559445024_25_" fill="#FFFFFF" d="M77.8,86.8c-1.2,4,0.1,7-5.7,4.2c-5.4-2.5-6.6-2.8-5.5-6.9&#13;&#10;&#9;c1.2-4,3.6-4.6,7.2-3.5C77.4,81.7,78.9,82.8,77.8,86.8z" stroke-width="1"/>
    <g id="ID0.32291418174281716_15_">
      <path id="ID0.30105241015553474_15_" fill="#FAA51F" stroke="#8E5322" stroke-width="1.4" stroke-linecap="round" stroke-linejoin="round" d="&#13;&#10;&#9;&#9;M79.6,94.2c6.1-2.3,3.5-12.2-0.9-16.4l-4.2-0.5"/>
      <path id="ID0.3822403196245432_15_" fill="#FAA51F" stroke="#8E5322" stroke-width="1.4" stroke-linecap="round" stroke-linejoin="round" d="&#13;&#10;&#9;&#9;M76.1,87.4"/>
      <path id="ID0.5879319808445871_15_" fill="none" stroke="#8E5322" stroke-width="1.4" stroke-linecap="round" stroke-linejoin="round" d="&#13;&#10;&#9;&#9;M74.1,85.2"/>
      <path id="ID0.7841392233967781_15_" fill="#FAA51F" stroke="#8E5322" stroke-width="1.4" stroke-linecap="round" stroke-linejoin="round" d="&#13;&#10;&#9;&#9;M76.1,87.4l0-3.9"/>
      <path id="ID0.4326359131373465_15_" fill="none" stroke="#8E5322" stroke-width="1.4" stroke-linecap="round" stroke-linejoin="round" d="&#13;&#10;&#9;&#9;M76.1,87.4l1.1,0"/>
    </g>
    <path id="ID0.48627097019925714_17_" fill="#518943" stroke="#426C36" stroke-width="1.4" stroke-linecap="round" stroke-linejoin="round" d="&#13;&#10;&#9;M53.2,91.9c4.6-0.4,22.6-11.3,6.4-21.4c0,0,12.8,9.2-6.2,18.4"/>
    <path id="ID0.07006075512617826_17_" fill="#518943" stroke="#426C36" stroke-width="1.4" stroke-linecap="round" stroke-linejoin="round" d="&#13;&#10;&#9;M75.3,89.7c3.5-4.5,6.2-10-4.1-15.8c0,0,9.1,6.7,2.6,14"/>
    <g>
      <g id="Layer_2_35_">
        <path id="ID0.2591130444779992_17_" fill="#FAA51F" d="M82,29.8c-1.5-0.3-4.5-0.9-6.2-1c-4.6-0.4-9.1,0.8-9.1,0.8l-11.5-9.7&#13;&#10;&#9;&#9;&#9;l-0.1,18.4c0.7-0.7-11.6,11.1-6.2,22.8C54.5,73,68.3,79.7,86.8,78.3c18.5-1.3,24.1-11.2,23.5-16.8c-0.5-5.6-7.1-8.5-7.1-8.5&#13;&#10;&#9;&#9;&#9;s0.4-4.3-2-9.9c-1.5-3.4-7.1-8.7-7.1-8.7l-1.4-11.5l-8,6.1L82,29.8z" stroke-width="1"/>
        <path id="ID0.3588979784399271_17_" fill="#FFFFFF" d="M102.4,52.7l-2.1-2.3L91.2,52c0,0-0.4,3.3-4.7,3.7&#13;&#10;&#9;&#9;&#9;c-4.3,0.4-11.1-2.1-11.1-2.1l-7.3,0.9c0,0-8-1.5-9.2,4.8c-2,10.9,6.5,17.3,15,18.3c5.5,0.7,9,0.4,13,0.2&#13;&#10;&#9;&#9;&#9;c17.5-1,23.6-10.7,22.8-16.3c-0.5-5.6-6.9-8-6.9-8L102.4,52.7z" stroke-width="1"/>
        <path id="ID0.2727069961838424_17_" fill="none" stroke="#8E5322" stroke-width="1.4" stroke-linecap="round" stroke-linejoin="round" d="&#13;&#10;&#9;&#9;&#9;M106.7,58.7c0,0,4.5-0.2,6.7-0.7c2.7-0.6,4.7-1.9,4.7-1.9"/>
        <path id="ID0.5861211125738919_17_" fill="none" stroke="#8E5322" stroke-width="1.4" stroke-linecap="round" stroke-linejoin="round" d="&#13;&#10;&#9;&#9;&#9;M106.5,64.5c0,0,2.4,1.4,5.2,2c2.6,0.6,4.5,0.6,4.5,0.6"/>
        <path id="ID0.4793355236761272_17_" fill="none" stroke="#8E5322" stroke-width="1.4" stroke-linecap="round" stroke-linejoin="round" d="&#13;&#10;&#9;&#9;&#9;M64.7,27.8l4.7,4.2"/>
        <path id="ID0.48413723474368453_17_" fill="none" stroke="#8E5322" stroke-width="1.4" stroke-linecap="round" stroke-linejoin="round" d="&#13;&#10;&#9;&#9;&#9;M82,29.8c-1.5-0.3-4.5-0.9-6.2-1c-4.6-0.4-9.1,0.8-9.1,0.8l-11.5-9.7l-0.1,18.4c0.7-0.7-11.6,11.1-6.2,22.8&#13;&#10;&#9;&#9;&#9;C54.5,73,68.3,79.7,86.8,78.3c18.5-1.3,24.1-11.2,23.5-16.8c-0.5-5.6-7.1-8.5-7.1-8.5s0.4-4.3-2-9.9c-1.5-3.4-7.1-8.7-7.1-8.7&#13;&#10;&#9;&#9;&#9;l-1.4-11.5l-8,6.1L82,29.8z"/>
        <path id="ID0.9024141579866409_17_" fill="none" stroke="#8E5322" stroke-width="1.4" stroke-linecap="round" stroke-linejoin="round" d="&#13;&#10;&#9;&#9;&#9;M37.9,55.6c0,0,3.9,0.9,5.7,1c1.8,0.1,5.3,0.1,5.3,0.1"/>
        <path id="ID0.16030752705410123_17_" fill="none" stroke="#8E5322" stroke-width="1.4" stroke-linecap="round" stroke-linejoin="round" d="&#13;&#10;&#9;&#9;&#9;M49.6,52.9c0,0-2.1-2-5.5-4c-3.7-2.3-5.9-2.9-5.9-2.9"/>
      </g>
      <g id="Layer_5_18_">
        <path id="ID0.40023312577977777_17_" fill="#FFFFFF" stroke="#8E5322" stroke-width="1.4" stroke-linecap="round" stroke-linejoin="round" d="&#13;&#10;&#9;&#9;&#9;M99.1,42.9c2.3,4.6,1.7,9.6-1.1,10.9c-2.9,1.5-7.1-1.2-9.4-5.9c-2.3-4.6-1.7-9.6,1.1-10.9C92.6,35.6,96.8,38.2,99.1,42.9z"/>
        <path id="ID0.43813491938635707_17_" fill="#414142" d="M98.5,46.4c0.2,1-0.4,2-1.5,2.1c-0.9,0.2-1.8-0.5-2-1.7&#13;&#10;&#9;&#9;&#9;c-0.2-1,0.4-2,1.5-2.1C97.5,44.7,98.4,45.4,98.5,46.4" stroke-width="1"/>
      </g>
      <g id="Layer_7_18_">
        <path id="ID0.4253597157076001_17_" fill="#FFFFFF" stroke="#8E5322" stroke-width="1.4" stroke-linecap="round" stroke-linejoin="round" d="&#13;&#10;&#9;&#9;&#9;M75.7,43.1c2.3,4.6,1.3,9.7-2.1,11.4c-3.4,1.7-8.1-0.7-10.3-5.4c-2.3-4.6-1.3-9.7,2.1-11.4C68.8,36.1,73.4,38.5,75.7,43.1z"/>
        <path id="ID0.814307457767427_17_" fill="#414142" d="M74.9,46.9c-0.1,1-1,1.8-1.9,1.7c-1-0.1-1.6-1-1.5-2.1c0.1-1,1-1.8,1.9-1.7&#13;&#10;&#9;&#9;&#9;C74.3,44.9,75,45.8,74.9,46.9" stroke-width="1"/>
      </g>
      <path id="ID0.5240494590252638_17_" fill="#5F4B43" stroke="#8E5322" stroke-width="1.4" stroke-linecap="round" stroke-linejoin="round" d="&#13;&#10;&#9;&#9;M85.4,54.3c1.7,0,4.2-1,4.2,0.9c-0.1,0.8-2.1,3.9-3.9,3.8c-2-0.1-5.2-3.1-4.9-4.5C81.1,52.9,83.9,54.3,85.4,54.3z"/>
      <path id="ID0.046259244438260794_17_" fill="#FFFFFF" stroke="#8E5322" stroke-width="1.4" stroke-linecap="round" stroke-linejoin="round" d="&#13;&#10;&#9;&#9;M74.5,68.4c0,0,2.2,2.6,7.7,2.2"/>
    </g>
    <path id="ID0.1790580078959465_23_" fill="#FAA51F" stroke="#8E5322" stroke-width="1.4" stroke-linecap="round" stroke-linejoin="round" d="&#13;&#10;&#9;M57.1,81.5c5.9-0.2,7.9,3.7,7.3,5.3c-1.3,3.8-6.2,4.2-13.9,0"/>
    <path id="ID0.7947451807558537_15_" fill="#FAA51F" stroke="#8E5322" stroke-width="1.4" stroke-linecap="round" stroke-linejoin="round" d="&#13;&#10;&#9;M79,88.3c-2.7-2.2-4.8-0.5-6.2,1.4c-2.1,2.6,0.6,7.2,6.8,4.5"/>
    <g id="ID0.16171270422637463_17_">
      <path id="ID0.007584026083350182_17_" fill="#FAA51F" stroke="#8E5322" stroke-width="1.4" stroke-linecap="round" stroke-linejoin="round" d="&#13;&#10;&#9;&#9;M73.3,90.8c0,0,1.5,6.9,6,14.6c1.9,3.3,6.5-3.6,9.2,3.3c0.7,2-7.7,5.7-9.9,5.9c-2,0.2-2.8-0.2-3.3-2.2&#13;&#10;&#9;&#9;c-2.1-7.1-11.4-15.8-11.4-15.8"/>
      <path id="ID0.31672530295327306_15_" fill="#FAA51F" stroke="#8E5322" stroke-width="1.4" stroke-linecap="round" stroke-linejoin="round" d="&#13;&#10;&#9;&#9;M81.8,106.2c0,0-1.3,0.4-2.5,1.3"/>
    </g>
  </g>
</svg>