<svg xmlns="http://www.w3.org/2000/svg" xmlns:xlink="http://www.w3.org/1999/xlink" version="1.1" id="Layer_1" x="0px" y="0px" width="88.81268157958985" height="96.4126953125" viewBox="29.087315368652344 20.500000762939454 88.81268157958985 96.4126953125" enable-background="new 0 0 128 128" xml:space="preserve">
  <g>
    <g id="ID0.15723733883351088_9_">
      <path id="ID0.527006761636585_9_" fill="#FAA51F" stroke="#8E5322" stroke-width="1.4" stroke-linecap="round" stroke-linejoin="round" d="&#13;&#10;&#9;&#9;M55.5,92.6c0,0-3.9,4.3-5.1,4.9c-6.8-3.1-6.2-4.3-9.2-0.7c-1.4,1.7-4.4,5.4-2.8,7.3c5.9,5.6,3.6-5.8,11.8,0.8&#13;&#10;&#9;&#9;c2.2,0.9,4.6-4.7,14.2-5.8"/>
      <path id="ID0.8937406223267317_11_" fill="#FAA51F" stroke="#8E5322" stroke-width="1.4" stroke-linecap="round" stroke-linejoin="round" d="&#13;&#10;&#9;&#9;M46.9,102.7c-0.5-0.4-2-0.9-2.5-1.4"/>
    </g>
    <g id="Layer_3_7_">
      <path id="ID0.8535828334279358_6_" fill="#FAA51F" d="M49.3,94.6c-2.3-0.9-5-2.4-6.9-5.1C38,83.4,38,74.9,33.7,76.2&#13;&#10;&#9;&#9;c-4.3,1.3-6.9,14.6,4.3,21.1c3.9,2.3,7.7,3.1,10.7,3.6c0.8,0.2,7.8,0.9,10.8-2.1c3-3,1.6-4.1,0.9-4.8C59.7,93.4,52.6,96,49.3,94.6z&#13;&#10;&#9;&#9;" stroke-width="1"/>
      <path id="ID0.914295740891248_6_" fill="#FFFFFF" d="M33.9,76.1c-2.1,0.3-4.3,4.8-4.1,8.5c0.3,3.7,1.8,6.3,2.7,7.8&#13;&#10;&#9;&#9;c1.3,1.4-0.1-3.1,2.4-4.5c2.5-1.4,6.4,0.1,6.4,0.1s-2.2-4.9-3.4-7.7C37,77.8,36.1,76,33.9,76.1z" stroke-width="1"/>
      <path id="ID0.40227043256163597_6_" fill="none" stroke="#8E5322" stroke-width="1.4" stroke-linecap="round" stroke-linejoin="round" d="&#13;&#10;&#9;&#9;M49.3,94.6c-2.3-0.9-5-2.4-6.9-5.1C38,83.4,38,74.9,33.7,76.2c-4.3,1.3-6.9,14.6,4.3,21.1c3.9,2.3,7.7,3.1,10.7,3.6&#13;&#10;&#9;&#9;c0.8,0.2,7.8,0.9,10.8-2.1c3-3,1.6-4.1,0.9-4.8C59.7,93.4,52.6,96,49.3,94.6z"/>
    </g>
    <g>
      <path id="ID0.26344340899959207_6_" fill="#518943" stroke="#426C36" stroke-width="1.4" stroke-linecap="round" stroke-linejoin="round" d="&#13;&#10;&#9;&#9;M48,69.1c0,0-6.6,14.8-5.4,18.2c1.9,4.9,15.7,9.3,18.5,7.5c4.8-3.1,3.2-2.3,3.2-2.3l5.1-13.7L48,69.1z"/>
      <path id="ID0.2414738917723298_6_" fill="#FEFBDF" stroke="#70715E" stroke-width="1.4" stroke-linecap="round" stroke-linejoin="round" d="&#13;&#10;&#9;&#9;M54.4,58.5c1.4,0.4,2.4,1.6,2.9,3.1c0.5,1.6,0.6,3.5,0,5.5c-0.6,2-1.7,3.6-2.9,4.6c-1.3,1-2.8,1.5-4.1,1c-1.4-0.4-2.4-1.6-2.9-3.1&#13;&#10;&#9;&#9;c-0.5-1.5-0.6-3.5,0-5.4c0.6-2,1.7-3.6,2.9-4.6C51.5,58.5,53,58.1,54.4,58.5z"/>
      <path id="ID0.6192030962556601_6_" fill="#FEFBDF" stroke="#70715E" stroke-width="1.4" stroke-linecap="round" stroke-linejoin="round" d="&#13;&#10;&#9;&#9;M53.5,61.7c0.7,0.2,1.3,0.9,1.6,1.7c0.3,0.9,0.3,1.9,0,3c-0.3,1.1-0.9,2-1.6,2.5c-0.7,0.6-1.5,0.8-2.2,0.6&#13;&#10;&#9;&#9;c-0.7-0.2-1.3-0.9-1.6-1.7s-0.3-1.9,0-3c0.3-1.1,0.9-2,1.6-2.5C51.9,61.7,52.7,61.5,53.5,61.7z"/>
      <path id="ID0.15330331353470683_6_" fill="#518943" stroke="#426C36" stroke-width="1.4" stroke-linecap="round" stroke-linejoin="round" d="&#13;&#10;&#9;&#9;M50.2,90.3l2.6-7.2L46.9,80c0,0-2.3,5.5-1.6,6.6C46,87.6,50.2,90.3,50.2,90.3z"/>
    </g>
    <g id="Layer_2_17_">
      <path id="ID0.39854341372847557_6_" fill="#FAA51F" stroke="#8E5322" stroke-width="1.4" stroke-linecap="round" stroke-linejoin="round" d="&#13;&#10;&#9;&#9;M63.3,91.5"/>
    </g>
    <path id="ID0.46792364912107587_6_" fill="#FAA51F" stroke="#8E5322" stroke-width="1.4" stroke-linecap="round" stroke-linejoin="round" d="&#13;&#10;&#9;M75.4,85.8c-1.9,6.4-3,16.3-14.4,13c-11.4-3.3-7.8-11.7-5.9-18.1c1.9-6.4,6.3-7,12.8-5.1S77.3,79.4,75.4,85.8z"/>
    <g id="ID0.16171270422637463_5_">
      <path id="ID0.007584026083350182_5_" fill="#FAA51F" stroke="#8E5322" stroke-width="1.4" stroke-linecap="round" stroke-linejoin="round" d="&#13;&#10;&#9;&#9;M71.2,93.8c0,0-0.7,5.1,2.3,13.4c1.3,3.6,7-2.4,8.5,4.9c0.4,2.1-8.6,4.3-10.8,4.1c-2-0.2-2.7-0.7-2.9-2.7&#13;&#10;&#9;&#9;c-0.8-7.3-9.5-17.1-9.5-17.1"/>
      <path id="ID0.31672530295327306_5_" fill="#FAA51F" stroke="#8E5322" stroke-width="1.4" stroke-linecap="round" stroke-linejoin="round" d="&#13;&#10;&#9;&#9;M75.9,108.4c0,0-1.3,0.1-2.7,0.8"/>
    </g>
    <path id="ID0.38032895559445024_6_" fill="#FFFFFF" d="M76.2,88.4c-1.2,4-3.3,9.2-6.8,6.1c-3.9-3.5-4.1-4.8-2.9-8.9&#13;&#10;&#9;c1.2-4,3.6-4.6,7.2-3.5C77.2,83.2,77.4,84.4,76.2,88.4z" stroke-width="1"/>
    <g id="ID0.7407716196030378_6_">
      <path id="ID0.15909873321652412_6_" fill="#FAA51F" stroke="#8E5322" stroke-width="1.4" stroke-linecap="round" stroke-linejoin="round" d="&#13;&#10;&#9;&#9;M49.8,89c-3.3-3.4,3.3-12.6,11.3-15.9l7.2,3.6"/>
      <path id="ID0.8024068027734756_6_" fill="#FAA51F" stroke="#8E5322" stroke-width="1.4" stroke-linecap="round" stroke-linejoin="round" d="&#13;&#10;&#9;&#9;M57.5,84.4"/>
      <path id="ID0.06734407460317016_6_" fill="none" stroke="#8E5322" stroke-width="1.4" stroke-linecap="round" stroke-linejoin="round" d="&#13;&#10;&#9;&#9;M61,83.6"/>
      <path id="ID0.8143284288235009_6_" fill="#FAA51F" stroke="#8E5322" stroke-width="1.4" stroke-linecap="round" stroke-linejoin="round" d="&#13;&#10;&#9;&#9;M57.5,84.4l3.7-3.2"/>
      <path id="ID0.6682511982508004_6_" fill="none" stroke="#8E5322" stroke-width="1.4" stroke-linecap="round" stroke-linejoin="round" d="&#13;&#10;&#9;&#9;M57.5,84.4l-1.1-0.6"/>
    </g>
    <g id="ID0.32291418174281716_6_">
      <path id="ID0.30105241015553474_6_" fill="#FAA51F" stroke="#8E5322" stroke-width="1.4" stroke-linecap="round" stroke-linejoin="round" d="&#13;&#10;&#9;&#9;M78.9,96.4c6.1-2.3,3.5-12.2-0.9-16.4l-4.2-0.5"/>
      <path id="ID0.3822403196245432_6_" fill="#FAA51F" stroke="#8E5322" stroke-width="1.4" stroke-linecap="round" stroke-linejoin="round" d="&#13;&#10;&#9;&#9;M75.4,89.7"/>
      <path id="ID0.5879319808445871_6_" fill="none" stroke="#8E5322" stroke-width="1.4" stroke-linecap="round" stroke-linejoin="round" d="&#13;&#10;&#9;&#9;M73.3,87.5"/>
      <path id="ID0.7841392233967781_6_" fill="#FAA51F" stroke="#8E5322" stroke-width="1.4" stroke-linecap="round" stroke-linejoin="round" d="&#13;&#10;&#9;&#9;M75.4,89.7l0-3.9"/>
      <path id="ID0.4326359131373465_6_" fill="none" stroke="#8E5322" stroke-width="1.4" stroke-linecap="round" stroke-linejoin="round" d="&#13;&#10;&#9;&#9;M75.4,89.7l1.1,0"/>
    </g>
    <path id="ID0.48627097019925714_6_" fill="#518943" stroke="#426C36" stroke-width="1.4" stroke-linecap="round" stroke-linejoin="round" d="&#13;&#10;&#9;M52.5,94.2c4.6-0.4,22.6-11.3,6.4-21.4c0,0,12.8,9.2-6.2,18.4"/>
    <path id="ID0.07006075512617826_6_" fill="#518943" stroke="#426C36" stroke-width="1.4" stroke-linecap="round" stroke-linejoin="round" d="&#13;&#10;&#9;M74.6,92c3.5-4.5,6.2-10-4.1-15.8c0,0,9.1,6.7,2.6,14"/>
    <path id="ID0.1790580078959465_6_" fill="#FAA51F" stroke="#8E5322" stroke-width="1.4" stroke-linecap="round" stroke-linejoin="round" d="&#13;&#10;&#9;M56.4,83.8c5.9-0.2,7.9,3.7,7.3,5.3c-1.3,3.8-6.2,4.2-13.9,0"/>
    <path id="ID0.7947451807558537_6_" fill="#FAA51F" stroke="#8E5322" stroke-width="1.4" stroke-linecap="round" stroke-linejoin="round" d="&#13;&#10;&#9;M78.3,90.6c-2.7-2.2-4.8-0.5-6.2,1.4c-2.1,2.6,0.6,7.2,6.8,4.5"/>
    <g>
      <g id="Layer_2_9_">
        <path id="ID0.2591130444779992_6_" fill="#FAA51F" d="M81.3,31.1c-1.5-0.3-4.5-0.9-6.2-1c-4.6-0.4-9.1,0.8-9.1,0.8l-11.5-9.7&#13;&#10;&#9;&#9;&#9;l-0.1,18.4c0.7-0.7-11.6,11.1-6.2,22.8C53.8,74.3,67.6,81,86.1,79.6s24.1-11.2,23.5-16.8s-7.1-8.5-7.1-8.5s0.4-4.3-2-9.9&#13;&#10;&#9;&#9;&#9;c-1.5-3.4-7.1-8.7-7.1-8.7l-1.4-11.5l-8,6.1L81.3,31.1z" stroke-width="1"/>
        <path id="ID0.3588979784399271_6_" fill="#FFFFFF" d="M101.7,54l-2.1-2.3l-9.1,1.5c0,0-0.4,3.3-4.7,3.7&#13;&#10;&#9;&#9;&#9;c-4.3,0.4-11.1-2.1-11.1-2.1l-7.3,0.9c0,0-8-1.5-9.2,4.8c-2,10.9,6.5,17.3,15,18.3c5.5,0.7,9,0.4,13,0.2&#13;&#10;&#9;&#9;&#9;c17.4-1,23.6-10.7,22.8-16.3c-0.5-5.6-6.9-8-6.9-8L101.7,54z" stroke-width="1"/>
        <path id="ID0.2727069961838424_6_" fill="none" stroke="#8E5322" stroke-width="1.4" stroke-linecap="round" stroke-linejoin="round" d="&#13;&#10;&#9;&#9;&#9;M106,60c0,0,4.4-0.5,6.7-1.1c2.6-0.8,4.5-2.3,4.5-2.3"/>
        <path id="ID0.5861211125738919_6_" fill="none" stroke="#8E5322" stroke-width="1.4" stroke-linecap="round" stroke-linejoin="round" d="&#13;&#10;&#9;&#9;&#9;M105.8,65.8c0,0,2.6,1.2,5.4,1.4c2.7,0.4,4.5,0.2,4.5,0.2"/>
        <path id="ID0.4793355236761272_6_" fill="none" stroke="#8E5322" stroke-width="1.4" stroke-linecap="round" stroke-linejoin="round" d="&#13;&#10;&#9;&#9;&#9;M63.9,29.1l4.7,4.2"/>
        <path id="ID0.48413723474368453_6_" fill="none" stroke="#8E5322" stroke-width="1.4" stroke-linecap="round" stroke-linejoin="round" d="&#13;&#10;&#9;&#9;&#9;M81.3,31.1c-1.5-0.3-4.5-0.9-6.2-1c-4.6-0.4-9.1,0.8-9.1,0.8l-11.5-9.7l-0.1,18.4c0.7-0.7-11.6,11.1-6.2,22.8&#13;&#10;&#9;&#9;&#9;C53.8,74.3,67.6,81,86.1,79.6s24.1-11.2,23.5-16.8s-7.1-8.5-7.1-8.5s0.4-4.3-2-9.9c-1.5-3.4-7.1-8.7-7.1-8.7l-1.4-11.5l-8,6.1&#13;&#10;&#9;&#9;&#9;L81.3,31.1z"/>
        <path id="ID0.9024141579866409_6_" fill="none" stroke="#8E5322" stroke-width="1.4" stroke-linecap="round" stroke-linejoin="round" d="&#13;&#10;&#9;&#9;&#9;M37.2,56.3c0,0,3.9,1.1,5.6,1.3c1.8,0.2,5.3,0.4,5.3,0.4"/>
        <path id="ID0.16030752705410123_6_" fill="none" stroke="#8E5322" stroke-width="1.4" stroke-linecap="round" stroke-linejoin="round" d="&#13;&#10;&#9;&#9;&#9;M48.9,54.2c0,0-1.9-2.2-5-4.5c-3.5-2.6-5.6-3.5-5.6-3.5"/>
      </g>
      <g id="Layer_5_7_">
        <path id="ID0.40023312577977777_6_" fill="#FFFFFF" stroke="#8E5322" stroke-width="1.4" stroke-linecap="round" stroke-linejoin="round" d="&#13;&#10;&#9;&#9;&#9;M98.4,44.2c2.3,4.6,1.7,9.6-1.1,10.9c-2.9,1.5-7.1-1.2-9.4-5.9c-2.3-4.6-1.7-9.6,1.1-10.9C91.9,36.9,96.1,39.5,98.4,44.2z"/>
        <path id="ID0.43813491938635707_6_" fill="#414142" d="M97.8,47.7c0.2,1-0.4,2-1.5,2.1c-0.9,0.2-1.8-0.5-2-1.7&#13;&#10;&#9;&#9;&#9;c-0.2-1,0.4-2,1.5-2.1C96.8,46,97.7,46.7,97.8,47.7" stroke-width="1"/>
      </g>
      <g id="Layer_7_7_">
        <path id="ID0.4253597157076001_6_" fill="#FFFFFF" stroke="#8E5322" stroke-width="1.4" stroke-linecap="round" stroke-linejoin="round" d="&#13;&#10;&#9;&#9;&#9;M75,44.4c2.3,4.6,1.3,9.7-2.1,11.4c-3.4,1.7-8.1-0.7-10.3-5.4c-2.3-4.6-1.3-9.7,2.1-11.4C68.1,37.4,72.7,39.8,75,44.4z"/>
        <path id="ID0.814307457767427_6_" fill="#414142" d="M74.2,48.2c-0.1,1-1,1.8-1.9,1.7c-1-0.1-1.6-1-1.5-2.1c0.1-1,1-1.8,1.9-1.7&#13;&#10;&#9;&#9;&#9;C73.6,46.2,74.3,47.1,74.2,48.2" stroke-width="1"/>
      </g>
      <path id="ID0.5240494590252638_6_" fill="#5F4B43" stroke="#8E5322" stroke-width="1.4" stroke-linecap="round" stroke-linejoin="round" d="&#13;&#10;&#9;&#9;M84.7,55.6c1.7,0,4.2-1,4.2,0.9c-0.1,0.8-2.1,3.9-3.9,3.8c-2-0.1-5.2-3.1-4.9-4.5C80.4,54.2,83.2,55.6,84.7,55.6z"/>
      <path id="ID0.046259244438260794_6_" fill="#FFFFFF" stroke="#8E5322" stroke-width="1.4" stroke-linecap="round" stroke-linejoin="round" d="&#13;&#10;&#9;&#9;M73.8,69.7c0,0,2.2,2.6,7.7,2.2"/>
    </g>
  </g>
</svg>