<svg xmlns="http://www.w3.org/2000/svg" xmlns:xlink="http://www.w3.org/1999/xlink" version="1.1" id="Layer_1" x="0px" y="0px" width="89.22772064208985" height="94.6645263671875" viewBox="27.672278213500977 22.099999237060548 89.22772064208985 94.6645263671875" enable-background="new 0 0 128 128" xml:space="preserve">
  <g>
    <g id="ID0.15723733883351088_11_">
      <path id="ID0.527006761636585_11_" fill="#FAA51F" stroke="#8E5322" stroke-width="1.4" stroke-linecap="round" stroke-linejoin="round" d="&#13;&#10;&#9;&#9;M52.6,94.6c0,0,3.3,4.3,3.5,5.7c-3.9-0.3-3.3-3.4-5.1,0.9c-0.8,2-2.7,6.5-0.5,7.7c7.2,3.6,2-4.2,12.2-2.7c2.9,0.2,8.2-0.8,2.7-8.8"/>
      <path id="ID0.8937406223267317_15_" fill="#FAA51F" stroke="#8E5322" stroke-width="1.4" stroke-linecap="round" stroke-linejoin="round" d="&#13;&#10;&#9;&#9;M60.5,106.2c-1.1-0.3-3-0.3-4.4-0.4"/>
      <path id="ID0.8937406223267317_14_" fill="#FAA51F" stroke="#8E5322" stroke-width="1.4" stroke-linecap="round" stroke-linejoin="round" d="&#13;&#10;&#9;&#9;M58.4,101.8c-0.5-0.2-2-2.1-3-3"/>
    </g>
    <g id="Layer_3_9_">
      <path id="ID0.8535828334279358_8_" fill="#FAA51F" d="M49.1,96.5c-2.4-0.6-5.2-1.7-7.5-4.2c-5.1-5.5-6.2-13.9-10.3-12.1&#13;&#10;&#9;&#9;c-4.1,1.8-5,15.3,6.9,20.4c4.1,1.8,8,2.1,11.1,2.2c0.8,0.1,7.9-0.1,10.5-3.4c2.6-3.3,1.1-4.3,0.3-4.9C59.2,94,52.5,97.5,49.1,96.5z&#13;&#10;&#9;&#9;" stroke-width="1"/>
      <path id="ID0.914295740891248_8_" fill="#FFFFFF" d="M31.5,80.1c-2,0.5-3.6,5.3-3,9c0.8,3.6,2.5,6,3.7,7.4c1.5,1.2-0.5-3.1,1.8-4.7&#13;&#10;&#9;&#9;c2.3-1.7,6.4-0.7,6.4-0.7s-2.8-4.6-4.4-7.2C34.7,81.4,33.6,79.7,31.5,80.1z" stroke-width="1"/>
      <path id="ID0.40227043256163597_8_" fill="none" stroke="#8E5322" stroke-width="1.4" stroke-linecap="round" stroke-linejoin="round" d="&#13;&#10;&#9;&#9;M49.1,96.5c-2.4-0.6-5.2-1.7-7.5-4.2c-5.1-5.5-6.2-13.9-10.3-12.1c-4.1,1.8-5,15.3,6.9,20.4c4.1,1.8,8,2.1,11.1,2.2&#13;&#10;&#9;&#9;c0.8,0.1,7.9-0.1,10.5-3.4c2.6-3.3,1.1-4.3,0.3-4.9C59.2,94,52.5,97.5,49.1,96.5z"/>
    </g>
    <g>
      <path id="ID0.26344340899959207_8_" fill="#518943" stroke="#426C36" stroke-width="1.4" stroke-linecap="round" stroke-linejoin="round" d="&#13;&#10;&#9;&#9;M47,71.8c0,0-6.6,14.8-5.4,18.2c1.9,4.9,15.7,9.3,18.5,7.5c4.8-3.1,3.2-2.3,3.2-2.3l5.1-13.7L47,71.8z"/>
      <path id="ID0.2414738917723298_8_" fill="#FEFBDF" stroke="#70715E" stroke-width="1.4" stroke-linecap="round" stroke-linejoin="round" d="&#13;&#10;&#9;&#9;M53.3,61.1c1.4,0.4,2.4,1.6,2.9,3.1c0.5,1.6,0.6,3.5,0,5.5c-0.6,2-1.7,3.6-2.9,4.6c-1.3,1-2.8,1.5-4.1,1c-1.4-0.4-2.4-1.6-2.9-3.1&#13;&#10;&#9;&#9;c-0.5-1.5-0.6-3.5,0-5.4c0.6-2,1.7-3.6,2.9-4.6C50.5,61.2,51.9,60.7,53.3,61.1z"/>
      <path id="ID0.6192030962556601_8_" fill="#FEFBDF" stroke="#70715E" stroke-width="1.4" stroke-linecap="round" stroke-linejoin="round" d="&#13;&#10;&#9;&#9;M52.4,64.3c0.7,0.2,1.3,0.9,1.6,1.7c0.3,0.9,0.3,1.9,0,3c-0.3,1.1-0.9,2-1.6,2.5c-0.7,0.6-1.5,0.8-2.2,0.6&#13;&#10;&#9;&#9;c-0.7-0.2-1.3-0.9-1.6-1.7s-0.3-1.9,0-3c0.3-1.1,0.9-2,1.6-2.5C50.8,64.3,51.6,64.1,52.4,64.3z"/>
      <path id="ID0.15330331353470683_8_" fill="#518943" stroke="#426C36" stroke-width="1.4" stroke-linecap="round" stroke-linejoin="round" d="&#13;&#10;&#9;&#9;M49.1,92.9l2.6-7.2l-5.9-3.1c0,0-2.3,5.5-1.6,6.6C44.9,90.2,49.1,92.9,49.1,92.9z"/>
    </g>
    <g id="Layer_2_18_">
      <path id="ID0.39854341372847557_8_" fill="#FAA51F" stroke="#8E5322" stroke-width="1.4" stroke-linecap="round" stroke-linejoin="round" d="&#13;&#10;&#9;&#9;M62.3,93.1"/>
    </g>
    <path id="ID0.46792364912107587_8_" fill="#FAA51F" stroke="#8E5322" stroke-width="1.4" stroke-linecap="round" stroke-linejoin="round" d="&#13;&#10;&#9;M74.3,87.5c-1.9,6.4-3,16.3-14.4,13c-11.4-3.3-7.8-11.7-5.9-18.1c1.9-6.4,6.3-7,12.8-5.1C73.1,79.1,76.2,81,74.3,87.5z"/>
    <g id="ID0.16171270422637463_9_">
      <path id="ID0.007584026083350182_9_" fill="#FAA51F" stroke="#8E5322" stroke-width="1.4" stroke-linecap="round" stroke-linejoin="round" d="&#13;&#10;&#9;&#9;M68.4,97.6c0,0,2,4.8,1.2,7.5c-3.7,2.5-7.4,4.1-7.4,4.1c0.8,0.3,4,0.7,3.6,5.2c-0.2,2.1-9.4,1.9-11.5,1.1c-1.9-0.7-2.4-1.4-2.1-3.4&#13;&#10;&#9;&#9;c0.4-2.6,9-6,9.5-8.4c-1.1-2.2-4.4-6.5-4.4-6.5"/>
      <path id="ID0.31672530295327306_9_" fill="#FAA51F" stroke="#8E5322" stroke-width="1.4" stroke-linecap="round" stroke-linejoin="round" d="&#13;&#10;&#9;&#9;M62.5,109.4c0,0-0.7-0.3-2.2,0"/>
    </g>
    <path id="ID0.38032895559445024_8_" fill="#FFFFFF" d="M74.4,89.5c-1.2,4-4.1,10.3-7.2,8.5c-4.6-2.8-5.1-7.1-3.9-11.1&#13;&#10;&#9;c1.2-4,3.6-4.6,7.2-3.5S75.6,85.4,74.4,89.5z" stroke-width="1"/>
    <g id="ID0.7407716196030378_8_">
      <path id="ID0.15909873321652412_8_" fill="#FAA51F" stroke="#8E5322" stroke-width="1.4" stroke-linecap="round" stroke-linejoin="round" d="&#13;&#10;&#9;&#9;M48.7,90.6C45.4,87.2,52,78,60,74.7l7.2,3.6"/>
      <path id="ID0.8024068027734756_8_" fill="#FAA51F" stroke="#8E5322" stroke-width="1.4" stroke-linecap="round" stroke-linejoin="round" d="&#13;&#10;&#9;&#9;M56.4,86.1"/>
      <path id="ID0.06734407460317016_8_" fill="none" stroke="#8E5322" stroke-width="1.4" stroke-linecap="round" stroke-linejoin="round" d="&#13;&#10;&#9;&#9;M59.9,85.2"/>
      <path id="ID0.8143284288235009_8_" fill="#FAA51F" stroke="#8E5322" stroke-width="1.4" stroke-linecap="round" stroke-linejoin="round" d="&#13;&#10;&#9;&#9;M56.4,86.1l3.7-3.2"/>
      <path id="ID0.6682511982508004_8_" fill="none" stroke="#8E5322" stroke-width="1.4" stroke-linecap="round" stroke-linejoin="round" d="&#13;&#10;&#9;&#9;M56.4,86.1l-1.1-0.6"/>
    </g>
    <g id="ID0.32291418174281716_8_">
      <path id="ID0.30105241015553474_8_" fill="#FAA51F" stroke="#8E5322" stroke-width="1.4" stroke-linecap="round" stroke-linejoin="round" d="&#13;&#10;&#9;&#9;M77.8,98.1c6.1-2.3,3.5-12.2-0.9-16.4l-4.2-0.5"/>
      <path id="ID0.3822403196245432_8_" fill="#FAA51F" stroke="#8E5322" stroke-width="1.4" stroke-linecap="round" stroke-linejoin="round" d="&#13;&#10;&#9;&#9;M74.3,91.3"/>
      <path id="ID0.5879319808445871_8_" fill="none" stroke="#8E5322" stroke-width="1.4" stroke-linecap="round" stroke-linejoin="round" d="&#13;&#10;&#9;&#9;M72.3,89.2"/>
      <path id="ID0.7841392233967781_8_" fill="#FAA51F" stroke="#8E5322" stroke-width="1.4" stroke-linecap="round" stroke-linejoin="round" d="&#13;&#10;&#9;&#9;M74.3,91.3l0-3.9"/>
      <path id="ID0.4326359131373465_8_" fill="none" stroke="#8E5322" stroke-width="1.4" stroke-linecap="round" stroke-linejoin="round" d="&#13;&#10;&#9;&#9;M74.3,91.3l1.1,0"/>
    </g>
    <path id="ID0.48627097019925714_8_" fill="#518943" stroke="#426C36" stroke-width="1.4" stroke-linecap="round" stroke-linejoin="round" d="&#13;&#10;&#9;M51.4,95.8C56,95.4,74,84.5,57.8,74.5c0,0,12.8,9.2-6.2,18.4"/>
    <path id="ID0.07006075512617826_8_" fill="#518943" stroke="#426C36" stroke-width="1.4" stroke-linecap="round" stroke-linejoin="round" d="&#13;&#10;&#9;M73.5,93.7c3.5-4.5,6.2-10-4.1-15.8c0,0,9.1,6.7,2.6,14"/>
    <path id="ID0.1790580078959465_8_" fill="#FAA51F" stroke="#8E5322" stroke-width="1.4" stroke-linecap="round" stroke-linejoin="round" d="&#13;&#10;&#9;M55.3,85.4c5.9-0.2,7.9,3.7,7.3,5.3c-1.3,3.8-6.2,4.2-13.9,0"/>
    <path id="ID0.7947451807558537_8_" fill="#FAA51F" stroke="#8E5322" stroke-width="1.4" stroke-linecap="round" stroke-linejoin="round" d="&#13;&#10;&#9;M77.2,92.2c-2.7-2.2-4.8-0.5-6.2,1.4c-2.1,2.6,0.6,7.2,6.8,4.5"/>
    <g>
      <g id="Layer_2_6_">
        <path id="ID0.2591130444779992_4_" fill="#FAA51F" d="M80.3,32.7c-1.5-0.3-4.5-0.9-6.2-1c-4.6-0.4-9.1,0.8-9.1,0.8l-11.5-9.7&#13;&#10;&#9;&#9;&#9;l-0.1,18.4c0.7-0.7-11.6,11.1-6.2,22.8C52.7,76,66.6,82.6,85.1,81.2c18.5-1.3,24.1-11.2,23.5-16.8c-0.5-5.6-7.1-8.5-7.1-8.5&#13;&#10;&#9;&#9;&#9;s0.4-4.3-2-9.9c-1.5-3.4-7.1-8.7-7.1-8.7L91,25.8l-8,6.1L80.3,32.7z" stroke-width="1"/>
        <path id="ID0.3588979784399271_4_" fill="#FFFFFF" d="M100.6,55.7l-2.1-2.3l-9.1,1.5c0,0-0.4,3.3-4.7,3.7&#13;&#10;&#9;&#9;&#9;c-4.3,0.4-11.1-2.1-11.1-2.1l-7.3,0.9c0,0-8-1.5-9.2,4.8c-2.1,10.9,6.5,17.3,15,18.3c5.5,0.7,9,0.4,13,0.2&#13;&#10;&#9;&#9;&#9;c17.5-1,23.6-10.7,22.8-16.3c-0.5-5.6-6.9-8-6.9-8L100.6,55.7z" stroke-width="1"/>
        <path id="ID0.2727069961838424_4_" fill="none" stroke="#8E5322" stroke-width="1.4" stroke-linecap="round" stroke-linejoin="round" d="&#13;&#10;&#9;&#9;&#9;M104.9,61.6c0,0,4.4-0.4,6.7-1c2.7-0.7,4.6-2.2,4.6-2.2"/>
        <path id="ID0.5861211125738919_4_" fill="none" stroke="#8E5322" stroke-width="1.4" stroke-linecap="round" stroke-linejoin="round" d="&#13;&#10;&#9;&#9;&#9;M104.7,67.4c0,0,2.5,1.4,5.2,1.9c2.7,0.6,4.5,0.6,4.5,0.6"/>
        <path id="ID0.4793355236761272_4_" fill="none" stroke="#8E5322" stroke-width="1.4" stroke-linecap="round" stroke-linejoin="round" d="&#13;&#10;&#9;&#9;&#9;M62.9,30.8l4.7,4.2"/>
        <path id="ID0.48413723474368453_4_" fill="none" stroke="#8E5322" stroke-width="1.4" stroke-linecap="round" stroke-linejoin="round" d="&#13;&#10;&#9;&#9;&#9;M80.3,32.7c-1.5-0.3-4.5-0.9-6.2-1c-4.6-0.4-9.1,0.8-9.1,0.8l-11.5-9.7l-0.1,18.4c0.7-0.7-11.6,11.1-6.2,22.8&#13;&#10;&#9;&#9;&#9;C52.7,76,66.6,82.6,85.1,81.2c18.5-1.3,24.1-11.2,23.5-16.8c-0.5-5.6-7.1-8.5-7.1-8.5s0.4-4.3-2-9.9c-1.5-3.4-7.1-8.7-7.1-8.7&#13;&#10;&#9;&#9;&#9;L91,25.8l-8,6.1L80.3,32.7z"/>
        <path id="ID0.9024141579866409_4_" fill="none" stroke="#8E5322" stroke-width="1.4" stroke-linecap="round" stroke-linejoin="round" d="&#13;&#10;&#9;&#9;&#9;M36.2,57.9c0,0,3.9,1.1,5.7,1.3c1.8,0.2,5.3,0.4,5.3,0.4"/>
        <path id="ID0.16030752705410123_4_" fill="none" stroke="#8E5322" stroke-width="1.4" stroke-linecap="round" stroke-linejoin="round" d="&#13;&#10;&#9;&#9;&#9;M47.8,55.8c0,0-1.9-2.1-5.2-4.4C39,48.9,37,48.1,37,48.1"/>
      </g>
      <g id="Layer_5_5_">
        <path id="ID0.40023312577977777_4_" fill="#FFFFFF" stroke="#8E5322" stroke-width="1.4" stroke-linecap="round" stroke-linejoin="round" d="&#13;&#10;&#9;&#9;&#9;M97.3,45.8c2.3,4.6,1.7,9.6-1.1,10.9c-2.9,1.5-7.1-1.2-9.4-5.9c-2.3-4.6-1.7-9.6,1.1-10.9C90.8,38.5,95,41.2,97.3,45.8z"/>
        <path id="ID0.43813491938635707_4_" fill="#414142" d="M96.8,49.3c0.2,1-0.4,2-1.5,2.1c-0.9,0.2-1.8-0.5-2-1.7&#13;&#10;&#9;&#9;&#9;c-0.2-1,0.4-2,1.5-2.1C95.8,47.6,96.6,48.3,96.8,49.3" stroke-width="1"/>
      </g>
      <g id="Layer_7_5_">
        <path id="ID0.4253597157076001_4_" fill="#FFFFFF" stroke="#8E5322" stroke-width="1.4" stroke-linecap="round" stroke-linejoin="round" d="&#13;&#10;&#9;&#9;&#9;M73.9,46c2.3,4.6,1.3,9.7-2.1,11.4c-3.4,1.7-8.1-0.7-10.3-5.4c-2.3-4.6-1.3-9.7,2.1-11.4C67,39,71.6,41.4,73.9,46z"/>
        <path id="ID0.814307457767427_4_" fill="#414142" d="M73.1,49.9c-0.1,1-1,1.8-1.9,1.7c-1-0.1-1.6-1-1.5-2.1c0.1-1,1-1.8,1.9-1.7&#13;&#10;&#9;&#9;&#9;C72.6,47.9,73.2,48.8,73.1,49.9" stroke-width="1"/>
      </g>
      <path id="ID0.5240494590252638_4_" fill="#5F4B43" stroke="#8E5322" stroke-width="1.4" stroke-linecap="round" stroke-linejoin="round" d="&#13;&#10;&#9;&#9;M83.6,57.2c1.7,0,4.2-1,4.2,0.9c-0.1,0.8-2.1,3.9-3.9,3.8c-2-0.1-5.2-3.1-4.9-4.5S82.1,57.2,83.6,57.2z"/>
      <path id="ID0.046259244438260794_4_" fill="#FFFFFF" stroke="#8E5322" stroke-width="1.4" stroke-linecap="round" stroke-linejoin="round" d="&#13;&#10;&#9;&#9;M72.7,71.4c0,0,2.2,2.6,7.7,2.2"/>
    </g>
  </g>
</svg>