<svg xmlns="http://www.w3.org/2000/svg" xmlns:xlink="http://www.w3.org/1999/xlink" version="1.1" id="Layer_1" x="0px" y="0px" width="89.85943450927735" height="94.6645263671875" viewBox="27.54056053161621 21.599999237060548 89.85943450927735 94.6645263671875" enable-background="new 0 0 128 128" xml:space="preserve">
  <g>
    <g id="ID0.15723733883351088_20_">
      <path id="ID0.527006761636585_20_" fill="#FAA51F" stroke="#8E5322" stroke-width="1.4" stroke-linecap="round" stroke-linejoin="round" d="&#13;&#10;&#9;&#9;M56.5,98.3c0,0,4.1,2.9,6,3.2c-2.7-0.3-4.8-1.2-4.6,3.5c0.1,2.1,0.3,7,2.8,7.2c8.1,0.2,0.1-4.6,9.9-7.6c2.8-1,7.1-4.1-1.3-9.1"/>
      <path id="ID0.8937406223267317_28_" fill="#FAA51F" stroke="#8E5322" stroke-width="1.4" stroke-linecap="round" stroke-linejoin="round" d="&#13;&#10;&#9;&#9;M69.7,104.7c-1.1,0.4-2.7,1.4-4,2.1"/>
      <path id="ID0.8937406223267317_27_" fill="#FAA51F" stroke="#8E5322" stroke-width="1.4" stroke-linecap="round" stroke-linejoin="round" d="&#13;&#10;&#9;&#9;M65.6,102.1c-0.6,0.1-2.8-0.7-4.1-0.9"/>
    </g>
    <g id="Layer_3_24_">
      <path id="ID0.8535828334279358_23_" fill="#FAA51F" d="M49.6,96.7c-2.5-0.4-5.3-1.3-7.8-3.6c-5.5-5.1-7.3-13.4-11.2-11.2&#13;&#10;&#9;&#9;c-3.9,2.2-3.8,15.7,8.5,19.8c4.3,1.5,8.2,1.5,11.2,1.3c0.8,0,7.8-0.7,10.2-4.3c2.3-3.5,0.7-4.4-0.1-4.9&#13;&#10;&#9;&#9;C59.5,93.4,53.1,97.4,49.6,96.7z" stroke-width="1"/>
      <path id="ID0.914295740891248_23_" fill="#FFFFFF" d="M30.8,81.8c-2,0.7-3.2,5.6-2.2,9.2c1.1,3.6,3,5.8,4.3,7.1&#13;&#10;&#9;&#9;c1.6,1.1-0.7-3,1.4-4.9c2.1-1.8,6.3-1.2,6.3-1.2s-3.2-4.4-4.9-6.8C34.1,82.8,32.9,81.2,30.8,81.8z" stroke-width="1"/>
      <path id="ID0.40227043256163597_23_" fill="none" stroke="#8E5322" stroke-width="1.4" stroke-linecap="round" stroke-linejoin="round" d="&#13;&#10;&#9;&#9;M49.6,96.7c-2.5-0.4-5.3-1.3-7.8-3.6c-5.5-5.1-7.3-13.4-11.2-11.2c-3.9,2.2-3.8,15.7,8.5,19.8c4.3,1.5,8.2,1.5,11.2,1.3&#13;&#10;&#9;&#9;c0.8,0,7.8-0.7,10.2-4.3c2.3-3.5,0.7-4.4-0.1-4.9C59.5,93.4,53.1,97.4,49.6,96.7z"/>
    </g>
    <g>
      <path id="ID0.26344340899959207_23_" fill="#518943" stroke="#426C36" stroke-width="1.4" stroke-linecap="round" stroke-linejoin="round" d="&#13;&#10;&#9;&#9;M47.5,71.3c0,0-6.6,14.8-5.4,18.2c1.9,4.9,15.7,9.3,18.5,7.5c4.8-3.1,3.2-2.3,3.2-2.3L68.9,81L47.5,71.3z"/>
      <path id="ID0.2414738917723298_23_" fill="#FEFBDF" stroke="#70715E" stroke-width="1.4" stroke-linecap="round" stroke-linejoin="round" d="&#13;&#10;&#9;&#9;M53.8,60.6c1.4,0.4,2.4,1.6,2.9,3.1c0.5,1.6,0.6,3.5,0,5.5c-0.6,2-1.7,3.6-2.9,4.6c-1.3,1-2.8,1.5-4.1,1c-1.4-0.4-2.4-1.6-2.9-3.1&#13;&#10;&#9;&#9;c-0.5-1.5-0.6-3.5,0-5.4c0.6-2,1.7-3.6,2.9-4.6C51,60.7,52.4,60.2,53.8,60.6z"/>
      <path id="ID0.6192030962556601_23_" fill="#FEFBDF" stroke="#70715E" stroke-width="1.4" stroke-linecap="round" stroke-linejoin="round" d="&#13;&#10;&#9;&#9;M52.9,63.8c0.7,0.2,1.3,0.9,1.6,1.7c0.3,0.9,0.3,1.9,0,3c-0.3,1.1-0.9,2-1.6,2.5c-0.7,0.6-1.5,0.8-2.2,0.6&#13;&#10;&#9;&#9;c-0.7-0.2-1.3-0.9-1.6-1.7s-0.3-1.9,0-3c0.3-1.1,0.9-2,1.6-2.5C51.3,63.8,52.1,63.6,52.9,63.8z"/>
      <path id="ID0.15330331353470683_23_" fill="#518943" stroke="#426C36" stroke-width="1.4" stroke-linecap="round" stroke-linejoin="round" d="&#13;&#10;&#9;&#9;M49.6,92.4l2.6-7.2l-5.9-3.1c0,0-2.3,5.5-1.6,6.6C45.4,89.7,49.6,92.4,49.6,92.4z"/>
    </g>
    <g id="Layer_2_48_">
      <path id="ID0.39854341372847557_23_" fill="#FAA51F" stroke="#8E5322" stroke-width="1.4" stroke-linecap="round" stroke-linejoin="round" d="&#13;&#10;&#9;&#9;M62.8,92.6"/>
    </g>
    <path id="ID0.46792364912107587_23_" fill="#FAA51F" stroke="#8E5322" stroke-width="1.4" stroke-linecap="round" stroke-linejoin="round" d="&#13;&#10;&#9;M74.8,87c-1.9,6.4-3,16.3-14.4,13c-11.4-3.3-7.8-11.7-5.9-18.1c1.9-6.4,6.3-7,12.8-5.1C73.6,78.6,76.7,80.5,74.8,87z"/>
    <path id="ID0.38032895559445024_23_" fill="#FFFFFF" d="M73.5,89c-1.2,4-0.7,7.3-6.8,5.5c-6.1-1.8-5.5-4.1-4.3-8.1&#13;&#10;&#9;c1.2-4,3.6-4.6,7.2-3.5S74.7,85,73.5,89z" stroke-width="1"/>
    <g id="ID0.7407716196030378_22_">
      <path id="ID0.15909873321652412_17_" fill="#FAA51F" stroke="#8E5322" stroke-width="1.4" stroke-linecap="round" stroke-linejoin="round" d="&#13;&#10;&#9;&#9;M49.2,90.1c-3.3-3.4,3.3-12.6,11.3-15.9l7.2,3.6"/>
      <path id="ID0.8024068027734756_22_" fill="#FAA51F" stroke="#8E5322" stroke-width="1.4" stroke-linecap="round" stroke-linejoin="round" d="&#13;&#10;&#9;&#9;M56.9,85.6"/>
      <path id="ID0.06734407460317016_22_" fill="none" stroke="#8E5322" stroke-width="1.4" stroke-linecap="round" stroke-linejoin="round" d="&#13;&#10;&#9;&#9;M60.4,84.7"/>
      <path id="ID0.8143284288235009_17_" fill="#FAA51F" stroke="#8E5322" stroke-width="1.4" stroke-linecap="round" stroke-linejoin="round" d="&#13;&#10;&#9;&#9;M56.9,85.6l3.7-3.2"/>
      <path id="ID0.6682511982508004_17_" fill="none" stroke="#8E5322" stroke-width="1.4" stroke-linecap="round" stroke-linejoin="round" d="&#13;&#10;&#9;&#9;M56.9,85.6l-1.1-0.6"/>
    </g>
    <g id="ID0.32291418174281716_17_">
      <path id="ID0.30105241015553474_17_" fill="#FAA51F" stroke="#8E5322" stroke-width="1.4" stroke-linecap="round" stroke-linejoin="round" d="&#13;&#10;&#9;&#9;M78.3,97.6c6.1-2.3,3.5-12.2-0.9-16.4l-4.2-0.5"/>
      <path id="ID0.3822403196245432_17_" fill="#FAA51F" stroke="#8E5322" stroke-width="1.4" stroke-linecap="round" stroke-linejoin="round" d="&#13;&#10;&#9;&#9;M74.8,90.8"/>
      <path id="ID0.5879319808445871_17_" fill="none" stroke="#8E5322" stroke-width="1.4" stroke-linecap="round" stroke-linejoin="round" d="&#13;&#10;&#9;&#9;M72.8,88.7"/>
      <path id="ID0.7841392233967781_17_" fill="#FAA51F" stroke="#8E5322" stroke-width="1.4" stroke-linecap="round" stroke-linejoin="round" d="&#13;&#10;&#9;&#9;M74.8,90.8l0-3.9"/>
      <path id="ID0.4326359131373465_17_" fill="none" stroke="#8E5322" stroke-width="1.4" stroke-linecap="round" stroke-linejoin="round" d="&#13;&#10;&#9;&#9;M74.8,90.8l1.1,0"/>
    </g>
    <path id="ID0.48627097019925714_23_" fill="#518943" stroke="#426C36" stroke-width="1.4" stroke-linecap="round" stroke-linejoin="round" d="&#13;&#10;&#9;M51.9,95.3C56.5,94.9,74.5,84,58.3,74c0,0,12.8,9.2-6.2,18.4"/>
    <path id="ID0.07006075512617826_23_" fill="#518943" stroke="#426C36" stroke-width="1.4" stroke-linecap="round" stroke-linejoin="round" d="&#13;&#10;&#9;M74,93.2c3.5-4.5,6.2-10-4.1-15.8c0,0,9.1,6.7,2.6,14"/>
    <path id="ID0.1790580078959465_25_" fill="#FAA51F" stroke="#8E5322" stroke-width="1.4" stroke-linecap="round" stroke-linejoin="round" d="&#13;&#10;&#9;M55.8,84.9c5.9-0.2,7.9,3.7,7.3,5.3c-1.3,3.8-6.2,4.2-13.9,0"/>
    <path id="ID0.7947451807558537_17_" fill="#FAA51F" stroke="#8E5322" stroke-width="1.4" stroke-linecap="round" stroke-linejoin="round" d="&#13;&#10;&#9;M77.7,91.7c-2.7-2.2-4.8-0.5-6.2,1.4c-2.1,2.6,0.6,7.2,6.8,4.5"/>
    <g>
      <g id="Layer_2_47_">
        <path id="ID0.2591130444779992_23_" fill="#FAA51F" d="M80.8,32.2c-1.5-0.3-4.5-0.9-6.2-1c-4.6-0.4-9.1,0.8-9.1,0.8L54,22.3&#13;&#10;&#9;&#9;&#9;l-0.1,18.4c0.7-0.7-11.6,11.1-6.2,22.8c5.5,11.9,19.4,18.5,37.9,17.2c18.5-1.3,24.1-11.2,23.5-16.8c-0.5-5.6-7.1-8.5-7.1-8.5&#13;&#10;&#9;&#9;&#9;s0.4-4.3-2-9.9c-1.5-3.4-7.1-8.7-7.1-8.7l-1.4-11.5l-8,6.1L80.8,32.2z" stroke-width="1"/>
        <path id="ID0.3588979784399271_23_" fill="#FFFFFF" d="M101.1,55.2L99,52.9l-9.1,1.5c0,0-0.4,3.3-4.7,3.7C81,58.4,74.1,56,74.1,56&#13;&#10;&#9;&#9;&#9;l-7.3,0.9c0,0-8-1.5-9.2,4.8C55.6,72.6,64.2,79,72.7,80c5.5,0.7,9,0.4,13,0.2c17.5-1,23.6-10.7,22.8-16.3c-0.5-5.6-6.9-8-6.9-8&#13;&#10;&#9;&#9;&#9;L101.1,55.2z" stroke-width="1"/>
        <path id="ID0.2727069961838424_23_" fill="none" stroke="#8E5322" stroke-width="1.4" stroke-linecap="round" stroke-linejoin="round" d="&#13;&#10;&#9;&#9;&#9;M105.4,61.1c0,0,4.4-0.4,6.7-1c2.7-0.7,4.6-2.2,4.6-2.2"/>
        <path id="ID0.5861211125738919_23_" fill="none" stroke="#8E5322" stroke-width="1.4" stroke-linecap="round" stroke-linejoin="round" d="&#13;&#10;&#9;&#9;&#9;M105.2,66.9c0,0,2.5,1.4,5.2,1.9c2.7,0.6,4.5,0.6,4.5,0.6"/>
        <path id="ID0.4793355236761272_23_" fill="none" stroke="#8E5322" stroke-width="1.4" stroke-linecap="round" stroke-linejoin="round" d="&#13;&#10;&#9;&#9;&#9;M63.4,30.3l4.7,4.2"/>
        <path id="ID0.48413723474368453_23_" fill="none" stroke="#8E5322" stroke-width="1.4" stroke-linecap="round" stroke-linejoin="round" d="&#13;&#10;&#9;&#9;&#9;M80.8,32.2c-1.5-0.3-4.5-0.9-6.2-1c-4.6-0.4-9.1,0.8-9.1,0.8L54,22.3l-0.1,18.4c0.7-0.7-11.6,11.1-6.2,22.8&#13;&#10;&#9;&#9;&#9;c5.5,11.9,19.4,18.5,37.9,17.2c18.5-1.3,24.1-11.2,23.5-16.8c-0.5-5.6-7.1-8.5-7.1-8.5s0.4-4.3-2-9.9c-1.5-3.4-7.1-8.7-7.1-8.7&#13;&#10;&#9;&#9;&#9;l-1.4-11.5l-8,6.1L80.8,32.2z"/>
        <path id="ID0.9024141579866409_23_" fill="none" stroke="#8E5322" stroke-width="1.4" stroke-linecap="round" stroke-linejoin="round" d="&#13;&#10;&#9;&#9;&#9;M36.7,57.4c0,0,3.9,1.1,5.7,1.3c1.8,0.2,5.3,0.4,5.3,0.4"/>
        <path id="ID0.16030752705410123_23_" fill="none" stroke="#8E5322" stroke-width="1.4" stroke-linecap="round" stroke-linejoin="round" d="&#13;&#10;&#9;&#9;&#9;M48.3,55.3c0,0-1.9-2.1-5.2-4.4c-3.6-2.5-5.7-3.3-5.7-3.3"/>
      </g>
      <g id="Layer_5_24_">
        <path id="ID0.40023312577977777_23_" fill="#FFFFFF" stroke="#8E5322" stroke-width="1.4" stroke-linecap="round" stroke-linejoin="round" d="&#13;&#10;&#9;&#9;&#9;M97.8,45.3c2.3,4.6,1.7,9.6-1.1,10.9c-2.9,1.5-7.1-1.2-9.4-5.9c-2.3-4.6-1.7-9.6,1.1-10.9C91.3,38,95.5,40.7,97.8,45.3z"/>
        <path id="ID0.43813491938635707_23_" fill="#414142" d="M97.3,48.8c0.2,1-0.4,2-1.5,2.1c-0.9,0.2-1.8-0.5-2-1.7&#13;&#10;&#9;&#9;&#9;c-0.2-1,0.4-2,1.5-2.1C96.3,47.1,97.1,47.8,97.3,48.8" stroke-width="1"/>
      </g>
      <g id="Layer_7_24_">
        <path id="ID0.4253597157076001_23_" fill="#FFFFFF" stroke="#8E5322" stroke-width="1.4" stroke-linecap="round" stroke-linejoin="round" d="&#13;&#10;&#9;&#9;&#9;M74.4,45.5c2.3,4.6,1.3,9.7-2.1,11.4c-3.4,1.7-8.1-0.7-10.3-5.4c-2.3-4.6-1.3-9.7,2.1-11.4C67.5,38.5,72.1,40.9,74.4,45.5z"/>
        <path id="ID0.814307457767427_23_" fill="#414142" d="M73.6,49.4c-0.1,1-1,1.8-1.9,1.7c-1-0.1-1.6-1-1.5-2.1c0.1-1,1-1.8,1.9-1.7&#13;&#10;&#9;&#9;&#9;C73.1,47.4,73.7,48.3,73.6,49.4" stroke-width="1"/>
      </g>
      <path id="ID0.5240494590252638_23_" fill="#5F4B43" stroke="#8E5322" stroke-width="1.4" stroke-linecap="round" stroke-linejoin="round" d="&#13;&#10;&#9;&#9;M84.1,56.7c1.7,0,4.2-1,4.2,0.9c-0.1,0.8-2.1,3.9-3.9,3.8c-2-0.1-5.2-3.1-4.9-4.5S82.6,56.7,84.1,56.7z"/>
      <path id="ID0.046259244438260794_23_" fill="#FFFFFF" stroke="#8E5322" stroke-width="1.4" stroke-linecap="round" stroke-linejoin="round" d="&#13;&#10;&#9;&#9;M73.2,70.9c0,0,2.2,2.6,7.7,2.2"/>
    </g>
    <g id="ID0.16171270422637463_23_">
      <path id="ID0.007584026083350182_23_" fill="#FAA51F" stroke="#8E5322" stroke-width="1.4" stroke-linecap="round" stroke-linejoin="round" d="&#13;&#10;&#9;&#9;M63.9,97.9c0,0-1.7,4.5-3.2,6.7c-3.7,2.5-7.4,4.1-7.4,4.1c0.8,0.3,4,0.7,3.6,5.2c-0.2,2.1-9.4,1.9-11.5,1.1&#13;&#10;&#9;&#9;c-1.9-0.7-2.4-1.4-2.1-3.4c0.4-2.6,6.8-6.6,9.5-8.4c0.7-2.5,1.2-7.8,1.2-7.8"/>
      <path id="ID0.31672530295327306_18_" fill="#FAA51F" stroke="#8E5322" stroke-width="1.4" stroke-linecap="round" stroke-linejoin="round" d="&#13;&#10;&#9;&#9;M53.5,108.9c0,0-0.7-0.3-2.2,0"/>
    </g>
  </g>
</svg>