<svg version="1.1" xmlns="http://www.w3.org/2000/svg" xmlns:xlink="http://www.w3.org/1999/xlink" width="89.77442" height="94.66454" viewBox="0,0,89.77442,94.66454"><g transform="translate(-203.62558,-137.6)"><g data-paper-data="{&quot;isPaintingLayer&quot;:true}" fill="none" fill-rule="nonzero" stroke="none" stroke-width="none" stroke-linecap="none" stroke-linejoin="none" stroke-miterlimit="10" stroke-dasharray="" stroke-dashoffset="0" font-family="none" font-weight="none" font-size="none" text-anchor="none" style="mix-blend-mode: normal"><g data-paper-data="{&quot;index&quot;:null}" id="ID0.16171270422637463_14_" fill="#faa51f" stroke="#8e5322" stroke-width="1.4" stroke-linecap="round" stroke-linejoin="round"><path d="M239.9,213.9c0,0 -1.7,4.5 -3.2,6.7c-3.7,2.5 -7.4,4.1 -7.4,4.1c0.8,0.3 4,0.7 3.6,5.2c-0.2,2.1 -9.4,1.9 -11.5,1.1c-1.9,-0.7 -2.4,-1.4 -2.1,-3.4c0.4,-2.6 6.8,-6.6 9.5,-8.4c0.7,-2.5 1.2,-7.8 1.2,-7.8" id="ID0.007584026083350182_14_"/><path d="M227.3,224.9c1.5,-0.3 2.2,0 2.2,0" id="ID0.31672530295327306_14_"/></g><g data-paper-data="{&quot;index&quot;:null}" id="Layer_3_15_"><path d="M236.4,209.8c0.8,0.5 2.4,1.4 0.1,4.9c-2.4,3.6 -9.4,4.3 -10.2,4.3c-3,0.2 -6.9,0.2 -11.2,-1.3c-12.3,-4.1 -12.4,-17.6 -8.5,-19.8c3.9,-2.2 5.7,6.1 11.2,11.2c2.5,2.3 5.3,3.2 7.8,3.6c3.5,0.7 9.9,-3.3 10.8,-2.9z" id="ID0.8535828334279358_14_" fill="#faa51f" stroke="none" stroke-width="1" stroke-linecap="butt" stroke-linejoin="miter"/><path d="M211.7,201.2c1.7,2.4 4.9,6.8 4.9,6.8c0,0 -4.2,-0.6 -6.3,1.2c-2.1,1.9 0.2,6 -1.4,4.9c-1.3,-1.3 -3.2,-3.5 -4.3,-7.1c-1,-3.6 0.2,-8.5 2.2,-9.2c2.1,-0.6 3.3,1 4.9,3.4z" id="ID0.914295740891248_14_" fill="#ffffff" stroke="none" stroke-width="1" stroke-linecap="butt" stroke-linejoin="miter"/><path d="M236.4,209.8c0.8,0.5 2.4,1.4 0.1,4.9c-2.4,3.6 -9.4,4.3 -10.2,4.3c-3,0.2 -6.9,0.2 -11.2,-1.3c-12.3,-4.1 -12.4,-17.6 -8.5,-19.8c3.9,-2.2 5.7,6.1 11.2,11.2c2.5,2.3 5.3,3.2 7.8,3.6c3.5,0.7 9.9,-3.3 10.8,-2.9z" id="ID0.40227043256163597_14_" fill="none" stroke="#8e5322" stroke-width="1.4" stroke-linecap="round" stroke-linejoin="round"/></g><g data-paper-data="{&quot;index&quot;:null}" stroke-width="1.4" stroke-linecap="round" stroke-linejoin="round"><path d="M244.9,197l-5.1,13.7c0,0 1.6,-0.8 -3.2,2.3c-2.8,1.8 -16.6,-2.6 -18.5,-7.5c-1.2,-3.4 5.4,-18.2 5.4,-18.2z" id="ID0.26344340899959207_14_" fill="#518943" stroke="#426c36"/><path d="M229.8,176.6c1.4,0.4 2.4,1.6 2.9,3.1c0.5,1.6 0.6,3.5 0,5.5c-0.6,2 -1.7,3.6 -2.9,4.6c-1.3,1 -2.8,1.5 -4.1,1c-1.4,-0.4 -2.4,-1.6 -2.9,-3.1c-0.5,-1.5 -0.6,-3.5 0,-5.4c0.6,-2 1.7,-3.6 2.9,-4.6c1.3,-1 2.7,-1.5 4.1,-1.1z" id="ID0.2414738917723298_14_" fill="#fefbdf" stroke="#70715e"/><path d="M228.9,179.8c0.7,0.2 1.3,0.9 1.6,1.7c0.3,0.9 0.3,1.9 0,3c-0.3,1.1 -0.9,2 -1.6,2.5c-0.7,0.6 -1.5,0.8 -2.2,0.6c-0.7,-0.2 -1.3,-0.9 -1.6,-1.7c-0.3,-0.8 -0.3,-1.9 0,-3c0.3,-1.1 0.9,-2 1.6,-2.5c0.6,-0.6 1.4,-0.8 2.2,-0.6z" id="ID0.6192030962556601_14_" fill="#fefbdf" stroke="#70715e"/><path d="M220.7,204.7c-0.7,-1.1 1.6,-6.6 1.6,-6.6l5.9,3.1l-2.6,7.2c0,0 -4.2,-2.7 -4.9,-3.7z" id="ID0.15330331353470683_14_" fill="#518943" stroke="#426c36"/></g><path d="M238.8,208.6" data-paper-data="{&quot;index&quot;:null}" id="ID0.39854341372847557_14_" fill="#faa51f" stroke="#8e5322" stroke-width="1.4" stroke-linecap="round" stroke-linejoin="round"/><path d="M250.8,203c-1.9,6.4 -3,16.3 -14.4,13c-11.4,-3.3 -7.8,-11.7 -5.9,-18.1c1.9,-6.4 6.3,-7 12.8,-5.1c6.3,1.8 9.4,3.7 7.5,10.2z" data-paper-data="{&quot;index&quot;:null}" id="ID0.46792364912107587_14_" fill="#faa51f" stroke="#8e5322" stroke-width="1.4" stroke-linecap="round" stroke-linejoin="round"/><path d="M249.5,205c-1.2,4 -0.7,7.3 -6.8,5.5c-6.1,-1.8 -5.5,-4.1 -4.3,-8.1c1.2,-4 3.6,-4.6 7.2,-3.5c3.6,1.1 5.1,2.1 3.9,6.1z" data-paper-data="{&quot;index&quot;:null}" id="ID0.38032895559445024_14_" fill="#ffffff" stroke="none" stroke-width="1" stroke-linecap="butt" stroke-linejoin="miter"/><g data-paper-data="{&quot;index&quot;:null}" id="ID0.15723733883351088_17_" fill="#faa51f" stroke="#8e5322" stroke-width="1.4" stroke-linecap="round" stroke-linejoin="round"><path d="M245.3,211.5c8.4,5 4.1,8.1 1.3,9.1c-9.8,3 -1.8,7.8 -9.9,7.6c-2.5,-0.2 -2.7,-5.1 -2.8,-7.2c-0.2,-4.7 1.9,-3.8 4.6,-3.5c-1.9,-0.3 -6,-3.2 -6,-3.2" id="ID0.527006761636585_17_"/><path d="M241.7,222.8c1.3,-0.7 2.9,-1.7 4,-2.1" id="ID0.8937406223267317_23_"/><path d="M241.6,218.1c-0.6,0.1 -2.8,-0.7 -4.1,-0.9" id="ID0.8937406223267317_22_"/></g><g data-paper-data="{&quot;index&quot;:null}" id="ID0.7407716196030378_13_" stroke="#8e5322" stroke-width="1.4" stroke-linecap="round" stroke-linejoin="round"><path d="M225.2,206.1c-3.3,-3.4 3.3,-12.6 11.3,-15.9l7.2,3.6" id="ID0.15909873321652412_12_" fill="#faa51f"/><path d="M232.9,201.6" id="ID0.8024068027734756_13_" fill="#faa51f"/><path d="M236.4,200.7" id="ID0.06734407460317016_13_" fill="none"/><path d="M232.9,201.6l3.7,-3.2" id="ID0.8143284288235009_12_" fill="#faa51f"/><path d="M232.9,201.6l-1.1,-0.6" id="ID0.6682511982508004_12_" fill="none"/></g><g data-paper-data="{&quot;index&quot;:null}" id="ID0.32291418174281716_12_" stroke="#8e5322" stroke-width="1.4" stroke-linecap="round" stroke-linejoin="round"><path d="M249.2,196.7l4.2,0.5c4.4,4.2 7,14.1 0.9,16.4" id="ID0.30105241015553474_12_" fill="#faa51f"/><path d="M250.8,206.8" id="ID0.3822403196245432_12_" fill="#faa51f"/><path d="M248.8,204.7" id="ID0.5879319808445871_12_" fill="none"/><path d="M250.8,206.8v-3.9" id="ID0.7841392233967781_12_" fill="#faa51f"/><path d="M250.8,206.8h1.1" id="ID0.4326359131373465_12_" fill="none"/></g><path d="M228.1,208.4c19,-9.2 6.2,-18.4 6.2,-18.4c16.2,10 -1.8,20.9 -6.4,21.3" data-paper-data="{&quot;index&quot;:null}" id="ID0.48627097019925714_14_" fill="#518943" stroke="#426c36" stroke-width="1.4" stroke-linecap="round" stroke-linejoin="round"/><path d="M248.5,207.4c6.5,-7.3 -2.6,-14 -2.6,-14c10.3,5.8 7.6,11.3 4.1,15.8" data-paper-data="{&quot;index&quot;:null}" id="ID0.07006075512617826_14_" fill="#518943" stroke="#426c36" stroke-width="1.4" stroke-linecap="round" stroke-linejoin="round"/><path d="M231.8,200.9c5.9,-0.2 7.9,3.7 7.3,5.3c-1.3,3.8 -6.2,4.2 -13.9,0" data-paper-data="{&quot;index&quot;:null}" id="ID0.1790580078959465_16_" fill="#faa51f" stroke="#8e5322" stroke-width="1.4" stroke-linecap="round" stroke-linejoin="round"/><path d="M254.3,213.6c-6.2,2.7 -8.9,-1.9 -6.8,-4.5c1.4,-1.9 3.5,-3.6 6.2,-1.4" data-paper-data="{&quot;index&quot;:null}" id="ID0.7947451807558537_12_" fill="#faa51f" stroke="#8e5322" stroke-width="1.4" stroke-linecap="round" stroke-linejoin="round"/><g data-paper-data="{&quot;index&quot;:null}"><g id="Layer_2_29_"><path d="M259.5,147.4l8,-6.1l1.4,11.5c0,0 5.6,5.3 7.1,8.7c2.4,5.6 2,9.9 2,9.9c0,0 6.6,2.9 7.1,8.5c0.6,5.6 -5,15.5 -23.5,16.8c-18.5,1.3 -32.4,-5.3 -37.9,-17.2c-5.4,-11.7 6.9,-23.5 6.2,-22.8l0.1,-18.4l11.5,9.7c0,0 4.5,-1.2 9.1,-0.8c1.7,0.1 4.7,0.7 6.2,1z" id="ID0.2591130444779992_14_" fill="#faa51f" stroke="none" stroke-width="1" stroke-linecap="butt" stroke-linejoin="miter"/><path d="M277.6,171.9c0,0 6.4,2.4 6.9,8c0.8,5.6 -5.3,15.3 -22.8,16.3c-4,0.2 -7.5,0.5 -13,-0.2c-8.5,-1 -17.1,-7.4 -15.1,-18.3c1.2,-6.3 9.2,-4.8 9.2,-4.8l7.3,-0.9c0,0 6.9,2.4 11.1,2.1c4.3,-0.4 4.7,-3.7 4.7,-3.7l9.1,-1.5l2.1,2.3z" id="ID0.3588979784399271_14_" fill="#ffffff" stroke="none" stroke-width="1" stroke-linecap="butt" stroke-linejoin="miter"/><path d="M292.7,173.9c0,0 -1.9,1.5 -4.6,2.2c-2.3,0.6 -6.7,1 -6.7,1" id="ID0.2727069961838424_14_" fill="none" stroke="#8e5322" stroke-width="1.4" stroke-linecap="round" stroke-linejoin="round"/><path d="M290.9,185.4c0,0 -1.8,0 -4.5,-0.6c-2.7,-0.5 -5.2,-1.9 -5.2,-1.9" id="ID0.5861211125738919_14_" fill="none" stroke="#8e5322" stroke-width="1.4" stroke-linecap="round" stroke-linejoin="round"/><path d="M244.1,150.5l-4.7,-4.2" id="ID0.4793355236761272_14_" fill="none" stroke="#8e5322" stroke-width="1.4" stroke-linecap="round" stroke-linejoin="round"/><path d="M259.5,147.4l8,-6.1l1.4,11.5c0,0 5.6,5.3 7.1,8.7c2.4,5.6 2,9.9 2,9.9c0,0 6.6,2.9 7.1,8.5c0.6,5.6 -5,15.5 -23.5,16.8c-18.5,1.3 -32.4,-5.3 -37.9,-17.2c-5.4,-11.7 6.9,-23.5 6.2,-22.8l0.1,-18.4l11.5,9.7c0,0 4.5,-1.2 9.1,-0.8c1.7,0.1 4.7,0.7 6.2,1z" id="ID0.48413723474368453_14_" fill="none" stroke="#8e5322" stroke-width="1.4" stroke-linecap="round" stroke-linejoin="round"/><path d="M223.7,175.1c0,0 -3.5,-0.2 -5.3,-0.4c-1.8,-0.2 -5.7,-1.3 -5.7,-1.3" id="ID0.9024141579866409_14_" fill="none" stroke="#8e5322" stroke-width="1.4" stroke-linecap="round" stroke-linejoin="round"/><path d="M213.4,163.6c0,0 2.1,0.8 5.7,3.3c3.3,2.3 5.2,4.4 5.2,4.4" id="ID0.16030752705410123_14_" fill="none" stroke="#8e5322" stroke-width="1.4" stroke-linecap="round" stroke-linejoin="round"/></g><g id="Layer_5_15_"><path d="M273.8,161.3c2.3,4.6 1.7,9.6 -1.1,10.9c-2.9,1.5 -7.1,-1.2 -9.4,-5.9c-2.3,-4.6 -1.7,-9.6 1.1,-10.9c2.9,-1.4 7.1,1.3 9.4,5.9z" id="ID0.40023312577977777_14_" fill="#ffffff" stroke="#8e5322" stroke-width="1.4" stroke-linecap="round" stroke-linejoin="round"/><path d="M273.3,164.8c0.2,1 -0.4,2 -1.5,2.1c-0.9,0.2 -1.8,-0.5 -2,-1.7c-0.2,-1 0.4,-2 1.5,-2.1c1,0 1.8,0.7 2,1.7" id="ID0.43813491938635707_14_" fill="#414142" stroke="none" stroke-width="1" stroke-linecap="butt" stroke-linejoin="miter"/></g><g id="Layer_7_15_"><path d="M250.4,161.5c2.3,4.6 1.3,9.7 -2.1,11.4c-3.4,1.7 -8.1,-0.7 -10.3,-5.4c-2.3,-4.6 -1.3,-9.7 2.1,-11.4c3.4,-1.6 8,0.8 10.3,5.4z" id="ID0.4253597157076001_14_" fill="#ffffff" stroke="#8e5322" stroke-width="1.4" stroke-linecap="round" stroke-linejoin="round"/><path d="M249.6,165.4c-0.1,1 -1,1.8 -1.9,1.7c-1,-0.1 -1.6,-1 -1.5,-2.1c0.1,-1 1,-1.8 1.9,-1.7c1,0.1 1.6,1 1.5,2.1" id="ID0.814307457767427_14_" fill="#414142" stroke="none" stroke-width="1" stroke-linecap="butt" stroke-linejoin="miter"/></g><path d="M260.1,172.7c1.7,0 4.2,-1 4.2,0.9c-0.1,0.8 -2.1,3.9 -3.9,3.8c-2,-0.1 -5.2,-3.1 -4.9,-4.5c0.3,-1.4 3.1,-0.2 4.6,-0.2z" id="ID0.5240494590252638_14_" fill="#5f4b43" stroke="#8e5322" stroke-width="1.4" stroke-linecap="round" stroke-linejoin="round"/><path d="M256.9,189.1c-5.5,0.4 -7.7,-2.2 -7.7,-2.2" id="ID0.046259244438260794_14_" fill="#ffffff" stroke="#8e5322" stroke-width="1.4" stroke-linecap="round" stroke-linejoin="round"/></g></g></g></svg>