<svg xmlns="http://www.w3.org/2000/svg" xmlns:xlink="http://www.w3.org/1999/xlink" version="1.1" id="Layer_1" x="0px" y="0px" width="90.62852325439454" height="95.08910217285157" viewBox="27.871462631225587 20.599999237060548 90.62852325439454 95.08910217285157" enable-background="new 0 0 128 128" xml:space="preserve">
  <g>
    <g>
      <path id="ID0.26344340899959207_21_" fill="#518943" stroke="#426C36" stroke-width="1.4" stroke-linecap="round" stroke-linejoin="round" d="&#13;&#10;&#9;&#9;M47.3,72.2c0,0-6.6,14.8-5.4,18.2c1.9,4.9,15.7,9.3,18.5,7.5c4.8-3.1,3.2-2.3,3.2-2.3l5.1-13.7L47.3,72.2z"/>
      <path id="ID0.2414738917723298_21_" fill="#FEFBDF" stroke="#70715E" stroke-width="1.4" stroke-linecap="round" stroke-linejoin="round" d="&#13;&#10;&#9;&#9;M53.6,61.6c1.4,0.4,2.4,1.6,2.9,3.1c0.5,1.5,0.6,3.5,0,5.4c-0.6,2-1.7,3.6-2.9,4.6c-1.3,1-2.8,1.4-4.1,1s-2.4-1.6-2.9-3.1&#13;&#10;&#9;&#9;c-0.5-1.5-0.6-3.5,0-5.4c0.6-2,1.7-3.6,2.9-4.6C50.8,61.6,52.2,61.2,53.6,61.6z"/>
      <path id="ID0.6192030962556601_21_" fill="#FEFBDF" stroke="#70715E" stroke-width="1.4" stroke-linecap="round" stroke-linejoin="round" d="&#13;&#10;&#9;&#9;M52.7,64.7c0.7,0.2,1.3,0.9,1.6,1.7c0.3,0.9,0.3,1.9,0,3c-0.3,1.1-0.9,2-1.6,2.5c-0.7,0.6-1.5,0.8-2.2,0.6s-1.3-0.9-1.6-1.7&#13;&#10;&#9;&#9;c-0.3-0.9-0.3-1.9,0-3c0.3-1.1,0.9-2,1.6-2.5C51.1,64.8,51.9,64.5,52.7,64.7z"/>
      <path id="ID0.15330331353470683_21_" fill="#518943" stroke="#426C36" stroke-width="1.4" stroke-linecap="round" stroke-linejoin="round" d="&#13;&#10;&#9;&#9;M49.4,93.4l2.6-7.2l-5.9-3.1c0,0-2.3,5.5-1.6,6.6C45.2,90.7,49.4,93.4,49.4,93.4z"/>
    </g>
    <g id="Layer_2_44_">
      <path id="ID0.39854341372847557_21_" fill="#FAA51F" stroke="#8E5322" stroke-width="1.4" stroke-linecap="round" stroke-linejoin="round" d="&#13;&#10;&#9;&#9;M63.6,89.6"/>
    </g>
    <g id="ID0.16171270422637463_22_">
      <path id="ID0.007584026083350182_22_" fill="#FAA51F" stroke="#8E5322" stroke-width="1.4" stroke-linecap="round" stroke-linejoin="round" d="&#13;&#10;&#9;&#9;M61.8,97.1c0,0-6.6,2.6-13.4,8.2c-3,2.4,4.6,5.8-1.8,9.6c-1.8,1-6.9-6.7-7.4-8.9c-0.5-2-0.2-2.8,1.6-3.7&#13;&#10;&#9;&#9;c6.6-3.2,13.8-13.8,13.8-13.8"/>
      <path id="ID0.31672530295327306_22_" fill="#FAA51F" stroke="#8E5322" stroke-width="1.4" stroke-linecap="round" stroke-linejoin="round" d="&#13;&#10;&#9;&#9;M48.1,108c0,0-0.6-1.2-1.7-2.3"/>
    </g>
    <g id="Layer_3_22_">
      <path id="ID0.8535828334279358_21_" fill="#FAA51F" d="M51.5,94.9c-2.5,0-5.5-0.2-8.4-2c-6.4-3.9-9.8-11.7-13.2-8.8&#13;&#10;&#9;&#9;c-3.4,2.9-0.6,16.1,12.2,17.7c4.5,0.6,8.3-0.2,11.3-0.9c0.8-0.2,7.5-2.2,9.2-6.2c1.6-3.9-0.2-4.4-1.1-4.8&#13;&#10;&#9;&#9;C60.5,89.8,55,95,51.5,94.9z" stroke-width="1"/>
      <path id="ID0.914295740891248_21_" fill="#FFFFFF" d="M30.1,84c-1.8,1.1-2,6.1-0.4,9.4c1.7,3.3,4.1,5.1,5.6,6.1&#13;&#10;&#9;&#9;c1.8,0.7-1.3-2.8,0.4-5c1.7-2.2,5.9-2.4,5.9-2.4s-4-3.7-6.2-5.8C33.5,84.3,32.1,83,30.1,84z" stroke-width="1"/>
      <path id="ID0.40227043256163597_21_" fill="none" stroke="#8E5322" stroke-width="1.4" stroke-linecap="round" stroke-linejoin="round" d="&#13;&#10;&#9;&#9;M51.5,94.9c-2.5,0-5.5-0.2-8.4-2c-6.4-3.9-9.8-11.7-13.2-8.8c-3.4,2.9-0.6,16.1,12.2,17.7c4.5,0.6,8.3-0.2,11.3-0.9&#13;&#10;&#9;&#9;c0.8-0.2,7.5-2.2,9.2-6.2c1.6-3.9-0.2-4.4-1.1-4.8C60.5,89.8,55,95,51.5,94.9z"/>
    </g>
    <path id="ID0.46792364912107587_21_" fill="#FAA51F" stroke="#8E5322" stroke-width="1.4" stroke-linecap="round" stroke-linejoin="round" d="&#13;&#10;&#9;M75.6,83.9c-1.9,6.4-3,16.3-14.4,13c-11.4-3.4-7.8-11.7-5.9-18.1s6.3-7,12.8-5.1C74.4,75.6,77.5,77.5,75.6,83.9z"/>
    <path id="ID0.38032895559445024_21_" fill="#FFFFFF" d="M77.3,87c-1.2,4-4.8,4.5-10.9,2.6c-1.7-0.5-1.3-1.2-0.2-5.2s3.6-4.6,7.2-3.5&#13;&#10;&#9;C76.9,81.9,78.5,82.9,77.3,87z" stroke-width="1"/>
    <g id="ID0.7407716196030378_21_">
      <path id="ID0.15909873321652412_21_" fill="#FAA51F" stroke="#8E5322" stroke-width="1.4" stroke-linecap="round" stroke-linejoin="round" d="&#13;&#10;&#9;&#9;M50,87c-3.3-3.4,3.3-12.6,11.3-15.9l7.2,3.6"/>
      <path id="ID0.8024068027734756_21_" fill="#FAA51F" stroke="#8E5322" stroke-width="1.4" stroke-linecap="round" stroke-linejoin="round" d="&#13;&#10;&#9;&#9;M57.7,82.5"/>
      <path id="ID0.06734407460317016_21_" fill="none" stroke="#8E5322" stroke-width="1.4" stroke-linecap="round" stroke-linejoin="round" d="&#13;&#10;&#9;&#9;M61.2,81.7"/>
      <path id="ID0.8143284288235009_21_" fill="#FAA51F" stroke="#8E5322" stroke-width="1.4" stroke-linecap="round" stroke-linejoin="round" d="&#13;&#10;&#9;&#9;M57.7,82.5l3.7-3.2"/>
      <path id="ID0.6682511982508004_21_" fill="none" stroke="#8E5322" stroke-width="1.4" stroke-linecap="round" stroke-linejoin="round" d="&#13;&#10;&#9;&#9;M57.7,82.5l-1.1-0.6"/>
    </g>
    <g id="ID0.32291418174281716_21_">
      <path id="ID0.30105241015553474_21_" fill="#FAA51F" stroke="#8E5322" stroke-width="1.4" stroke-linecap="round" stroke-linejoin="round" d="&#13;&#10;&#9;&#9;M79.1,94.5c6.1-2.3,3.5-12.2-0.9-16.4l-4.2-0.5"/>
      <path id="ID0.3822403196245432_21_" fill="#FAA51F" stroke="#8E5322" stroke-width="1.4" stroke-linecap="round" stroke-linejoin="round" d="&#13;&#10;&#9;&#9;M75.6,87.8"/>
      <path id="ID0.5879319808445871_21_" fill="none" stroke="#8E5322" stroke-width="1.4" stroke-linecap="round" stroke-linejoin="round" d="&#13;&#10;&#9;&#9;M73.6,85.6"/>
      <path id="ID0.7841392233967781_21_" fill="#FAA51F" stroke="#8E5322" stroke-width="1.4" stroke-linecap="round" stroke-linejoin="round" d="&#13;&#10;&#9;&#9;M75.6,87.8l0-3.9"/>
      <path id="ID0.4326359131373465_21_" fill="none" stroke="#8E5322" stroke-width="1.4" stroke-linecap="round" stroke-linejoin="round" d="&#13;&#10;&#9;&#9;M75.6,87.8l1.1,0"/>
    </g>
    <path id="ID0.48627097019925714_21_" fill="#518943" stroke="#426C36" stroke-width="1.4" stroke-linecap="round" stroke-linejoin="round" d="&#13;&#10;&#9;M52.7,92.3c4.6-0.4,22.6-11.3,6.4-21.4c0,0,12.8,9.2-6.2,18.4"/>
    <path id="ID0.07006075512617826_21_" fill="#518943" stroke="#426C36" stroke-width="1.4" stroke-linecap="round" stroke-linejoin="round" d="&#13;&#10;&#9;M74.8,90.1c3.5-4.5,6.2-10-4.1-15.8c0,0,9.1,6.7,2.6,14"/>
    <path id="ID0.1790580078959465_21_" fill="#FAA51F" stroke="#8E5322" stroke-width="1.4" stroke-linecap="round" stroke-linejoin="round" d="&#13;&#10;&#9;M56.6,81.9c5.9-0.2,7.9,3.7,7.3,5.3c-1.3,3.8-6.2,4.2-13.9,0"/>
    <path id="ID0.7947451807558537_21_" fill="#FAA51F" stroke="#8E5322" stroke-width="1.4" stroke-linecap="round" stroke-linejoin="round" d="&#13;&#10;&#9;M78.5,88.6c-2.7-2.2-4.8-0.5-6.2,1.4c-2.1,2.6,0.6,7.2,6.8,4.5"/>
    <g>
      <g id="Layer_2_43_">
        <path id="ID0.2591130444779992_21_" fill="#FAA51F" d="M81.6,31.2c-1.5-0.3-4.5-0.9-6.2-1c-4.6-0.4-9.1,0.8-9.1,0.8l-11.5-9.7&#13;&#10;&#9;&#9;&#9;l-0.1,18.4c0.7-0.7-11.6,11.1-6.2,22.8C54,74.4,67.9,81.1,86.4,79.7c18.5-1.3,24.1-11.2,23.5-16.8s-7.1-8.5-7.1-8.5s0.4-4.3-2-9.9&#13;&#10;&#9;&#9;&#9;c-1.5-3.4-7.1-8.7-7.1-8.7l-1.4-11.5l-8,6.1L81.6,31.2z" stroke-width="1"/>
        <path id="ID0.3588979784399271_21_" fill="#FFFFFF" d="M101.9,54.1l-2.1-2.3l-9.1,1.5c0,0-0.4,3.3-4.7,3.7&#13;&#10;&#9;&#9;&#9;c-4.3,0.4-11.1-2.1-11.1-2.1l-7.3,0.9c0,0-8-1.5-9.2,4.8C56.4,71.6,65,78,73.5,78.9c5.5,0.7,9,0.4,13,0.2&#13;&#10;&#9;&#9;&#9;c17.4-1,23.6-10.7,22.8-16.3c-0.5-5.6-6.9-8-6.9-8L101.9,54.1z" stroke-width="1"/>
        <path id="ID0.2727069961838424_21_" fill="none" stroke="#8E5322" stroke-width="1.4" stroke-linecap="round" stroke-linejoin="round" d="&#13;&#10;&#9;&#9;&#9;M106.2,60.1c0,0,4.4,0.7,6.7,0.6c2.8-0.1,4.9-1.1,4.9-1.1"/>
        <path id="ID0.5861211125738919_21_" fill="none" stroke="#8E5322" stroke-width="1.4" stroke-linecap="round" stroke-linejoin="round" d="&#13;&#10;&#9;&#9;&#9;M106,65.9c0,0,2.2,1.8,4.8,2.8c2.5,1.1,4.3,1.4,4.3,1.4"/>
        <path id="ID0.4793355236761272_21_" fill="none" stroke="#8E5322" stroke-width="1.4" stroke-linecap="round" stroke-linejoin="round" d="&#13;&#10;&#9;&#9;&#9;M64.2,29.2l4.7,4.2"/>
        <path id="ID0.48413723474368453_21_" fill="none" stroke="#8E5322" stroke-width="1.4" stroke-linecap="round" stroke-linejoin="round" d="&#13;&#10;&#9;&#9;&#9;M81.6,31.2c-1.5-0.3-4.5-0.9-6.2-1c-4.6-0.4-9.1,0.8-9.1,0.8l-11.5-9.7l-0.1,18.4c0.7-0.7-11.6,11.1-6.2,22.8&#13;&#10;&#9;&#9;&#9;C54,74.4,67.9,81.1,86.4,79.7c18.5-1.3,24.1-11.2,23.5-16.8s-7.1-8.5-7.1-8.5s0.4-4.3-2-9.9c-1.5-3.4-7.1-8.7-7.1-8.7l-1.4-11.5&#13;&#10;&#9;&#9;&#9;l-8,6.1L81.6,31.2z"/>
        <path id="ID0.9024141579866409_21_" fill="none" stroke="#8E5322" stroke-width="1.4" stroke-linecap="round" stroke-linejoin="round" d="&#13;&#10;&#9;&#9;&#9;M37.4,59.4c0,0,4,0,5.8-0.3c1.8-0.3,5.2-1.1,5.2-1.1"/>
        <path id="ID0.16030752705410123_21_" fill="none" stroke="#8E5322" stroke-width="1.4" stroke-linecap="round" stroke-linejoin="round" d="&#13;&#10;&#9;&#9;&#9;M49.1,54.3c-2.3-1.5-2.3-1.5-6.1-2.9c-4.1-1.5-6.3-1.8-6.3-1.8"/>
      </g>
      <g id="Layer_5_22_">
        <path id="ID0.40023312577977777_21_" fill="#FFFFFF" stroke="#8E5322" stroke-width="1.4" stroke-linecap="round" stroke-linejoin="round" d="&#13;&#10;&#9;&#9;&#9;M98.6,44.2c2.3,4.6,1.7,9.6-1.1,10.9c-2.9,1.5-7.1-1.2-9.4-5.9c-2.3-4.6-1.7-9.6,1.1-10.9C92.1,37,96.3,39.6,98.6,44.2z"/>
        <path id="ID0.43813491938635707_21_" fill="#414142" d="M98.1,47.8c0.2,1-0.4,2-1.5,2.1c-0.9,0.2-1.8-0.5-2-1.7&#13;&#10;&#9;&#9;&#9;c-0.2-1,0.4-2,1.5-2.1C97.1,46.1,97.9,46.8,98.1,47.8" stroke-width="1"/>
      </g>
      <g id="Layer_7_22_">
        <path id="ID0.4253597157076001_21_" fill="#FFFFFF" stroke="#8E5322" stroke-width="1.4" stroke-linecap="round" stroke-linejoin="round" d="&#13;&#10;&#9;&#9;&#9;M75.2,44.5c2.3,4.6,1.3,9.7-2.1,11.4c-3.4,1.7-8.1-0.7-10.3-5.4c-2.3-4.6-1.3-9.7,2.1-11.4C68.3,37.5,72.9,39.9,75.2,44.5z"/>
        <path id="ID0.814307457767427_21_" fill="#414142" d="M74.4,48.3c-0.1,1-1,1.8-1.9,1.7c-1-0.1-1.6-1-1.5-2.1c0.1-1,1-1.8,1.9-1.7&#13;&#10;&#9;&#9;&#9;C73.9,46.3,74.6,47.2,74.4,48.3" stroke-width="1"/>
      </g>
      <path id="ID0.5240494590252638_21_" fill="#5F4B43" stroke="#8E5322" stroke-width="1.4" stroke-linecap="round" stroke-linejoin="round" d="&#13;&#10;&#9;&#9;M84.9,55.6c1.7,0,4.2-1,4.2,0.9c-0.1,0.8-2.1,3.9-3.9,3.8c-2-0.1-5.2-3.1-4.9-4.5S83.4,55.7,84.9,55.6z"/>
      <path id="ID0.046259244438260794_21_" fill="#FFFFFF" stroke="#8E5322" stroke-width="1.4" stroke-linecap="round" stroke-linejoin="round" d="&#13;&#10;&#9;&#9;M74,69.8c0,0,2.2,2.6,7.7,2.2"/>
    </g>
    <g id="ID0.15723733883351088_24_">
      <path id="ID0.527006761636585_24_" fill="#FAA51F" stroke="#8E5322" stroke-width="1.4" stroke-linecap="round" stroke-linejoin="round" d="&#13;&#10;&#9;&#9;M62.7,97c0,0,5.3,1,6.4,1.8c-3.1,2.4-4.7-0.3-3.1,4.1c0.7,2,2.4,6.6,4.8,6.1c7.8-2.2-1.3-4.5,7.2-10.2c2.2-1.7,5.2-5.7-2.7-8&#13;&#10;&#9;&#9;c-0.4-0.1-7.2-1.2-7.6-1.3"/>
      <path id="ID0.8937406223267317_34_" fill="#FAA51F" stroke="#8E5322" stroke-width="1.4" stroke-linecap="round" stroke-linejoin="round" d="&#13;&#10;&#9;&#9;M76.4,100.3c-1,0.5-2.4,1.9-3.6,2.7"/>
      <path id="ID0.8937406223267317_33_" fill="#FAA51F" stroke="#8E5322" stroke-width="1.4" stroke-linecap="round" stroke-linejoin="round" d="&#13;&#10;&#9;&#9;M71.9,98.4c-0.5,0.2-2.9-0.2-4.2-0.2"/>
    </g>
  </g>
</svg>