<svg xmlns="http://www.w3.org/2000/svg" xmlns:xlink="http://www.w3.org/1999/xlink" version="1.1" id="Layer_1" x="0px" y="0px" width="90.20233001708985" height="92.67853393554688" viewBox="29.09766082763672 18.599999237060548 90.20233001708985 92.67853393554688" enable-background="new 0 0 128 128" xml:space="preserve">
  <g>
    <g id="ID0.15723733883351088_6_">
      <path id="ID0.527006761636585_6_" fill="#FAA51F" stroke="#8E5322" stroke-width="1.4" stroke-linecap="round" stroke-linejoin="round" d="&#13;&#10;&#9;&#9;M55.9,88.4c0,0-7,4.7-8.4,5.2c-1.1-1.8-2.4-2.2-4.3-1.3c-2,1-8.3,5.3-6.9,7.4c4.2,6.4,7.1-1.4,9.9,1.3c2,1.1,10.2-5.3,18.8-5.1"/>
      <path id="ID0.8937406223267317_10_" fill="#FAA51F" stroke="#8E5322" stroke-width="1.4" stroke-linecap="round" stroke-linejoin="round" d="&#13;&#10;&#9;&#9;M46,100.9c-1.1-1-1.7-2.5-1.7-2.5"/>
    </g>
    <path id="ID0.26344340899959207_4_" fill="#518943" stroke="#426C36" stroke-width="1.4" stroke-linecap="round" stroke-linejoin="round" d="&#13;&#10;&#9;M48.2,70.2c0,0-6.6,14.8-5.4,18.2c1.9,4.9,15.7,9.3,18.5,7.5c4.8-3.1,3.2-2.3,3.2-2.3L69.7,80L48.2,70.2z"/>
    <path id="ID0.2414738917723298_4_" fill="#FEFBDF" stroke="#70715E" stroke-width="1.4" stroke-linecap="round" stroke-linejoin="round" d="&#13;&#10;&#9;M54.6,59.6c1.4,0.4,2.4,1.6,2.9,3.1c0.5,1.5,0.6,3.5,0,5.4c-0.6,2-1.7,3.6-2.9,4.6c-1.3,1-2.8,1.4-4.1,1c-1.4-0.4-2.4-1.6-2.9-3.1&#13;&#10;&#9;c-0.5-1.5-0.6-3.5,0-5.4s1.7-3.6,2.9-4.6C51.7,59.6,53.2,59.2,54.6,59.6z"/>
    <path id="ID0.6192030962556601_4_" fill="#FEFBDF" stroke="#70715E" stroke-width="1.4" stroke-linecap="round" stroke-linejoin="round" d="&#13;&#10;&#9;M53.7,62.8c0.7,0.2,1.3,0.9,1.6,1.7c0.3,0.9,0.3,1.9,0,3c-0.3,1.1-0.9,2-1.6,2.5c-0.7,0.6-1.5,0.8-2.2,0.6s-1.3-0.9-1.6-1.7&#13;&#10;&#9;c-0.3-0.9-0.3-1.9,0-3c0.3-1.1,0.9-2,1.6-2.5C52.1,62.8,52.9,62.5,53.7,62.8z"/>
    <path id="ID0.15330331353470683_4_" fill="#518943" stroke="#426C36" stroke-width="1.4" stroke-linecap="round" stroke-linejoin="round" d="&#13;&#10;&#9;M50.4,91.4l2.6-7.2l-5.9-3.1c0,0-2.3,5.5-1.6,6.6C46.2,88.7,50.4,91.4,50.4,91.4z"/>
    <g id="Layer_3_5_">
      <path id="ID0.8535828334279358_4_" fill="#FAA51F" d="M52.6,90.6c-2.5,0-5.5-0.3-8.3-2.2c-6.3-4-9.5-11.9-13-9.1&#13;&#10;&#9;&#9;c-3.5,2.8-1,16.1,11.8,18c4.4,0.7,8.3,0,11.3-0.6c0.8-0.1,7.6-2.1,9.3-6s-0.1-4.4-1-4.8C61.8,85.7,56.2,90.7,52.6,90.6z" stroke-width="1"/>
      <path id="ID0.914295740891248_4_" fill="#FFFFFF" d="M31.4,79.2c-1.8,1-2.2,6.1-0.6,9.4c1.7,3.3,4,5.1,5.4,6.3&#13;&#10;&#9;&#9;c1.8,0.8-1.2-2.8,0.5-5c1.8-2.2,6-2.3,6-2.3s-3.9-3.7-6-5.9C34.9,79.7,33.4,78.4,31.4,79.2z" stroke-width="1"/>
      <path id="ID0.40227043256163597_4_" fill="none" stroke="#8E5322" stroke-width="1.4" stroke-linecap="round" stroke-linejoin="round" d="&#13;&#10;&#9;&#9;M52.6,90.6c-2.5,0-5.5-0.3-8.3-2.2c-6.3-4-9.5-11.9-13-9.1c-3.5,2.8-1,16.1,11.8,18c4.4,0.7,8.3,0,11.3-0.6c0.8-0.1,7.6-2.1,9.3-6&#13;&#10;&#9;&#9;s-0.1-4.4-1-4.8C61.8,85.7,56.2,90.7,52.6,90.6z"/>
    </g>
    <g id="Layer_2_14_">
      <path id="ID0.39854341372847557_4_" fill="#FAA51F" stroke="#8E5322" stroke-width="1.4" stroke-linecap="round" stroke-linejoin="round" d="&#13;&#10;&#9;&#9;M64.5,88.6"/>
    </g>
    <path id="ID0.46792364912107587_4_" fill="#FAA51F" stroke="#8E5322" stroke-width="1.4" stroke-linecap="round" stroke-linejoin="round" d="&#13;&#10;&#9;M76.6,82.9c-1.9,6.4-3,16.3-14.4,13s-7.8-11.7-5.9-18.1s6.3-7,12.8-5.1C75.4,74.6,78.5,76.5,76.6,82.9z"/>
    <path id="ID0.38032895559445024_4_" fill="#FFFFFF" d="M78.6,85.7c-1.2,4-0.4,5.2-6.6,3.4c-6.1-1.8-5.7-2-4.5-6.1&#13;&#10;&#9;c1.2-4,3.6-4.6,7.2-3.5C78.2,80.6,79.8,81.7,78.6,85.7z" stroke-width="1"/>
    <g id="ID0.7407716196030378_4_">
      <path id="ID0.15909873321652412_4_" fill="#FAA51F" stroke="#8E5322" stroke-width="1.4" stroke-linecap="round" stroke-linejoin="round" d="&#13;&#10;&#9;&#9;M51,86.1c-3.3-3.4,3.3-12.6,11.3-15.9l7.2,3.6"/>
      <path id="ID0.8024068027734756_4_" fill="#FAA51F" stroke="#8E5322" stroke-width="1.4" stroke-linecap="round" stroke-linejoin="round" d="&#13;&#10;&#9;&#9;M58.7,81.5"/>
      <path id="ID0.06734407460317016_4_" fill="none" stroke="#8E5322" stroke-width="1.4" stroke-linecap="round" stroke-linejoin="round" d="&#13;&#10;&#9;&#9;M62.2,80.7"/>
      <path id="ID0.8143284288235009_4_" fill="#FAA51F" stroke="#8E5322" stroke-width="1.4" stroke-linecap="round" stroke-linejoin="round" d="&#13;&#10;&#9;&#9;M58.7,81.5l3.7-3.2"/>
      <path id="ID0.6682511982508004_4_" fill="none" stroke="#8E5322" stroke-width="1.4" stroke-linecap="round" stroke-linejoin="round" d="&#13;&#10;&#9;&#9;M58.7,81.5l-1.1-0.6"/>
    </g>
    <g id="ID0.32291418174281716_4_">
      <path id="ID0.30105241015553474_4_" fill="#FAA51F" stroke="#8E5322" stroke-width="1.4" stroke-linecap="round" stroke-linejoin="round" d="&#13;&#10;&#9;&#9;M80.1,93.5c6.1-2.3,3.5-12.2-0.9-16.4l-4.2-0.5"/>
      <path id="ID0.3822403196245432_4_" fill="#FAA51F" stroke="#8E5322" stroke-width="1.4" stroke-linecap="round" stroke-linejoin="round" d="&#13;&#10;&#9;&#9;M76.6,86.8"/>
      <path id="ID0.5879319808445871_4_" fill="none" stroke="#8E5322" stroke-width="1.4" stroke-linecap="round" stroke-linejoin="round" d="&#13;&#10;&#9;&#9;M74.6,84.6"/>
      <path id="ID0.7841392233967781_4_" fill="#FAA51F" stroke="#8E5322" stroke-width="1.4" stroke-linecap="round" stroke-linejoin="round" d="&#13;&#10;&#9;&#9;M76.6,86.8l0-3.9"/>
      <path id="ID0.4326359131373465_4_" fill="none" stroke="#8E5322" stroke-width="1.4" stroke-linecap="round" stroke-linejoin="round" d="&#13;&#10;&#9;&#9;M76.6,86.8l1.1,0"/>
    </g>
    <path id="ID0.48627097019925714_4_" fill="#518943" stroke="#426C36" stroke-width="1.4" stroke-linecap="round" stroke-linejoin="round" d="&#13;&#10;&#9;M53.7,91.3C58.3,90.9,76.3,80,60,69.9c0,0,12.8,9.2-6.2,18.4"/>
    <path id="ID0.07006075512617826_4_" fill="#518943" stroke="#426C36" stroke-width="1.4" stroke-linecap="round" stroke-linejoin="round" d="&#13;&#10;&#9;M75.8,89.1c3.5-4.5,6.2-10-4.1-15.8c0,0,9.1,6.7,2.6,14"/>
    <g>
      <g id="Layer_2_13_">
        <path id="ID0.2591130444779992_8_" fill="#FAA51F" d="M82.5,29.2c-1.5-0.3-4.5-0.9-6.2-1c-4.6-0.4-9.1,0.8-9.1,0.8l-11.5-9.7&#13;&#10;&#9;&#9;&#9;l-0.1,18.4c0.7-0.7-11.6,11.1-6.2,22.8C55,72.4,68.8,79.1,87.4,77.7c18.5-1.3,24.1-11.2,23.5-16.8c-0.5-5.6-7.1-8.5-7.1-8.5&#13;&#10;&#9;&#9;&#9;s0.4-4.3-2-9.9c-1.5-3.4-7.1-8.7-7.1-8.7l-1.4-11.5l-8,6.1L82.5,29.2z" stroke-width="1"/>
        <path id="ID0.3588979784399271_8_" fill="#FFFFFF" d="M102.9,52.1l-2.1-2.3l-9.1,1.5c0,0-0.4,3.3-4.7,3.7&#13;&#10;&#9;&#9;&#9;c-4.3,0.4-11.1-2.1-11.1-2.1l-7.3,0.9c0,0-8-1.5-9.2,4.8c-2,10.9,6.5,17.3,15,18.3c5.5,0.7,9,0.4,13,0.2&#13;&#10;&#9;&#9;&#9;c17.5-1,23.6-10.7,22.8-16.3c-0.5-5.6-6.9-8-6.9-8L102.9,52.1z" stroke-width="1"/>
        <path id="ID0.2727069961838424_8_" fill="none" stroke="#8E5322" stroke-width="1.4" stroke-linecap="round" stroke-linejoin="round" d="&#13;&#10;&#9;&#9;&#9;M107.2,58.1c0,0,4.5-0.2,6.7-0.7c2.7-0.6,4.7-1.9,4.7-1.9"/>
        <path id="ID0.5861211125738919_8_" fill="none" stroke="#8E5322" stroke-width="1.4" stroke-linecap="round" stroke-linejoin="round" d="&#13;&#10;&#9;&#9;&#9;M107,63.9c0,0,2.4,1.4,5.2,2c2.6,0.6,4.5,0.6,4.5,0.6"/>
        <path id="ID0.4793355236761272_8_" fill="none" stroke="#8E5322" stroke-width="1.4" stroke-linecap="round" stroke-linejoin="round" d="&#13;&#10;&#9;&#9;&#9;M65.2,27.2l4.7,4.2"/>
        <path id="ID0.48413723474368453_8_" fill="none" stroke="#8E5322" stroke-width="1.4" stroke-linecap="round" stroke-linejoin="round" d="&#13;&#10;&#9;&#9;&#9;M82.5,29.2c-1.5-0.3-4.5-0.9-6.2-1c-4.6-0.4-9.1,0.8-9.1,0.8l-11.5-9.7l-0.1,18.4c0.7-0.7-11.6,11.1-6.2,22.8&#13;&#10;&#9;&#9;&#9;C55,72.4,68.8,79.1,87.4,77.7c18.5-1.3,24.1-11.2,23.5-16.8c-0.5-5.6-7.1-8.5-7.1-8.5s0.4-4.3-2-9.9c-1.5-3.4-7.1-8.7-7.1-8.7&#13;&#10;&#9;&#9;&#9;l-1.4-11.5l-8,6.1L82.5,29.2z"/>
        <path id="ID0.9024141579866409_8_" fill="none" stroke="#8E5322" stroke-width="1.4" stroke-linecap="round" stroke-linejoin="round" d="&#13;&#10;&#9;&#9;&#9;M38.4,55c0,0,3.9,0.9,5.7,1c1.8,0.1,5.3,0.1,5.3,0.1"/>
        <path id="ID0.16030752705410123_8_" fill="none" stroke="#8E5322" stroke-width="1.4" stroke-linecap="round" stroke-linejoin="round" d="&#13;&#10;&#9;&#9;&#9;M50.1,52.3c0,0-2.1-2-5.5-4c-3.7-2.3-5.9-2.9-5.9-2.9"/>
      </g>
      <g id="Layer_5_9_">
        <path id="ID0.40023312577977777_8_" fill="#FFFFFF" stroke="#8E5322" stroke-width="1.4" stroke-linecap="round" stroke-linejoin="round" d="&#13;&#10;&#9;&#9;&#9;M99.6,42.2c2.3,4.6,1.7,9.6-1.1,10.9c-2.9,1.5-7.1-1.2-9.4-5.9c-2.3-4.6-1.7-9.6,1.1-10.9C93.1,35,97.3,37.6,99.6,42.2z"/>
        <path id="ID0.43813491938635707_8_" fill="#414142" d="M99,45.8c0.2,1-0.4,2-1.5,2.1c-0.9,0.2-1.8-0.5-2-1.7c-0.2-1,0.4-2,1.5-2.1&#13;&#10;&#9;&#9;&#9;C98,44.1,98.9,44.8,99,45.8" stroke-width="1"/>
      </g>
      <g id="Layer_7_9_">
        <path id="ID0.4253597157076001_8_" fill="#FFFFFF" stroke="#8E5322" stroke-width="1.4" stroke-linecap="round" stroke-linejoin="round" d="&#13;&#10;&#9;&#9;&#9;M76.2,42.5c2.3,4.6,1.3,9.7-2.1,11.4c-3.4,1.7-8.1-0.7-10.3-5.4c-2.3-4.6-1.3-9.7,2.1-11.4C69.3,35.5,73.9,37.9,76.2,42.5z"/>
        <path id="ID0.814307457767427_8_" fill="#414142" d="M75.4,46.3c-0.1,1-1,1.8-1.9,1.7c-1-0.1-1.6-1-1.5-2.1c0.1-1,1-1.8,1.9-1.7&#13;&#10;&#9;&#9;&#9;C74.8,44.3,75.5,45.2,75.4,46.3" stroke-width="1"/>
      </g>
      <path id="ID0.5240494590252638_8_" fill="#5F4B43" stroke="#8E5322" stroke-width="1.4" stroke-linecap="round" stroke-linejoin="round" d="&#13;&#10;&#9;&#9;M85.9,53.7c1.7,0,4.2-1,4.2,0.9c-0.1,0.8-2.1,3.9-3.9,3.8c-2-0.1-5.2-3.1-4.9-4.5C81.6,52.3,84.4,53.7,85.9,53.7z"/>
      <path id="ID0.046259244438260794_8_" fill="#FFFFFF" stroke="#8E5322" stroke-width="1.4" stroke-linecap="round" stroke-linejoin="round" d="&#13;&#10;&#9;&#9;M75,67.8c0,0,2.2,2.6,7.7,2.2"/>
    </g>
    <path id="ID0.1790580078959465_4_" fill="#FAA51F" stroke="#8E5322" stroke-width="1.4" stroke-linecap="round" stroke-linejoin="round" d="&#13;&#10;&#9;M57.6,80.9c5.9-0.2,7.9,3.7,7.3,5.3c-1.3,3.8-6.2,4.2-13.9,0"/>
    <path id="ID0.7947451807558537_4_" fill="#FAA51F" stroke="#8E5322" stroke-width="1.4" stroke-linecap="round" stroke-linejoin="round" d="&#13;&#10;&#9;M79.5,87.6c-2.3-1.9-4.1-0.9-5.5,0.6c-0.2,0.3,1,0.9,0.8,1.2c1.2,2-0.9,6.8,5.3,4.1"/>
    <g id="ID0.16171270422637463_4_">
      <path id="ID0.007584026083350182_4_" fill="#FAA51F" stroke="#8E5322" stroke-width="1.4" stroke-linecap="round" stroke-linejoin="round" d="&#13;&#10;&#9;&#9;M74.3,88.6c0,0,3.3,6.3,9.6,12.5c2.7,2.7,5.3-5.2,9.7,0.8c1.2,1.7-5.9,7.5-8,8.3c-1.9,0.7-2.7,0.5-3.8-1.2&#13;&#10;&#9;&#9;c-3.9-6.3-15.2-12.3-15.2-12.3"/>
      <path id="ID0.31672530295327306_4_" fill="#FAA51F" stroke="#8E5322" stroke-width="1.4" stroke-linecap="round" stroke-linejoin="round" d="&#13;&#10;&#9;&#9;M86.6,101.1c0,0-1.1,0.7-2.1,1.9"/>
    </g>
  </g>
</svg>