<svg version="1.1" xmlns="http://www.w3.org/2000/svg" xmlns:xlink="http://www.w3.org/1999/xlink" width="81.9" height="96.44083" viewBox="0,0,81.9,96.44083"><g transform="translate(-212.05,-135.95)"><g data-paper-data="{&quot;isPaintingLayer&quot;:true}" fill="none" fill-rule="nonzero" stroke="none" stroke-width="none" stroke-linecap="none" stroke-linejoin="none" stroke-miterlimit="10" stroke-dasharray="" stroke-dashoffset="0" font-family="none" font-weight="none" font-size="none" text-anchor="none" style="mix-blend-mode: normal"><g data-paper-data="{&quot;index&quot;:null,&quot;origPos&quot;:null}" id="Layer_3_1_"><path d="M266.95,206.45c2.3,-1 4.9,-2.5 6.8,-5.3c4.2,-6.2 4,-14.7 8.3,-13.5c4.3,1.2 7.3,14.4 -3.7,21.2c-3.8,2.4 -7.6,3.3 -10.6,3.9c-0.8,0.2 -7.8,1.1 -10.9,-1.8c-3.1,-2.9 -1.7,-4.1 -1,-4.8c0.7,-0.6 7.9,1.8 11.1,0.3z" id="ID0.8535828334279358_1_" fill="#faa51f" stroke="none" stroke-width="1" stroke-linecap="butt" stroke-linejoin="miter"/><path d="M281.85,187.55c2.1,0.2 4.4,4.7 4.3,8.4c-0.2,3.7 -1.6,6.3 -2.5,7.9c-1.3,1.4 0,-3.1 -2.5,-4.4c-2.5,-1.3 -6.4,0.3 -6.4,0.3c0,0 2.1,-5 3.2,-7.8c0.9,-2.6 1.7,-4.4 3.9,-4.4z" id="ID0.914295740891248_1_" fill="#ffffff" stroke="none" stroke-width="1" stroke-linecap="butt" stroke-linejoin="miter"/><path d="M266.95,206.45c2.3,-1 4.9,-2.5 6.8,-5.3c4.2,-6.2 4,-14.7 8.3,-13.5c4.3,1.2 7.3,14.4 -3.7,21.2c-3.8,2.4 -7.6,3.3 -10.6,3.9c-0.8,0.2 -7.8,1.1 -10.9,-1.8c-3.1,-2.9 -1.7,-4.1 -1,-4.8c0.7,-0.6 7.9,1.8 11.1,0.3z" id="ID0.40227043256163597_1_" fill="none" stroke="#8e5322" stroke-width="1.4" stroke-linecap="round" stroke-linejoin="round"/></g><path d="M272.55,193.55c0,0 2.2,16.1 0,19c-3.2,4.2 -17.7,4.5 -19.9,2c-3.7,-4.3 -2.4,-3.1 -2.4,-3.1l-1,-14.6z" data-paper-data="{&quot;index&quot;:null,&quot;origPos&quot;:null}" id="ID0.26344340899959207_1_" fill="#518943" stroke="#426c36" stroke-width="1.4" stroke-linecap="round" stroke-linejoin="round"/><path d="M273.15,183.75c0.9,1.3 1.5,3.2 1.5,5.2c0,2 -0.6,3.9 -1.5,5.2c-1,1.4 -2.2,2.2 -3.7,2.2c-1.5,0 -2.8,-0.9 -3.7,-2.2c-0.9,-1.3 -1.5,-3.2 -1.5,-5.2c0,-2 0.6,-3.9 1.5,-5.2c1,-1.4 2.3,-2.2 3.7,-2.2c1.4,0 2.7,0.8 3.7,2.2z" data-paper-data="{&quot;index&quot;:null,&quot;origPos&quot;:null}" id="ID0.2414738917723298_1_" fill="#fefbdf" stroke="#70715e" stroke-width="1.4" stroke-linecap="round" stroke-linejoin="round"/><path d="M271.45,186.05c0.5,0.7 0.8,1.8 0.8,2.9c0,1.1 -0.3,2.2 -0.8,2.9c-0.5,0.7 -1.2,1.2 -2,1.2c-0.8,0 -1.5,-0.5 -2,-1.2c-0.5,-0.7 -0.8,-1.8 -0.8,-2.9c0,-1.1 0.3,-2.2 0.8,-2.9c0.5,-0.7 1.2,-1.2 2,-1.2c0.7,0 1.4,0.4 2,1.2z" data-paper-data="{&quot;index&quot;:null,&quot;origPos&quot;:null}" id="ID0.6192030962556601_1_" fill="#fefbdf" stroke="#70715e" stroke-width="1.4" stroke-linecap="round" stroke-linejoin="round"/><path d="M264.55,213.25l-0.5,-7.7l6.5,-1.3c0,0 0.7,5.9 -0.3,6.8c-0.9,0.8 -5.7,2.2 -5.7,2.2z" data-paper-data="{&quot;index&quot;:null,&quot;origPos&quot;:null}" id="ID0.15330331353470683_1_" fill="#518943" stroke="#426c36" stroke-width="1.4" stroke-linecap="round" stroke-linejoin="round"/><g data-paper-data="{&quot;index&quot;:null,&quot;origPos&quot;:null}" id="ID0.2669722530990839"><g id="ID0.16171270422637463_1_" fill="#faa51f" stroke="#8e5322" stroke-width="1.4" stroke-linecap="round" stroke-linejoin="round"><path d="M252.75,211.85c0,0 -3.7,8.4 -2.6,15.7c0.3,2 -0.2,2.7 -2.1,3.4c-2.1,0.8 -11.3,1 -11.5,-1.1c-0.5,-7.4 6.6,-3.1 6.9,-6.9c0.8,-8.8 -0.9,-14.3 -0.9,-14.3" id="ID0.007584026083350182_1_"/><path d="M241.45,224.75c0,0 1.3,-0.2 2.8,0.1" id="ID0.31672530295327306_1_"/></g><g id="Layer_2_2_" fill="#faa51f" stroke="#8e5322" stroke-width="1.4" stroke-linecap="round" stroke-linejoin="round"><path d="M251.75,206.55" id="ID0.39854341372847557_1_"/></g><path d="M251.95,190.05c6.7,0 10.8,1.8 10.8,8.5c0,6.7 1.1,15.7 -10.8,15.7c-11.9,0 -10.2,-9.8 -10.2,-16.5c0,-6.7 3.5,-7.7 10.2,-7.7z" id="ID0.46792364912107587_1_" fill="#faa51f" stroke="#8e5322" stroke-width="1.4" stroke-linecap="round" stroke-linejoin="round"/><path d="M249.85,195.85c3.7,0 5.9,1.2 5.9,5.4c0,4.2 0.5,9.9 -5.9,9.9c-6.4,0 -5.5,-6.3 -5.5,-10.5c0,-4.2 1.8,-4.8 5.5,-4.8z" id="ID0.38032895559445024_1_" fill="#ffffff" stroke="none" stroke-width="1" stroke-linecap="butt" stroke-linejoin="miter"/><g id="ID0.15723733883351088_3_" fill="#faa51f" stroke="#8e5322" stroke-width="1.4" stroke-linecap="round" stroke-linejoin="round"><path d="M261.95,208.65c0,0 -2.6,5.5 -1.3,14.2c0.6,3.8 6.2,-0.9 5.8,6.7c-0.1,2.5 -7.7,2.3 -9.9,1.9c-2.1,-0.4 -2.9,-1.5 -2.7,-3.6c0.3,-4.2 -1.2,-13.3 -1.2,-13.3" id="ID0.527006761636585_3_"/><path d="M260.05,224.85c1.4,-0.4 3,-0.2 3,-0.2" id="ID0.8937406223267317_3_"/></g><g id="ID0.7407716196030378_1_" stroke="#8e5322" stroke-width="1.4" stroke-linecap="round" stroke-linejoin="round"><path d="M254.15,190.95l7.9,-1.4c6.8,5.4 10.5,16.1 6.4,18.4" id="ID0.15909873321652412_1_" fill="#faa51f"/><path d="M262.35,201.45" id="ID0.8024068027734756_1_" fill="#faa51f"/><path d="M259.25,199.65" id="ID0.06734407460317016_1_" fill="none"/><path d="M259.65,197.35l2.7,4.1" id="ID0.8143284288235009_1_" fill="#faa51f"/><path d="M263.55,201.15l-1.2,0.3" id="ID0.6682511982508004_1_" fill="none"/></g><g id="ID0.32291418174281716_1_" stroke="#8e5322" stroke-width="1.4" stroke-linecap="round" stroke-linejoin="round"><path d="M235.45,206.95c-5.2,-3.9 0.1,-12.7 5.5,-15.5l4.2,0.7" id="ID0.30105241015553474_1_" fill="#faa51f"/><path d="M240.65,201.45" id="ID0.3822403196245432_1_" fill="#faa51f"/><path d="M243.25,199.95" id="ID0.5879319808445871_1_" fill="none"/><path d="M240.65,201.45l1.1,-3.7" id="ID0.7841392233967781_1_" fill="#faa51f"/><path d="M240.65,201.45l-1.1,-0.3" id="ID0.4326359131373465_1_" fill="none"/></g><path d="M261.85,214.15c-4.3,-1.7 -18.5,-17.2 -0.1,-22.3c0,0 -14.9,5.2 0.8,19.4" id="ID0.48627097019925714_1_" fill="#518943" stroke="#426c36" stroke-width="1.4" stroke-linecap="round" stroke-linejoin="round"/><path d="M240.25,205.85c-2.1,-5.3 -3.1,-11.3 8.4,-14c0,0 -10.6,3.9 -6.4,12.7" id="ID0.07006075512617826_1_" fill="#518943" stroke="#426c36" stroke-width="1.4" stroke-linecap="round" stroke-linejoin="round"/><g id="Layer_2_1_"><path d="M251.75,144.85c1.5,-0.1 4.6,-0.3 6.3,-0.2c4.6,0.2 8.9,1.9 8.9,1.9l12.6,-8.2l-2.2,18.3c-0.6,-0.8 10.2,12.4 3.4,23.4c-6.9,11.1 -21.5,16 -39.7,12.4c-18.2,-3.6 -22.5,-14.1 -21.3,-19.6c1.2,-5.5 8.1,-7.6 8.1,-7.6c0,0 0.1,-4.3 3.2,-9.6c1.9,-3.2 8.1,-7.8 8.1,-7.8l2.8,-11.2l7.2,7z" id="ID0.2591130444779992_1_" fill="#faa51f" stroke="none" stroke-width="1" stroke-linecap="butt" stroke-linejoin="miter"/><path d="M228.75,165.15l2.4,-2l8.8,2.6c0,0 0,3.3 4.2,4.2c4.2,0.9 11.3,-0.7 11.3,-0.7l7.1,1.8c0,0 8.1,-0.5 8.5,5.9c0.7,11.1 -8.6,16.4 -17.1,16.3c-5.5,0 -9,-0.7 -12.9,-1.4c-17.2,-3.1 -22.1,-13.5 -20.6,-19c1.2,-5.5 7.8,-7.1 7.8,-7.1z" id="ID0.3588979784399271_1_" fill="#ffffff" stroke="none" stroke-width="1" stroke-linecap="butt" stroke-linejoin="miter"/><path d="M223.75,170.55c0,0 -4.4,-0.7 -6.6,-1.5c-2.6,-0.9 -4.4,-2.5 -4.4,-2.5" id="ID0.2727069961838424_1_" fill="none" stroke="#8e5322" stroke-width="1.4" stroke-linecap="round" stroke-linejoin="round"/><path d="M223.25,176.35c0,0 -2.6,1.1 -5.4,1.3c-2.7,0.3 -4.5,0.1 -4.5,0.1" id="ID0.5861211125738919_1_" fill="none" stroke="#8e5322" stroke-width="1.4" stroke-linecap="round" stroke-linejoin="round"/><path d="M269.25,145.05l-5.2,3.6" id="ID0.4793355236761272_1_" fill="none" stroke="#8e5322" stroke-width="1.4" stroke-linecap="round" stroke-linejoin="round"/><path d="M251.75,144.85c1.5,-0.1 4.6,-0.3 6.3,-0.2c4.6,0.2 8.9,1.9 8.9,1.9l12.6,-8.2l-2.2,18.3c-0.6,-0.8 10.2,12.4 3.4,23.4c-6.9,11.1 -21.5,16 -39.7,12.4c-18.2,-3.6 -22.5,-14.1 -21.3,-19.6c1.2,-5.5 8.1,-7.6 8.1,-7.6c0,0 0.1,-4.3 3.2,-9.6c1.9,-3.2 8.1,-7.8 8.1,-7.8l2.8,-11.2l7.2,7z" id="ID0.48413723474368453_1_" fill="none" stroke="#8e5322" stroke-width="1.4" stroke-linecap="round" stroke-linejoin="round"/><path d="M292.45,175.85c0,0 -4,0.4 -5.8,0.3c-1.8,-0.1 -5.3,-0.6 -5.3,-0.6" id="ID0.9024141579866409_1_" fill="none" stroke="#8e5322" stroke-width="1.4" stroke-linecap="round" stroke-linejoin="round"/><path d="M281.15,171.75c0,0 2.3,-1.7 5.9,-3.3c4,-1.8 6.2,-2.2 6.2,-2.2" id="ID0.16030752705410123_1_" fill="none" stroke="#8e5322" stroke-width="1.4" stroke-linecap="round" stroke-linejoin="round"/></g><g id="Layer_5_1_"><path d="M243.25,151.05c2.7,1.7 2.6,6.7 -0.2,11c-2.8,4.4 -7.3,6.5 -10,4.7c-2.7,-1.7 -2.6,-6.7 0.2,-11c2.8,-4.3 7.3,-6.4 10,-4.7z" id="ID0.40023312577977777_1_" fill="#ffffff" stroke="#8e5322" stroke-width="1.4" stroke-linecap="round" stroke-linejoin="round"/><path d="M233.35,159.35c0.3,-1 1.2,-1.6 2.2,-1.4c1,0.3 1.5,1.3 1.2,2.3c-0.3,1.1 -1.3,1.7 -2.2,1.4c-1,-0.3 -1.5,-1.3 -1.2,-2.3" id="ID0.43813491938635707_1_" fill="#414142" stroke="none" stroke-width="1" stroke-linecap="butt" stroke-linejoin="miter"/></g><g id="Layer_7_1_"><path d="M267.35,154.75c3.2,2.1 3.5,7.3 0.7,11.6c-2.8,4.4 -7.7,6.2 -10.9,4.1c-3.2,-2.1 -3.5,-7.3 -0.7,-11.6c2.8,-4.3 7.7,-6.1 10.9,-4.1z" id="ID0.4253597157076001_1_" fill="#ffffff" stroke="#8e5322" stroke-width="1.4" stroke-linecap="round" stroke-linejoin="round"/><path d="M256.75,162.75c0,-1.1 0.8,-1.9 1.7,-1.9c0.9,0 1.7,0.9 1.7,1.9c0,1.1 -0.7,1.9 -1.7,1.9c-0.9,0 -1.7,-0.9 -1.7,-1.9" id="ID0.814307457767427_1_" fill="#414142" stroke="none" stroke-width="1" stroke-linecap="butt" stroke-linejoin="miter"/></g><path d="M249.95,169.45c0.1,1.5 -3.4,4 -5.4,3.9c-1.8,-0.1 -3.4,-3.4 -3.4,-4.2c0.3,-1.9 2.6,-0.6 4.3,-0.4c1.5,0.2 4.4,-0.8 4.5,0.7z" id="ID0.5240494590252638_1_" fill="#5f4b43" stroke="#8e5322" stroke-width="1.4" stroke-linecap="round" stroke-linejoin="round"/><path d="M254.55,184.15c0,0 -2.5,2.3 -7.9,1.2" id="ID0.046259244438260794_1_" fill="#ffffff" stroke="#8e5322" stroke-width="1.4" stroke-linecap="round" stroke-linejoin="round"/><path d="M268.35,208.05c-8.5,1.9 -13.1,0.1 -13.3,-3.9c-0.1,-1.7 2.9,-4.8 8.5,-3" id="ID0.1790580078959465_1_" fill="#faa51f" stroke="#8e5322" stroke-width="1.4" stroke-linecap="round" stroke-linejoin="round"/></g><path d="M237.65,201.45c3.2,-1.4 4.7,0.9 5.6,3.1c1.3,3.1 -2.6,6.7 -7.8,2.4" data-paper-data="{&quot;index&quot;:null,&quot;origPos&quot;:null}" id="ID0.7947451807558537_1_" fill="#faa51f" stroke="#8e5322" stroke-width="1.4" stroke-linecap="round" stroke-linejoin="round"/></g></g></svg>