<svg version="1.1" xmlns="http://www.w3.org/2000/svg" xmlns:xlink="http://www.w3.org/1999/xlink" width="89.77442" height="94.1" viewBox="0,0,89.77442,94.1"><g transform="translate(-203.54056,-137.6)"><g data-paper-data="{&quot;isPaintingLayer&quot;:true}" fill="none" fill-rule="nonzero" stroke="none" stroke-width="none" stroke-linecap="none" stroke-linejoin="none" stroke-miterlimit="10" stroke-dasharray="" stroke-dashoffset="0" font-family="none" font-weight="none" font-size="none" text-anchor="none" style="mix-blend-mode: normal"><g data-paper-data="{&quot;index&quot;:null}" id="ID0.15723733883351088_20_" fill="#faa51f" stroke="#8e5322" stroke-width="1.4" stroke-linecap="round" stroke-linejoin="round"><path d="M264.44056,214.3c0,0 -4.1,2.9 -6,3.2c2.7,-0.3 4.8,-1.2 4.6,3.5c-0.1,2.1 -0.3,7 -2.8,7.2c-8.1,0.2 -0.1,-4.6 -9.9,-7.6c-2.8,-1 -7.1,-4.1 1.3,-9.1" id="ID0.527006761636585_20_"/><path d="M251.24056,220.7c1.1,0.4 2.7,1.4 4,2.1" id="ID0.8937406223267317_28_"/><path d="M259.44056,217.2c-1.3,0.2 -3.5,1 -4.1,0.9" id="ID0.8937406223267317_27_"/></g><g data-paper-data="{&quot;index&quot;:null}" id="Layer_3_24_"><path d="M271.34056,212.7c2.5,-0.4 5.3,-1.3 7.8,-3.6c5.5,-5.1 7.3,-13.4 11.2,-11.2c3.9,2.2 3.8,15.7 -8.5,19.8c-4.3,1.5 -8.2,1.5 -11.2,1.3c-0.8,0 -7.8,-0.7 -10.2,-4.3c-2.3,-3.5 -0.7,-4.4 0.1,-4.9c0.9,-0.4 7.3,3.6 10.8,2.9z" id="ID0.8535828334279358_23_" fill="#faa51f" stroke="none" stroke-width="1" stroke-linecap="butt" stroke-linejoin="miter"/><path d="M290.14056,197.8c2,0.7 3.2,5.6 2.2,9.2c-1.1,3.6 -3,5.8 -4.3,7.1c-1.6,1.1 0.7,-3 -1.4,-4.9c-2.1,-1.8 -6.3,-1.2 -6.3,-1.2c0,0 3.2,-4.4 4.9,-6.8c1.6,-2.4 2.8,-4 4.9,-3.4z" id="ID0.914295740891248_23_" fill="#ffffff" stroke="none" stroke-width="1" stroke-linecap="butt" stroke-linejoin="miter"/><path d="M271.34056,212.7c2.5,-0.4 5.3,-1.3 7.8,-3.6c5.5,-5.1 7.3,-13.4 11.2,-11.2c3.9,2.2 3.8,15.7 -8.5,19.8c-4.3,1.5 -8.2,1.5 -11.2,1.3c-0.8,0 -7.8,-0.7 -10.2,-4.3c-2.3,-3.5 -0.7,-4.4 0.1,-4.9c0.9,-0.4 7.3,3.6 10.8,2.9z" id="ID0.40227043256163597_23_" fill="none" stroke="#8e5322" stroke-width="1.4" stroke-linecap="round" stroke-linejoin="round"/></g><g data-paper-data="{&quot;index&quot;:null}" stroke-width="1.4" stroke-linecap="round" stroke-linejoin="round"><path d="M273.44056,187.3c0,0 6.6,14.8 5.4,18.2c-1.9,4.9 -15.7,9.3 -18.5,7.5c-4.8,-3.1 -3.2,-2.3 -3.2,-2.3l-5.1,-13.7z" id="ID0.26344340899959207_23_" fill="#518943" stroke="#426c36"/><path d="M271.24056,177.7c1.2,1 2.3,2.6 2.9,4.6c0.6,1.9 0.5,3.9 0,5.4c-0.5,1.5 -1.5,2.7 -2.9,3.1c-1.3,0.5 -2.8,0 -4.1,-1c-1.2,-1 -2.3,-2.6 -2.9,-4.6c-0.6,-2 -0.5,-3.9 0,-5.5c0.5,-1.5 1.5,-2.7 2.9,-3.1c1.4,-0.4 2.8,0.1 4.1,1.1z" id="ID0.2414738917723298_23_" fill="#fefbdf" stroke="#70715e"/><path d="M270.24056,180.4c0.7,0.5 1.3,1.4 1.6,2.5c0.3,1.1 0.3,2.2 0,3c-0.3,0.8 -0.9,1.5 -1.6,1.7c-0.7,0.2 -1.5,0 -2.2,-0.6c-0.7,-0.5 -1.3,-1.4 -1.6,-2.5c-0.3,-1.1 -0.3,-2.1 0,-3c0.3,-0.8 0.9,-1.5 1.6,-1.7c0.8,-0.2 1.6,0 2.2,0.6z" id="ID0.6192030962556601_23_" fill="#fefbdf" stroke="#70715e"/><path d="M271.34056,208.4l-2.6,-7.2l5.9,-3.1c0,0 2.3,5.5 1.6,6.6c-0.7,1 -4.9,3.7 -4.9,3.7z" id="ID0.15330331353470683_23_" fill="#518943" stroke="#426c36"/></g><path d="M258.14056,208.6" data-paper-data="{&quot;index&quot;:null}" id="ID0.39854341372847557_23_" fill="#faa51f" stroke="#8e5322" stroke-width="1.4" stroke-linecap="round" stroke-linejoin="round"/><path d="M253.64056,192.8c6.5,-1.9 10.9,-1.3 12.8,5.1c1.9,6.4 5.5,14.8 -5.9,18.1c-11.4,3.3 -12.5,-6.6 -14.4,-13c-1.9,-6.5 1.2,-8.4 7.5,-10.2z" data-paper-data="{&quot;index&quot;:null}" id="ID0.46792364912107587_23_" fill="#faa51f" stroke="#8e5322" stroke-width="1.4" stroke-linecap="round" stroke-linejoin="round"/><path d="M251.34056,198.9c3.6,-1.1 6,-0.5 7.2,3.5c1.2,4 1.8,6.3 -4.3,8.1c-6.1,1.8 -5.6,-1.5 -6.8,-5.5c-1.2,-4 0.3,-5 3.9,-6.1z" data-paper-data="{&quot;index&quot;:null}" id="ID0.38032895559445024_23_" fill="#ffffff" stroke="none" stroke-width="1" stroke-linecap="butt" stroke-linejoin="miter"/><g data-paper-data="{&quot;index&quot;:null}" id="ID0.7407716196030378_22_" stroke="#8e5322" stroke-width="1.4" stroke-linecap="round" stroke-linejoin="round"><path d="M253.24056,193.8l7.2,-3.6c8,3.3 14.6,12.5 11.3,15.9" id="ID0.15909873321652412_17_" fill="#faa51f"/><path d="M264.04056,201.6" id="ID0.8024068027734756_22_" fill="#faa51f"/><path d="M260.54056,200.7" id="ID0.06734407460317016_22_" fill="none"/><path d="M264.04056,201.6l-3.7,-3.2" id="ID0.8143284288235009_17_" fill="#faa51f"/><path d="M264.04056,201.6l1.1,-0.6" id="ID0.6682511982508004_17_" fill="none"/></g><g data-paper-data="{&quot;index&quot;:null}" id="ID0.32291418174281716_17_" stroke="#8e5322" stroke-width="1.4" stroke-linecap="round" stroke-linejoin="round"><path d="M242.64056,213.6c-6.1,-2.3 -3.5,-12.2 0.9,-16.4l4.2,-0.5" id="ID0.30105241015553474_17_" fill="#faa51f"/><path d="M246.14056,206.8" id="ID0.3822403196245432_17_" fill="#faa51f"/><path d="M248.14056,204.7" id="ID0.5879319808445871_17_" fill="none"/><path d="M246.14056,206.8v-3.9" id="ID0.7841392233967781_17_" fill="#faa51f"/><path d="M246.14056,206.8h-1.1" id="ID0.4326359131373465_17_" fill="none"/></g><path d="M269.04056,211.3c-4.6,-0.4 -22.6,-11.3 -6.4,-21.3c0,0 -12.8,9.2 6.2,18.4" data-paper-data="{&quot;index&quot;:null}" id="ID0.48627097019925714_23_" fill="#518943" stroke="#426c36" stroke-width="1.4" stroke-linecap="round" stroke-linejoin="round"/><path d="M246.94056,209.2c-3.5,-4.5 -6.2,-10 4.1,-15.8c0,0 -9.1,6.7 -2.6,14" data-paper-data="{&quot;index&quot;:null}" id="ID0.07006075512617826_23_" fill="#518943" stroke="#426c36" stroke-width="1.4" stroke-linecap="round" stroke-linejoin="round"/><path d="M271.74056,206.2c-7.7,4.2 -12.6,3.8 -13.9,0c-0.6,-1.6 1.4,-5.5 7.3,-5.3" data-paper-data="{&quot;index&quot;:null}" id="ID0.1790580078959465_25_" fill="#faa51f" stroke="#8e5322" stroke-width="1.4" stroke-linecap="round" stroke-linejoin="round"/><path d="M243.24056,207.7c2.7,-2.2 4.8,-0.5 6.2,1.4c2.1,2.6 -0.6,7.2 -6.8,4.5" data-paper-data="{&quot;index&quot;:null}" id="ID0.7947451807558537_17_" fill="#faa51f" stroke="#8e5322" stroke-width="1.4" stroke-linecap="round" stroke-linejoin="round"/><g data-paper-data="{&quot;index&quot;:null}"><g id="Layer_2_47_"><path d="M240.14056,148.2c1.5,-0.3 4.5,-0.9 6.2,-1c4.6,-0.4 9.1,0.8 9.1,0.8l11.5,-9.7l0.1,18.4c-0.7,-0.7 11.6,11.1 6.2,22.8c-5.5,11.9 -19.4,18.5 -37.9,17.2c-18.5,-1.3 -24.1,-11.2 -23.5,-16.8c0.5,-5.6 7.1,-8.5 7.1,-8.5c0,0 -0.4,-4.3 2,-9.9c1.5,-3.4 7.1,-8.7 7.1,-8.7l1.4,-11.5l8,6.1z" id="ID0.2591130444779992_23_" fill="#faa51f" stroke="none" stroke-width="1" stroke-linecap="butt" stroke-linejoin="miter"/><path d="M219.84056,171.2l2.1,-2.3l9.1,1.5c0,0 0.4,3.3 4.7,3.7c4.2,0.3 11.1,-2.1 11.1,-2.1l7.3,0.9c0,0 8,-1.5 9.2,4.8c2,10.9 -6.6,17.3 -15.1,18.3c-5.5,0.7 -9,0.4 -13,0.2c-17.5,-1 -23.6,-10.7 -22.8,-16.3c0.5,-5.6 6.9,-8 6.9,-8z" id="ID0.3588979784399271_23_" fill="#ffffff" stroke="none" stroke-width="1" stroke-linecap="butt" stroke-linejoin="miter"/><path d="M215.54056,177.1c0,0 -4.4,-0.4 -6.7,-1c-2.7,-0.7 -4.6,-2.2 -4.6,-2.2" id="ID0.2727069961838424_23_" fill="none" stroke="#8e5322" stroke-width="1.4" stroke-linecap="round" stroke-linejoin="round"/><path d="M215.74056,182.9c0,0 -2.5,1.4 -5.2,1.9c-2.7,0.6 -4.5,0.6 -4.5,0.6" id="ID0.5861211125738919_23_" fill="none" stroke="#8e5322" stroke-width="1.4" stroke-linecap="round" stroke-linejoin="round"/><path d="M252.84056,150.5l4.7,-4.2" id="ID0.4793355236761272_23_" fill="none" stroke="#8e5322" stroke-width="1.4" stroke-linecap="round" stroke-linejoin="round"/><path d="M240.14056,148.2c1.5,-0.3 4.5,-0.9 6.2,-1c4.6,-0.4 9.1,0.8 9.1,0.8l11.5,-9.7l0.1,18.4c-0.7,-0.7 11.6,11.1 6.2,22.8c-5.5,11.9 -19.4,18.5 -37.9,17.2c-18.5,-1.3 -24.1,-11.2 -23.5,-16.8c0.5,-5.6 7.1,-8.5 7.1,-8.5c0,0 -0.4,-4.3 2,-9.9c1.5,-3.4 7.1,-8.7 7.1,-8.7l1.4,-11.5l8,6.1z" id="ID0.48413723474368453_23_" fill="none" stroke="#8e5322" stroke-width="1.4" stroke-linecap="round" stroke-linejoin="round"/><path d="M284.24056,173.4c0,0 -3.9,1.1 -5.7,1.3c-1.8,0.2 -5.3,0.4 -5.3,0.4" id="ID0.9024141579866409_23_" fill="none" stroke="#8e5322" stroke-width="1.4" stroke-linecap="round" stroke-linejoin="round"/><path d="M272.64056,171.3c0,0 1.9,-2.1 5.2,-4.4c3.6,-2.5 5.7,-3.3 5.7,-3.3" id="ID0.16030752705410123_23_" fill="none" stroke="#8e5322" stroke-width="1.4" stroke-linecap="round" stroke-linejoin="round"/></g><g id="Layer_5_24_"><path d="M232.54056,155.4c2.8,1.3 3.4,6.3 1.1,10.9c-2.3,4.7 -6.5,7.4 -9.4,5.9c-2.8,-1.3 -3.4,-6.3 -1.1,-10.9c2.3,-4.6 6.5,-7.3 9.4,-5.9z" id="ID0.40023312577977777_23_" fill="#ffffff" stroke="#8e5322" stroke-width="1.4" stroke-linecap="round" stroke-linejoin="round"/><path d="M223.64056,164.8c0.2,-1 1,-1.7 2,-1.7c1.1,0.1 1.7,1.1 1.5,2.1c-0.2,1.2 -1.1,1.9 -2,1.7c-1.1,-0.1 -1.7,-1.1 -1.5,-2.1" id="ID0.43813491938635707_23_" fill="#414142" stroke="none" stroke-width="1" stroke-linecap="butt" stroke-linejoin="miter"/></g><g id="Layer_7_24_"><path d="M256.84056,156.1c3.4,1.7 4.4,6.8 2.1,11.4c-2.2,4.7 -6.9,7.1 -10.3,5.4c-3.4,-1.7 -4.4,-6.8 -2.1,-11.4c2.3,-4.6 6.9,-7 10.3,-5.4z" id="ID0.4253597157076001_23_" fill="#ffffff" stroke="#8e5322" stroke-width="1.4" stroke-linecap="round" stroke-linejoin="round"/><path d="M247.34056,165.4c-0.1,-1.1 0.5,-2 1.5,-2.1c0.9,-0.1 1.8,0.7 1.9,1.7c0.1,1.1 -0.5,2 -1.5,2.1c-0.9,0.1 -1.8,-0.7 -1.9,-1.7" id="ID0.814307457767427_23_" fill="#414142" stroke="none" stroke-width="1" stroke-linecap="butt" stroke-linejoin="miter"/></g><path d="M241.44056,172.9c0.3,1.4 -2.9,4.4 -4.9,4.5c-1.8,0.1 -3.8,-3 -3.9,-3.8c0,-1.9 2.5,-0.9 4.2,-0.9c1.5,0 4.3,-1.2 4.6,0.2z" id="ID0.5240494590252638_23_" fill="#5f4b43" stroke="#8e5322" stroke-width="1.4" stroke-linecap="round" stroke-linejoin="round"/><path d="M247.74056,186.9c0,0 -2.2,2.6 -7.7,2.2" id="ID0.046259244438260794_23_" fill="#ffffff" stroke="#8e5322" stroke-width="1.4" stroke-linecap="round" stroke-linejoin="round"/></g><g data-paper-data="{&quot;index&quot;:null}" id="ID0.16171270422637463_23_" fill="#faa51f" stroke="#8e5322" stroke-width="1.4" stroke-linecap="round" stroke-linejoin="round"><path d="M266.94056,211.4c0,0 0.5,5.3 1.2,7.8c2.7,1.8 9.1,5.8 9.5,8.4c0.3,2 -0.2,2.7 -2.1,3.4c-2.1,0.8 -11.3,1 -11.5,-1.1c-0.4,-4.5 2.8,-4.9 3.6,-5.2c0,0 -3.7,-1.6 -7.4,-4.1c-1.5,-2.2 -3.2,-6.7 -3.2,-6.7" id="ID0.007584026083350182_23_"/><path d="M267.44056,224.9c0,0 0.7,-0.3 2.2,0" id="ID0.31672530295327306_18_"/></g></g></g></svg>