<svg xmlns="http://www.w3.org/2000/svg" xmlns:xlink="http://www.w3.org/1999/xlink" version="1.1" width="90.72852935791016" height="95.0891098022461" viewBox="-0.1285345077514648 0.5999999523162842 90.72852935791016 95.0891098022461">
  <!-- Exported by Scratch - http://scratch.mit.edu/ -->
  <g id="ID0.8042219481430948">
    <path id="ID0.26344340899959207_3_" fill="#518943" stroke="#426C36" stroke-width="1.4" stroke-linecap="round" stroke-linejoin="round" d="M 19.3 52.2 C 19.3 52.2 12.7 67 13.9 70.4 C 15.8 75.3 29.6 79.7 32.4 77.9 C 37.2 74.8 35.6 75.6 35.6 75.6 L 40.7 61.9 L 19.3 52.2 Z "/>
    <path id="ID0.2414738917723298_3_" fill="#FEFBDF" stroke="#70715E" stroke-width="1.4" stroke-linecap="round" stroke-linejoin="round" d="M 25.6 41.6 C 27 42 28 43.2 28.5 44.7 C 29 46.2 29.1 48.2 28.5 50.1 C 27.9 52.1 26.8 53.7 25.6 54.7 C 24.3 55.7 22.8 56.1 21.5 55.7 C 20.2 55.3 19.1 54.1 18.6 52.6 C 18.1 51.1 18 49.1 18.6 47.2 C 19.2 45.2 20.3 43.6 21.5 42.6 C 22.8 41.6 24.2 41.2 25.6 41.6 Z "/>
    <path id="ID0.6192030962556601_3_" fill="#FEFBDF" stroke="#70715E" stroke-width="1.4" stroke-linecap="round" stroke-linejoin="round" d="M 24.7 44.7 C 25.4 44.9 26 45.6 26.3 46.4 C 26.6 47.3 26.6 48.3 26.3 49.4 C 26 50.5 25.4 51.4 24.7 51.9 C 24 52.5 23.2 52.7 22.5 52.5 C 21.8 52.3 21.2 51.6 20.9 50.8 C 20.6 49.9 20.6 48.9 20.9 47.8 C 21.2 46.7 21.8 45.8 22.5 45.3 C 23.1 44.8 23.9 44.5 24.7 44.7 Z "/>
    <path id="ID0.15330331353470683_3_" fill="#518943" stroke="#426C36" stroke-width="1.4" stroke-linecap="round" stroke-linejoin="round" d="M 21.4 73.4 L 24 66.2 L 18.1 63.1 C 18.1 63.1 15.8 68.6 16.5 69.7 C 17.2 70.7 21.4 73.4 21.4 73.4 Z "/>
  </g>
  <g id="ID0.15723733883351088_5_">
    <path id="ID0.527006761636585_5_" fill="#FAA51F" stroke="#8E5322" stroke-width="1.4" stroke-linecap="round" stroke-linejoin="round" d="M 34.7 77 C 34.7 77 40 78 41.1 78.8 C 38 81.2 36.4 78.5 38 82.9 C 38.7 84.9 40.4 89.5 42.8 89 C 50.6 86.8 41.5 84.5 50 78.8 C 52.3 77 55.5 72.7 46.1 70.5 "/>
    <path id="ID0.8937406223267317_6_" fill="#FAA51F" stroke="#8E5322" stroke-width="1.4" stroke-linecap="round" stroke-linejoin="round" d="M 48.4 80.3 C 47.4 80.8 46 82.2 44.8 83 "/>
    <path id="ID0.8937406223267317_5_" fill="#FAA51F" stroke="#8E5322" stroke-width="1.4" stroke-linecap="round" stroke-linejoin="round" d="M 43.9 78.4 C 43.4 78.6 41 78.2 39.7 78.2 "/>
  </g>
  <g id="Layer_2_10_">
    <path id="ID0.39854341372847557_3_" fill="#FAA51F" stroke="#8E5322" stroke-width="1.4" stroke-linecap="round" stroke-linejoin="round" d="M 35.6 69.6 "/>
  </g>
  <g id="Layer_3_3_">
    <path id="ID0.8535828334279358_3_" fill="#FAA51F" d="M 23.5 74.9 C 21 74.9 18 74.7 15.1 72.9 C 8.7 69 5.3 61.2 1.9 64.1 C -1.5 67 1.3 80.2 14.1 81.8 C 18.6 82.4 22.4 81.6 25.4 80.9 C 26.2 80.7 32.9 78.7 34.6 74.7 C 36.3 70.7 34.4 70.3 33.5 69.9 C 32.5 69.8 27 75 23.5 74.9 Z " stroke-width="1"/>
    <path id="ID0.914295740891248_3_" fill="#FFFFFF" d="M 2.1 64 C 0.3 65.1 0.1 70.1 1.7 73.4 C 3.4 76.7 5.8 78.5 7.3 79.5 C 9.1 80.2 6 76.7 7.7 74.5 C 9.4 72.3 13.6 72.1 13.6 72.1 C 13.6 72.1 9.6 68.4 7.4 66.3 C 5.5 64.3 4.1 63 2.1 64 Z " stroke-width="1"/>
    <path id="ID0.40227043256163597_3_" fill="none" stroke="#8E5322" stroke-width="1.4" stroke-linecap="round" stroke-linejoin="round" d="M 23.5 74.9 C 21 74.9 18 74.7 15.1 72.9 C 8.7 69 5.3 61.2 1.9 64.1 C -1.5 67 1.3 80.2 14.1 81.8 C 18.6 82.4 22.4 81.6 25.4 80.9 C 26.2 80.7 32.9 78.7 34.6 74.7 C 36.3 70.7 34.4 70.3 33.5 69.9 C 32.5 69.8 27 75 23.5 74.9 Z "/>
  </g>
  <path id="ID0.46792364912107587_3_" fill="#FAA51F" stroke="#8E5322" stroke-width="1.4" stroke-linecap="round" stroke-linejoin="round" d="M 47.6 63.9 C 45.7 70.3 44.6 80.2 33.2 76.9 C 21.8 73.5 25.4 65.2 27.3 58.8 C 29.2 52.4 33.6 51.8 40.1 53.7 C 46.4 55.6 49.5 57.5 47.6 63.9 Z "/>
  <g id="ID0.16171270422637463_3_">
    <path id="ID0.007584026083350182_3_" fill="#FAA51F" stroke="#8E5322" stroke-width="1.4" stroke-linecap="round" stroke-linejoin="round" d="M 33.8 77.1 C 33.8 77.1 27.2 79.7 20.4 85.3 C 17.4 87.7 25 91.1 18.6 94.9 C 16.8 95.9 11.7 88.2 11.2 86 C 10.7 84 11 83.2 12.8 82.3 C 19.4 79.1 26.6 68.5 26.6 68.5 "/>
    <path id="ID0.31672530295327306_3_" fill="#FAA51F" stroke="#8E5322" stroke-width="1.4" stroke-linecap="round" stroke-linejoin="round" d="M 20.1 88 C 20.1 88 19.5 86.8 18.4 85.7 "/>
  </g>
  <path id="ID0.38032895559445024_3_" fill="#FFFFFF" d="M 45.7 66.5 C 44.5 70.5 43.6 76.8 37.5 75 C 31.4 73.2 33.4 67.9 34.6 63.8 C 35.8 59.7 38.2 59.2 41.8 60.3 C 45.3 61.4 46.9 62.4 45.7 66.5 Z " stroke-width="1"/>
  <g id="ID0.7407716196030378_3_">
    <path id="ID0.15909873321652412_3_" fill="#FAA51F" stroke="#8E5322" stroke-width="1.4" stroke-linecap="round" stroke-linejoin="round" d="M 22 67 C 18.7 63.6 25.3 54.4 33.3 51.1 L 40.5 54.7 "/>
    <path id="ID0.8024068027734756_3_" fill="#FAA51F" stroke="#8E5322" stroke-width="1.4" stroke-linecap="round" stroke-linejoin="round" d="M 29.7 62.5 "/>
    <path id="ID0.06734407460317016_3_" fill="none" stroke="#8E5322" stroke-width="1.4" stroke-linecap="round" stroke-linejoin="round" d="M 33.2 61.7 "/>
    <path id="ID0.8143284288235009_3_" fill="#FAA51F" stroke="#8E5322" stroke-width="1.4" stroke-linecap="round" stroke-linejoin="round" d="M 29.7 62.5 L 33.4 59.3 "/>
    <path id="ID0.6682511982508004_3_" fill="none" stroke="#8E5322" stroke-width="1.4" stroke-linecap="round" stroke-linejoin="round" d="M 29.7 62.5 L 28.6 61.9 "/>
  </g>
  <g id="ID0.32291418174281716_3_">
    <path id="ID0.30105241015553474_3_" fill="#FAA51F" stroke="#8E5322" stroke-width="1.4" stroke-linecap="round" stroke-linejoin="round" d="M 51.1 74.5 C 57.2 72.2 54.6 62.3 50.2 58.1 L 46 57.6 "/>
    <path id="ID0.3822403196245432_3_" fill="#FAA51F" stroke="#8E5322" stroke-width="1.4" stroke-linecap="round" stroke-linejoin="round" d="M 47.6 67.8 "/>
    <path id="ID0.5879319808445871_3_" fill="none" stroke="#8E5322" stroke-width="1.4" stroke-linecap="round" stroke-linejoin="round" d="M 45.6 65.6 "/>
    <path id="ID0.7841392233967781_3_" fill="#FAA51F" stroke="#8E5322" stroke-width="1.4" stroke-linecap="round" stroke-linejoin="round" d="M 47.6 67.8 L 47.6 63.9 "/>
    <path id="ID0.4326359131373465_3_" fill="none" stroke="#8E5322" stroke-width="1.4" stroke-linecap="round" stroke-linejoin="round" d="M 47.6 67.8 L 48.7 67.8 "/>
  </g>
  <path id="ID0.48627097019925714_3_" fill="#518943" stroke="#426C36" stroke-width="1.4" stroke-linecap="round" stroke-linejoin="round" d="M 24.7 72.3 C 29.3 71.9 47.3 61 31.1 50.9 C 31.1 50.9 43.9 60.1 24.9 69.3 "/>
  <path id="ID0.07006075512617826_3_" fill="#518943" stroke="#426C36" stroke-width="1.4" stroke-linecap="round" stroke-linejoin="round" d="M 46.8 70.1 C 50.3 65.6 53 60.1 42.7 54.3 C 42.7 54.3 51.8 61 45.3 68.3 "/>
  <path id="ID0.1790580078959465_3_" fill="#FAA51F" stroke="#8E5322" stroke-width="1.4" stroke-linecap="round" stroke-linejoin="round" d="M 28.6 61.9 C 34.5 61.7 36.5 65.6 35.9 67.2 C 34.6 71 29.7 71.4 22 67.2 "/>
  <path id="ID0.7947451807558537_3_" fill="#FAA51F" stroke="#8E5322" stroke-width="1.4" stroke-linecap="round" stroke-linejoin="round" d="M 50.5 68.6 C 47.8 66.4 45.7 68.1 44.3 70 C 42.2 72.6 44.9 77.2 51.1 74.5 "/>
  <g id="ID0.22208929294720292">
    <g id="Layer_2_5_">
      <path id="ID0.2591130444779992_3_" fill="#FAA51F" d="M 53.6 11.2 C 52.1 10.9 49.1 10.3 47.4 10.2 C 42.8 9.8 38.3 11 38.3 11 L 26.8 1.3 L 26.7 19.7 C 27.4 19 15.1 30.8 20.5 42.5 C 26 54.4 39.9 61.1 58.4 59.7 C 76.9 58.4 82.5 48.5 81.9 42.9 C 81.4 37.3 74.8 34.4 74.8 34.4 C 74.8 34.4 75.2 30.1 72.8 24.5 C 71.3 21.1 65.7 15.8 65.7 15.8 L 64.3 4.3 L 56.3 10.4 L 53.6 11.2 Z " stroke-width="1"/>
      <path id="ID0.3588979784399271_3_" fill="#FFFFFF" d="M 73.9 34.1 L 71.8 31.8 L 62.7 33.3 C 62.7 33.3 62.3 36.6 58 37 C 53.7 37.4 46.9 34.9 46.9 34.9 L 39.6 35.8 C 39.6 35.8 31.6 34.3 30.4 40.6 C 28.4 51.6 37 58 45.5 58.9 C 51 59.6 54.5 59.3 58.5 59.1 C 76 58.1 82.1 48.4 81.3 42.8 C 80.8 37.2 74.4 34.8 74.4 34.8 L 73.9 34.1 Z " stroke-width="1"/>
      <path id="ID0.2727069961838424_3_" fill="none" stroke="#8E5322" stroke-width="1.4" stroke-linecap="round" stroke-linejoin="round" d="M 78.2 40.1 C 78.2 40.1 82.6 40.8 84.9 40.7 C 87.7 40.6 89.9 39.6 89.9 39.6 "/>
      <path id="ID0.5861211125738919_3_" fill="none" stroke="#8E5322" stroke-width="1.4" stroke-linecap="round" stroke-linejoin="round" d="M 78 45.9 C 78 45.9 80.2 47.7 82.8 48.7 C 85.3 49.8 87.1 50.1 87.1 50.1 "/>
      <path id="ID0.4793355236761272_3_" fill="none" stroke="#8E5322" stroke-width="1.4" stroke-linecap="round" stroke-linejoin="round" d="M 36.2 9.2 L 40.9 13.4 "/>
      <path id="ID0.48413723474368453_3_" fill="none" stroke="#8E5322" stroke-width="1.4" stroke-linecap="round" stroke-linejoin="round" d="M 53.6 11.2 C 52.1 10.9 49.1 10.3 47.4 10.2 C 42.8 9.8 38.3 11 38.3 11 L 26.8 1.3 L 26.7 19.7 C 27.4 19 15.1 30.8 20.5 42.5 C 26 54.4 39.9 61.1 58.4 59.7 C 76.9 58.4 82.5 48.5 81.9 42.9 C 81.4 37.3 74.8 34.4 74.8 34.4 C 74.8 34.4 75.2 30.1 72.8 24.5 C 71.3 21.1 65.7 15.8 65.7 15.8 L 64.3 4.3 L 56.3 10.4 L 53.6 11.2 Z "/>
      <path id="ID0.9024141579866409_3_" fill="none" stroke="#8E5322" stroke-width="1.4" stroke-linecap="round" stroke-linejoin="round" d="M 9.4 39.4 C 9.4 39.4 13.4 39.4 15.2 39.1 C 17 38.8 20.4 38 20.4 38 "/>
      <path id="ID0.16030752705410123_3_" fill="none" stroke="#8E5322" stroke-width="1.4" stroke-linecap="round" stroke-linejoin="round" d="M 21.1 34.3 C 18.8 32.8 18.8 32.8 15 31.4 C 10.9 29.9 8.7 29.6 8.7 29.6 "/>
    </g>
    <g id="Layer_5_3_">
      <path id="ID0.40023312577977777_3_" fill="#FFFFFF" stroke="#8E5322" stroke-width="1.4" stroke-linecap="round" stroke-linejoin="round" d="M 70.6 24.2 C 72.9 28.8 72.3 33.8 69.5 35.1 C 66.6 36.6 62.4 33.9 60.1 29.2 C 57.8 24.6 58.4 19.6 61.2 18.3 C 64.1 17 68.3 19.6 70.6 24.2 Z "/>
      <path id="ID0.43813491938635707_3_" fill="#414142" d="M 70.1 27.8 C 70.3 28.8 69.7 29.8 68.6 29.9 C 67.7 30.1 66.8 29.4 66.6 28.2 C 66.4 27.2 67 26.2 68.1 26.1 C 69.1 26.1 69.9 26.8 70.1 27.8 " stroke-width="1"/>
    </g>
    <g id="Layer_7_3_">
      <path id="ID0.4253597157076001_3_" fill="#FFFFFF" stroke="#8E5322" stroke-width="1.4" stroke-linecap="round" stroke-linejoin="round" d="M 47.2 24.5 C 49.5 29.1 48.5 34.2 45.1 35.9 C 41.7 37.6 37 35.2 34.8 30.5 C 32.5 25.9 33.5 20.8 36.9 19.1 C 40.3 17.5 44.9 19.9 47.2 24.5 Z "/>
      <path id="ID0.814307457767427_3_" fill="#414142" d="M 46.4 28.3 C 46.3 29.3 45.4 30.1 44.5 30 C 43.5 29.9 42.9 29 43 27.9 C 43.1 26.9 44 26.1 44.9 26.2 C 45.9 26.3 46.6 27.2 46.4 28.3 " stroke-width="1"/>
    </g>
    <path id="ID0.5240494590252638_3_" fill="#5F4B43" stroke="#8E5322" stroke-width="1.4" stroke-linecap="round" stroke-linejoin="round" d="M 56.9 35.6 C 58.6 35.6 61.1 34.6 61.1 36.5 C 61 37.3 59 40.4 57.2 40.3 C 55.2 40.2 52 37.2 52.3 35.8 C 52.6 34.4 55.4 35.7 56.9 35.6 Z "/>
    <path id="ID0.046259244438260794_3_" fill="#FFFFFF" stroke="#8E5322" stroke-width="1.4" stroke-linecap="round" stroke-linejoin="round" d="M 46 49.8 C 46 49.8 48.2 52.4 53.7 52 "/>
  </g>
</svg>