<svg xmlns="http://www.w3.org/2000/svg" xmlns:xlink="http://www.w3.org/1999/xlink" version="1.1" id="Layer_1" x="0px" y="0px" width="89.15364685058594" height="96.30711212158204" viewBox="28.04635696411133 20.899998474121094 89.15364685058594 96.30711212158204" enable-background="new 0 0 128 128" xml:space="preserve">
  <g>
    <g id="Layer_3_14_">
      <path id="ID0.8535828334279358_13_" fill="#FAA51F" d="M48.7,95c-2.4-0.8-5.1-2.1-7.2-4.8c-4.7-5.9-5.1-14.3-9.3-12.8&#13;&#10;&#9;&#9;c-4.2,1.5-6.2,14.9,5.3,20.9c4,2.1,7.8,2.7,10.9,3.1c0.8,0.1,7.9,0.5,10.7-2.6c2.9-3.1,1.4-4.2,0.6-4.9C59,93.3,52,96.3,48.7,95z" stroke-width="1"/>
      <path id="ID0.914295740891248_13_" fill="#FFFFFF" d="M32.4,77.3c-2.1,0.4-4,5-3.6,8.7c0.5,3.7,2.1,6.2,3.1,7.7&#13;&#10;&#9;&#9;c1.4,1.3-0.2-3.1,2.2-4.6c2.4-1.5,6.4-0.2,6.4-0.2s-2.5-4.8-3.8-7.5C35.6,78.9,34.6,77.1,32.4,77.3z" stroke-width="1"/>
      <path id="ID0.40227043256163597_13_" fill="none" stroke="#8E5322" stroke-width="1.4" stroke-linecap="round" stroke-linejoin="round" d="&#13;&#10;&#9;&#9;M48.7,95c-2.4-0.8-5.1-2.1-7.2-4.8c-4.7-5.9-5.1-14.3-9.3-12.8c-4.2,1.5-6.2,14.9,5.3,20.9c4,2.1,7.8,2.7,10.9,3.1&#13;&#10;&#9;&#9;c0.8,0.1,7.9,0.5,10.7-2.6c2.9-3.1,1.4-4.2,0.6-4.9C59,93.3,52,96.3,48.7,95z"/>
    </g>
    <g>
      <path id="ID0.26344340899959207_13_" fill="#518943" stroke="#426C36" stroke-width="1.4" stroke-linecap="round" stroke-linejoin="round" d="&#13;&#10;&#9;&#9;M47.4,70.2c0,0-6.6,14.8-5.4,18.2c1.9,4.9,15.7,9.3,18.5,7.5c4.8-3.1,3.2-2.3,3.2-2.3l5.1-13.7L47.4,70.2z"/>
      <path id="ID0.2414738917723298_13_" fill="#FEFBDF" stroke="#70715E" stroke-width="1.4" stroke-linecap="round" stroke-linejoin="round" d="&#13;&#10;&#9;&#9;M53.7,59.5c1.4,0.4,2.4,1.6,2.9,3.1c0.5,1.6,0.6,3.5,0,5.5c-0.6,2-1.7,3.6-2.9,4.6c-1.3,1-2.8,1.5-4.1,1c-1.4-0.4-2.4-1.6-2.9-3.1&#13;&#10;&#9;&#9;c-0.5-1.5-0.6-3.5,0-5.4c0.6-2,1.7-3.6,2.9-4.6C50.9,59.6,52.4,59.1,53.7,59.5z"/>
      <path id="ID0.6192030962556601_13_" fill="#FEFBDF" stroke="#70715E" stroke-width="1.4" stroke-linecap="round" stroke-linejoin="round" d="&#13;&#10;&#9;&#9;M52.8,62.7c0.7,0.2,1.3,0.9,1.6,1.7c0.3,0.9,0.3,1.9,0,3c-0.3,1.1-0.9,2-1.6,2.5c-0.7,0.6-1.5,0.8-2.2,0.6&#13;&#10;&#9;&#9;c-0.7-0.2-1.3-0.9-1.6-1.7s-0.3-1.9,0-3c0.3-1.1,0.9-2,1.6-2.5C51.3,62.7,52.1,62.5,52.8,62.7z"/>
      <path id="ID0.15330331353470683_13_" fill="#518943" stroke="#426C36" stroke-width="1.4" stroke-linecap="round" stroke-linejoin="round" d="&#13;&#10;&#9;&#9;M49.5,91.3l2.6-7.2L46.3,81c0,0-2.3,5.5-1.6,6.6C45.3,88.6,49.5,91.3,49.5,91.3z"/>
    </g>
    <g id="ID0.16171270422637463_13_">
      <path id="ID0.007584026083350182_13_" fill="#FAA51F" stroke="#8E5322" stroke-width="1.4" stroke-linecap="round" stroke-linejoin="round" d="&#13;&#10;&#9;&#9;M70.7,94.9c0,0-2.4,4.5-2.4,13.4c0,3.8,7.4-0.8,6.3,6.5c-0.4,2.1-9.5,2-11.6,1.1c-1.8-0.9-2.3-1.6-1.8-3.6c1.8-7.2-3-19.4-3-19.4"/>
      <path id="ID0.31672530295327306_13_" fill="#FAA51F" stroke="#8E5322" stroke-width="1.4" stroke-linecap="round" stroke-linejoin="round" d="&#13;&#10;&#9;&#9;M69.8,109.9c0,0-1-0.3-2.6-0.5"/>
    </g>
    <g id="Layer_2_28_">
      <path id="ID0.39854341372847557_13_" fill="#FAA51F" stroke="#8E5322" stroke-width="1.4" stroke-linecap="round" stroke-linejoin="round" d="&#13;&#10;&#9;&#9;M62.8,91.5"/>
    </g>
    <path id="ID0.46792364912107587_13_" fill="#FAA51F" stroke="#8E5322" stroke-width="1.4" stroke-linecap="round" stroke-linejoin="round" d="&#13;&#10;&#9;M74.9,85.8c-1.9,6.4-3,16.3-14.4,13c-11.4-3.3-7.8-11.7-5.9-18.1c1.9-6.4,6.3-7,12.8-5.1C73.7,77.5,76.8,79.4,74.9,85.8z"/>
    <path id="ID0.38032895559445024_13_" fill="#FFFFFF" d="M72.6,87.9c-1.2,4-2.1,10.3-8.2,8.5c-6.1-1.8-4.1-7.1-2.9-11.2&#13;&#10;&#9;c1.2-4,3.6-4.6,7.2-3.5C72.2,82.8,73.7,83.9,72.6,87.9z" stroke-width="1"/>
    <g id="ID0.15723733883351088_28_">
      <path id="ID0.527006761636585_28_" fill="#FAA51F" stroke="#8E5322" stroke-width="1.4" stroke-linecap="round" stroke-linejoin="round" d="&#13;&#10;&#9;&#9;M52.9,92.7c0,0,0.2,5.7-0.2,7c-1.6-2.6-2.1-3.9-5-1.5c-1.7,1.4-5.3,4.5-4,6.6c4.8,6.5,3.7-2.8,12,3.2c2.5,1.6,7,1.9,6.5-9.2"/>
      <path id="ID0.8937406223267317_40_" fill="#FAA51F" stroke="#8E5322" stroke-width="1.4" stroke-linecap="round" stroke-linejoin="round" d="&#13;&#10;&#9;&#9;M53.9,107c-0.8-0.8-2.6-1.6-3.8-2.4"/>
      <path id="ID0.8937406223267317_39_" fill="#FAA51F" stroke="#8E5322" stroke-width="1.4" stroke-linecap="round" stroke-linejoin="round" d="&#13;&#10;&#9;&#9;M54.1,102.2c-0.4-0.4-0.8-2.8-1.2-4"/>
    </g>
    <g id="ID0.7407716196030378_12_">
      <path id="ID0.15909873321652412_11_" fill="#FAA51F" stroke="#8E5322" stroke-width="1.4" stroke-linecap="round" stroke-linejoin="round" d="&#13;&#10;&#9;&#9;M49.3,89c-3.3-3.4,3.3-12.6,11.3-15.9l7.2,3.6"/>
      <path id="ID0.8024068027734756_12_" fill="#FAA51F" stroke="#8E5322" stroke-width="1.4" stroke-linecap="round" stroke-linejoin="round" d="&#13;&#10;&#9;&#9;M56.9,84.4"/>
      <path id="ID0.06734407460317016_12_" fill="none" stroke="#8E5322" stroke-width="1.4" stroke-linecap="round" stroke-linejoin="round" d="&#13;&#10;&#9;&#9;M60.4,83.6"/>
      <path id="ID0.8143284288235009_11_" fill="#FAA51F" stroke="#8E5322" stroke-width="1.4" stroke-linecap="round" stroke-linejoin="round" d="&#13;&#10;&#9;&#9;M56.9,84.4l3.7-3.2"/>
      <path id="ID0.6682511982508004_11_" fill="none" stroke="#8E5322" stroke-width="1.4" stroke-linecap="round" stroke-linejoin="round" d="&#13;&#10;&#9;&#9;M56.9,84.4l-1.1-0.6"/>
    </g>
    <g id="ID0.32291418174281716_11_">
      <path id="ID0.30105241015553474_11_" fill="#FAA51F" stroke="#8E5322" stroke-width="1.4" stroke-linecap="round" stroke-linejoin="round" d="&#13;&#10;&#9;&#9;M78.3,96.4c6.1-2.3,3.5-12.2-0.9-16.4l-4.2-0.5"/>
      <path id="ID0.3822403196245432_11_" fill="#FAA51F" stroke="#8E5322" stroke-width="1.4" stroke-linecap="round" stroke-linejoin="round" d="&#13;&#10;&#9;&#9;M74.9,89.7"/>
      <path id="ID0.5879319808445871_11_" fill="none" stroke="#8E5322" stroke-width="1.4" stroke-linecap="round" stroke-linejoin="round" d="&#13;&#10;&#9;&#9;M72.8,87.5"/>
      <path id="ID0.7841392233967781_11_" fill="#FAA51F" stroke="#8E5322" stroke-width="1.4" stroke-linecap="round" stroke-linejoin="round" d="&#13;&#10;&#9;&#9;M74.9,89.7l0-3.9"/>
      <path id="ID0.4326359131373465_11_" fill="none" stroke="#8E5322" stroke-width="1.4" stroke-linecap="round" stroke-linejoin="round" d="&#13;&#10;&#9;&#9;M74.9,89.7l1.1,0"/>
    </g>
    <path id="ID0.48627097019925714_13_" fill="#518943" stroke="#426C36" stroke-width="1.4" stroke-linecap="round" stroke-linejoin="round" d="&#13;&#10;&#9;M51.9,94.2c4.6-0.4,22.6-11.3,6.4-21.4c0,0,12.8,9.2-6.2,18.4"/>
    <path id="ID0.07006075512617826_13_" fill="#518943" stroke="#426C36" stroke-width="1.4" stroke-linecap="round" stroke-linejoin="round" d="&#13;&#10;&#9;M74,92c3.5-4.5,6.2-10-4.1-15.8c0,0,9.1,6.7,2.6,14"/>
    <path id="ID0.1790580078959465_15_" fill="#FAA51F" stroke="#8E5322" stroke-width="1.4" stroke-linecap="round" stroke-linejoin="round" d="&#13;&#10;&#9;M55.9,83.8c5.9-0.2,7.9,3.7,7.3,5.3c-1.3,3.8-6.2,4.2-13.9,0"/>
    <path id="ID0.7947451807558537_11_" fill="#FAA51F" stroke="#8E5322" stroke-width="1.4" stroke-linecap="round" stroke-linejoin="round" d="&#13;&#10;&#9;M77.8,90.5c-2.7-2.2-4.8-0.5-6.2,1.4c-2.1,2.6,0.6,7.2,6.8,4.5"/>
    <g>
      <g id="Layer_2_27_">
        <path id="ID0.2591130444779992_13_" fill="#FAA51F" d="M80.7,31.5c-1.5-0.3-4.5-0.9-6.2-1c-4.6-0.4-9.1,0.8-9.1,0.8l-11.5-9.7&#13;&#10;&#9;&#9;&#9;l-0.1,18.4c0.7-0.7-11.6,11.1-6.2,22.8C53.1,74.7,67,81.4,85.5,80s24.1-11.2,23.5-16.8s-7.1-8.5-7.1-8.5s0.4-4.3-2-9.9&#13;&#10;&#9;&#9;&#9;c-1.5-3.4-7.1-8.7-7.1-8.7l-1.4-11.5l-8,6.1L80.7,31.5z" stroke-width="1"/>
        <path id="ID0.3588979784399271_13_" fill="#FFFFFF" d="M101,54.4l-2.1-2.3l-9.1,1.5c0,0-0.4,3.3-4.7,3.7&#13;&#10;&#9;&#9;&#9;C80.9,57.7,74,55.2,74,55.2l-7.3,0.9c0,0-8-1.5-9.2,4.8c-2,10.9,6.5,17.3,15,18.3c5.5,0.7,9,0.4,13,0.2&#13;&#10;&#9;&#9;&#9;c17.4-1,23.6-10.7,22.8-16.3c-0.5-5.6-6.9-8-6.9-8L101,54.4z" stroke-width="1"/>
        <path id="ID0.2727069961838424_13_" fill="none" stroke="#8E5322" stroke-width="1.4" stroke-linecap="round" stroke-linejoin="round" d="&#13;&#10;&#9;&#9;&#9;M105.3,60.4c0,0,4.4-0.5,6.7-1.1c2.6-0.8,4.5-2.3,4.5-2.3"/>
        <path id="ID0.5861211125738919_13_" fill="none" stroke="#8E5322" stroke-width="1.4" stroke-linecap="round" stroke-linejoin="round" d="&#13;&#10;&#9;&#9;&#9;M105.1,66.2c0,0,2.6,1.2,5.4,1.4c2.7,0.4,4.5,0.2,4.5,0.2"/>
        <path id="ID0.4793355236761272_13_" fill="none" stroke="#8E5322" stroke-width="1.4" stroke-linecap="round" stroke-linejoin="round" d="&#13;&#10;&#9;&#9;&#9;M63.3,29.5l4.7,4.2"/>
        <path id="ID0.48413723474368453_13_" fill="none" stroke="#8E5322" stroke-width="1.4" stroke-linecap="round" stroke-linejoin="round" d="&#13;&#10;&#9;&#9;&#9;M80.7,31.5c-1.5-0.3-4.5-0.9-6.2-1c-4.6-0.4-9.1,0.8-9.1,0.8l-11.5-9.7l-0.1,18.4c0.7-0.7-11.6,11.1-6.2,22.8&#13;&#10;&#9;&#9;&#9;C53.1,74.7,67,81.4,85.5,80s24.1-11.2,23.5-16.8s-7.1-8.5-7.1-8.5s0.4-4.3-2-9.9c-1.5-3.4-7.1-8.7-7.1-8.7l-1.4-11.5l-8,6.1&#13;&#10;&#9;&#9;&#9;L80.7,31.5z"/>
        <path id="ID0.9024141579866409_13_" fill="none" stroke="#8E5322" stroke-width="1.4" stroke-linecap="round" stroke-linejoin="round" d="&#13;&#10;&#9;&#9;&#9;M36.5,56.7c0,0,3.9,1.1,5.6,1.3c1.8,0.2,5.3,0.4,5.3,0.4"/>
        <path id="ID0.16030752705410123_13_" fill="none" stroke="#8E5322" stroke-width="1.4" stroke-linecap="round" stroke-linejoin="round" d="&#13;&#10;&#9;&#9;&#9;M48.2,54.6c0,0-1.9-2.2-5-4.5c-3.5-2.6-5.6-3.5-5.6-3.5"/>
      </g>
      <g id="Layer_5_14_">
        <path id="ID0.40023312577977777_13_" fill="#FFFFFF" stroke="#8E5322" stroke-width="1.4" stroke-linecap="round" stroke-linejoin="round" d="&#13;&#10;&#9;&#9;&#9;M97.7,44.6c2.3,4.6,1.7,9.6-1.1,10.9c-2.9,1.5-7.1-1.2-9.4-5.9c-2.3-4.6-1.7-9.6,1.1-10.9C91.2,37.3,95.4,39.9,97.7,44.6z"/>
        <path id="ID0.43813491938635707_13_" fill="#414142" d="M97.1,48.1c0.2,1-0.4,2-1.5,2.1c-0.9,0.2-1.8-0.5-2-1.7&#13;&#10;&#9;&#9;&#9;c-0.2-1,0.4-2,1.5-2.1C96.1,46.4,97,47.1,97.1,48.1" stroke-width="1"/>
      </g>
      <g id="Layer_7_14_">
        <path id="ID0.4253597157076001_13_" fill="#FFFFFF" stroke="#8E5322" stroke-width="1.4" stroke-linecap="round" stroke-linejoin="round" d="&#13;&#10;&#9;&#9;&#9;M74.3,44.8c2.3,4.6,1.3,9.7-2.1,11.4c-3.4,1.7-8.1-0.7-10.3-5.4c-2.3-4.6-1.3-9.7,2.1-11.4C67.4,37.8,72,40.2,74.3,44.8z"/>
        <path id="ID0.814307457767427_13_" fill="#414142" d="M73.5,48.6c-0.1,1-1,1.8-1.9,1.7c-1-0.1-1.6-1-1.5-2.1c0.1-1,1-1.8,1.9-1.7&#13;&#10;&#9;&#9;&#9;C72.9,46.6,73.6,47.5,73.5,48.6" stroke-width="1"/>
      </g>
      <path id="ID0.5240494590252638_13_" fill="#5F4B43" stroke="#8E5322" stroke-width="1.4" stroke-linecap="round" stroke-linejoin="round" d="&#13;&#10;&#9;&#9;M84,56c1.7,0,4.2-1,4.2,0.9c-0.1,0.8-2.1,3.9-3.9,3.8c-2-0.1-5.2-3.1-4.9-4.5C79.7,54.6,82.5,56,84,56z"/>
      <path id="ID0.046259244438260794_13_" fill="#FFFFFF" stroke="#8E5322" stroke-width="1.4" stroke-linecap="round" stroke-linejoin="round" d="&#13;&#10;&#9;&#9;M73.1,70.1c0,0,2.2,2.6,7.7,2.2"/>
    </g>
  </g>
</svg>